<?xml version="1.0" encoding="utf-8" standalone="no"?>
<!DOCTYPE svg PUBLIC "-//W3C//DTD SVG 1.1//EN"
  "http://www.w3.org/Graphics/SVG/1.1/DTD/svg11.dtd">
<svg xmlns:xlink="http://www.w3.org/1999/xlink" width="460.8pt" height="345.6pt" viewBox="0 0 460.8 345.6" xmlns="http://www.w3.org/2000/svg" version="1.1">
 <metadata>
  <rdf:RDF xmlns:dc="http://purl.org/dc/elements/1.1/" xmlns:cc="http://creativecommons.org/ns#" xmlns:rdf="http://www.w3.org/1999/02/22-rdf-syntax-ns#">
   <cc:Work>
    <dc:type rdf:resource="http://purl.org/dc/dcmitype/StillImage"/>
    <dc:date>2022-05-12T08:34:40.711619</dc:date>
    <dc:format>image/svg+xml</dc:format>
    <dc:creator>
     <cc:Agent>
      <dc:title>Matplotlib v3.5.1, https://matplotlib.org/</dc:title>
     </cc:Agent>
    </dc:creator>
   </cc:Work>
  </rdf:RDF>
 </metadata>
 <defs>
  <style type="text/css">*{stroke-linejoin: round; stroke-linecap: butt}</style>
 </defs>
 <g id="figure_1">
  <g id="patch_1">
   <path d="M 0 345.6 
L 460.8 345.6 
L 460.8 0 
L 0 0 
z
" style="fill: #ffffff"/>
  </g>
  <g id="axes_1">
   <g id="patch_2">
    <path d="M 55.67625 298.20375 
L 328.94 298.20375 
L 328.94 27.6 
L 55.67625 27.6 
z
" style="fill: #eaeaf2"/>
   </g>
   <g id="matplotlib.axis_1">
    <g id="xtick_1">
     <g id="line2d_1">
      <path d="M 80.978449 298.20375 
L 80.978449 27.6 
" clip-path="url(#p22476a1cf7)" style="fill: none; stroke: #ffffff; stroke-linecap: round"/>
     </g>
     <g id="text_1">
      <!-- 0 -->
      <g style="fill: #262626" transform="translate(77.919933 315.577344)scale(0.11 -0.11)">
       <defs>
        <path id="ArialMT-30" d="M 266 2259 
Q 266 3072 433 3567 
Q 600 4063 929 4331 
Q 1259 4600 1759 4600 
Q 2128 4600 2406 4451 
Q 2684 4303 2865 4023 
Q 3047 3744 3150 3342 
Q 3253 2941 3253 2259 
Q 3253 1453 3087 958 
Q 2922 463 2592 192 
Q 2263 -78 1759 -78 
Q 1097 -78 719 397 
Q 266 969 266 2259 
z
M 844 2259 
Q 844 1131 1108 757 
Q 1372 384 1759 384 
Q 2147 384 2411 759 
Q 2675 1134 2675 2259 
Q 2675 3391 2411 3762 
Q 2147 4134 1753 4134 
Q 1366 4134 1134 3806 
Q 844 3388 844 2259 
z
" transform="scale(0.015625)"/>
       </defs>
       <use xlink:href="#ArialMT-30"/>
      </g>
     </g>
    </g>
    <g id="xtick_2">
     <g id="line2d_2">
      <path d="M 136.643287 298.20375 
L 136.643287 27.6 
" clip-path="url(#p22476a1cf7)" style="fill: none; stroke: #ffffff; stroke-linecap: round"/>
     </g>
     <g id="text_2">
      <!-- 110 -->
      <g style="fill: #262626" transform="translate(127.873365 315.577344)scale(0.11 -0.11)">
       <defs>
        <path id="ArialMT-31" d="M 2384 0 
L 1822 0 
L 1822 3584 
Q 1619 3391 1289 3197 
Q 959 3003 697 2906 
L 697 3450 
Q 1169 3672 1522 3987 
Q 1875 4303 2022 4600 
L 2384 4600 
L 2384 0 
z
" transform="scale(0.015625)"/>
       </defs>
       <use xlink:href="#ArialMT-31"/>
       <use xlink:href="#ArialMT-31" x="48.240234"/>
       <use xlink:href="#ArialMT-30" x="103.855469"/>
      </g>
     </g>
    </g>
    <g id="xtick_3">
     <g id="line2d_3">
      <path d="M 192.308125 298.20375 
L 192.308125 27.6 
" clip-path="url(#p22476a1cf7)" style="fill: none; stroke: #ffffff; stroke-linecap: round"/>
     </g>
     <g id="text_3">
      <!-- 220 -->
      <g style="fill: #262626" transform="translate(183.132578 315.577344)scale(0.11 -0.11)">
       <defs>
        <path id="ArialMT-32" d="M 3222 541 
L 3222 0 
L 194 0 
Q 188 203 259 391 
Q 375 700 629 1000 
Q 884 1300 1366 1694 
Q 2113 2306 2375 2664 
Q 2638 3022 2638 3341 
Q 2638 3675 2398 3904 
Q 2159 4134 1775 4134 
Q 1369 4134 1125 3890 
Q 881 3647 878 3216 
L 300 3275 
Q 359 3922 746 4261 
Q 1134 4600 1788 4600 
Q 2447 4600 2831 4234 
Q 3216 3869 3216 3328 
Q 3216 3053 3103 2787 
Q 2991 2522 2730 2228 
Q 2469 1934 1863 1422 
Q 1356 997 1212 845 
Q 1069 694 975 541 
L 3222 541 
z
" transform="scale(0.015625)"/>
       </defs>
       <use xlink:href="#ArialMT-32"/>
       <use xlink:href="#ArialMT-32" x="55.615234"/>
       <use xlink:href="#ArialMT-30" x="111.230469"/>
      </g>
     </g>
    </g>
    <g id="xtick_4">
     <g id="line2d_4">
      <path d="M 247.972963 298.20375 
L 247.972963 27.6 
" clip-path="url(#p22476a1cf7)" style="fill: none; stroke: #ffffff; stroke-linecap: round"/>
     </g>
     <g id="text_4">
      <!-- 330 -->
      <g style="fill: #262626" transform="translate(238.797416 315.577344)scale(0.11 -0.11)">
       <defs>
        <path id="ArialMT-33" d="M 269 1209 
L 831 1284 
Q 928 806 1161 595 
Q 1394 384 1728 384 
Q 2125 384 2398 659 
Q 2672 934 2672 1341 
Q 2672 1728 2419 1979 
Q 2166 2231 1775 2231 
Q 1616 2231 1378 2169 
L 1441 2663 
Q 1497 2656 1531 2656 
Q 1891 2656 2178 2843 
Q 2466 3031 2466 3422 
Q 2466 3731 2256 3934 
Q 2047 4138 1716 4138 
Q 1388 4138 1169 3931 
Q 950 3725 888 3313 
L 325 3413 
Q 428 3978 793 4289 
Q 1159 4600 1703 4600 
Q 2078 4600 2393 4439 
Q 2709 4278 2876 4000 
Q 3044 3722 3044 3409 
Q 3044 3113 2884 2869 
Q 2725 2625 2413 2481 
Q 2819 2388 3044 2092 
Q 3269 1797 3269 1353 
Q 3269 753 2831 336 
Q 2394 -81 1725 -81 
Q 1122 -81 723 278 
Q 325 638 269 1209 
z
" transform="scale(0.015625)"/>
       </defs>
       <use xlink:href="#ArialMT-33"/>
       <use xlink:href="#ArialMT-33" x="55.615234"/>
       <use xlink:href="#ArialMT-30" x="111.230469"/>
      </g>
     </g>
    </g>
    <g id="xtick_5">
     <g id="line2d_5">
      <path d="M 303.637801 298.20375 
L 303.637801 27.6 
" clip-path="url(#p22476a1cf7)" style="fill: none; stroke: #ffffff; stroke-linecap: round"/>
     </g>
     <g id="text_5">
      <!-- 440 -->
      <g style="fill: #262626" transform="translate(294.462254 315.577344)scale(0.11 -0.11)">
       <defs>
        <path id="ArialMT-34" d="M 2069 0 
L 2069 1097 
L 81 1097 
L 81 1613 
L 2172 4581 
L 2631 4581 
L 2631 1613 
L 3250 1613 
L 3250 1097 
L 2631 1097 
L 2631 0 
L 2069 0 
z
M 2069 1613 
L 2069 3678 
L 634 1613 
L 2069 1613 
z
" transform="scale(0.015625)"/>
       </defs>
       <use xlink:href="#ArialMT-34"/>
       <use xlink:href="#ArialMT-34" x="55.615234"/>
       <use xlink:href="#ArialMT-30" x="111.230469"/>
      </g>
     </g>
    </g>
    <g id="xtick_6">
     <g id="line2d_6">
      <path d="M 80.978449 298.20375 
L 80.978449 27.6 
" clip-path="url(#p22476a1cf7)" style="fill: none; stroke: #ffffff; stroke-linecap: round"/>
     </g>
     <g id="text_6">
      <!-- 0 -->
      <g style="fill: #262626" transform="translate(77.919933 315.577344)scale(0.11 -0.11)">
       <use xlink:href="#ArialMT-30"/>
      </g>
     </g>
    </g>
    <g id="xtick_7">
     <g id="line2d_7">
      <path d="M 136.643287 298.20375 
L 136.643287 27.6 
" clip-path="url(#p22476a1cf7)" style="fill: none; stroke: #ffffff; stroke-linecap: round"/>
     </g>
     <g id="text_7">
      <!-- 110 -->
      <g style="fill: #262626" transform="translate(127.873365 315.577344)scale(0.11 -0.11)">
       <use xlink:href="#ArialMT-31"/>
       <use xlink:href="#ArialMT-31" x="48.240234"/>
       <use xlink:href="#ArialMT-30" x="103.855469"/>
      </g>
     </g>
    </g>
    <g id="xtick_8">
     <g id="line2d_8">
      <path d="M 192.308125 298.20375 
L 192.308125 27.6 
" clip-path="url(#p22476a1cf7)" style="fill: none; stroke: #ffffff; stroke-linecap: round"/>
     </g>
     <g id="text_8">
      <!-- 220 -->
      <g style="fill: #262626" transform="translate(183.132578 315.577344)scale(0.11 -0.11)">
       <use xlink:href="#ArialMT-32"/>
       <use xlink:href="#ArialMT-32" x="55.615234"/>
       <use xlink:href="#ArialMT-30" x="111.230469"/>
      </g>
     </g>
    </g>
    <g id="xtick_9">
     <g id="line2d_9">
      <path d="M 247.972963 298.20375 
L 247.972963 27.6 
" clip-path="url(#p22476a1cf7)" style="fill: none; stroke: #ffffff; stroke-linecap: round"/>
     </g>
     <g id="text_9">
      <!-- 330 -->
      <g style="fill: #262626" transform="translate(238.797416 315.577344)scale(0.11 -0.11)">
       <use xlink:href="#ArialMT-33"/>
       <use xlink:href="#ArialMT-33" x="55.615234"/>
       <use xlink:href="#ArialMT-30" x="111.230469"/>
      </g>
     </g>
    </g>
    <g id="xtick_10">
     <g id="line2d_10">
      <path d="M 303.637801 298.20375 
L 303.637801 27.6 
" clip-path="url(#p22476a1cf7)" style="fill: none; stroke: #ffffff; stroke-linecap: round"/>
     </g>
     <g id="text_10">
      <!-- 440 -->
      <g style="fill: #262626" transform="translate(294.462254 315.577344)scale(0.11 -0.11)">
       <use xlink:href="#ArialMT-34"/>
       <use xlink:href="#ArialMT-34" x="55.615234"/>
       <use xlink:href="#ArialMT-30" x="111.230469"/>
      </g>
     </g>
    </g>
    <g id="xtick_11">
     <g id="line2d_11">
      <path d="M 80.978449 298.20375 
L 80.978449 27.6 
" clip-path="url(#p22476a1cf7)" style="fill: none; stroke: #ffffff; stroke-linecap: round"/>
     </g>
     <g id="text_11">
      <!-- 0 -->
      <g style="fill: #262626" transform="translate(77.919933 315.577344)scale(0.11 -0.11)">
       <use xlink:href="#ArialMT-30"/>
      </g>
     </g>
    </g>
    <g id="xtick_12">
     <g id="line2d_12">
      <path d="M 136.643287 298.20375 
L 136.643287 27.6 
" clip-path="url(#p22476a1cf7)" style="fill: none; stroke: #ffffff; stroke-linecap: round"/>
     </g>
     <g id="text_12">
      <!-- 110 -->
      <g style="fill: #262626" transform="translate(127.873365 315.577344)scale(0.11 -0.11)">
       <use xlink:href="#ArialMT-31"/>
       <use xlink:href="#ArialMT-31" x="48.240234"/>
       <use xlink:href="#ArialMT-30" x="103.855469"/>
      </g>
     </g>
    </g>
    <g id="xtick_13">
     <g id="line2d_13">
      <path d="M 192.308125 298.20375 
L 192.308125 27.6 
" clip-path="url(#p22476a1cf7)" style="fill: none; stroke: #ffffff; stroke-linecap: round"/>
     </g>
     <g id="text_13">
      <!-- 220 -->
      <g style="fill: #262626" transform="translate(183.132578 315.577344)scale(0.11 -0.11)">
       <use xlink:href="#ArialMT-32"/>
       <use xlink:href="#ArialMT-32" x="55.615234"/>
       <use xlink:href="#ArialMT-30" x="111.230469"/>
      </g>
     </g>
    </g>
    <g id="xtick_14">
     <g id="line2d_14">
      <path d="M 247.972963 298.20375 
L 247.972963 27.6 
" clip-path="url(#p22476a1cf7)" style="fill: none; stroke: #ffffff; stroke-linecap: round"/>
     </g>
     <g id="text_14">
      <!-- 330 -->
      <g style="fill: #262626" transform="translate(238.797416 315.577344)scale(0.11 -0.11)">
       <use xlink:href="#ArialMT-33"/>
       <use xlink:href="#ArialMT-33" x="55.615234"/>
       <use xlink:href="#ArialMT-30" x="111.230469"/>
      </g>
     </g>
    </g>
    <g id="xtick_15">
     <g id="line2d_15">
      <path d="M 303.637801 298.20375 
L 303.637801 27.6 
" clip-path="url(#p22476a1cf7)" style="fill: none; stroke: #ffffff; stroke-linecap: round"/>
     </g>
     <g id="text_15">
      <!-- 440 -->
      <g style="fill: #262626" transform="translate(294.462254 315.577344)scale(0.11 -0.11)">
       <use xlink:href="#ArialMT-34"/>
       <use xlink:href="#ArialMT-34" x="55.615234"/>
       <use xlink:href="#ArialMT-30" x="111.230469"/>
      </g>
     </g>
    </g>
    <g id="xtick_16">
     <g id="line2d_16">
      <path d="M 80.978449 298.20375 
L 80.978449 27.6 
" clip-path="url(#p22476a1cf7)" style="fill: none; stroke: #ffffff; stroke-linecap: round"/>
     </g>
     <g id="text_16">
      <!-- 0 -->
      <g style="fill: #262626" transform="translate(77.919933 315.577344)scale(0.11 -0.11)">
       <use xlink:href="#ArialMT-30"/>
      </g>
     </g>
    </g>
    <g id="xtick_17">
     <g id="line2d_17">
      <path d="M 136.643287 298.20375 
L 136.643287 27.6 
" clip-path="url(#p22476a1cf7)" style="fill: none; stroke: #ffffff; stroke-linecap: round"/>
     </g>
     <g id="text_17">
      <!-- 110 -->
      <g style="fill: #262626" transform="translate(127.873365 315.577344)scale(0.11 -0.11)">
       <use xlink:href="#ArialMT-31"/>
       <use xlink:href="#ArialMT-31" x="48.240234"/>
       <use xlink:href="#ArialMT-30" x="103.855469"/>
      </g>
     </g>
    </g>
    <g id="xtick_18">
     <g id="line2d_18">
      <path d="M 192.308125 298.20375 
L 192.308125 27.6 
" clip-path="url(#p22476a1cf7)" style="fill: none; stroke: #ffffff; stroke-linecap: round"/>
     </g>
     <g id="text_18">
      <!-- 220 -->
      <g style="fill: #262626" transform="translate(183.132578 315.577344)scale(0.11 -0.11)">
       <use xlink:href="#ArialMT-32"/>
       <use xlink:href="#ArialMT-32" x="55.615234"/>
       <use xlink:href="#ArialMT-30" x="111.230469"/>
      </g>
     </g>
    </g>
    <g id="xtick_19">
     <g id="line2d_19">
      <path d="M 247.972963 298.20375 
L 247.972963 27.6 
" clip-path="url(#p22476a1cf7)" style="fill: none; stroke: #ffffff; stroke-linecap: round"/>
     </g>
     <g id="text_19">
      <!-- 330 -->
      <g style="fill: #262626" transform="translate(238.797416 315.577344)scale(0.11 -0.11)">
       <use xlink:href="#ArialMT-33"/>
       <use xlink:href="#ArialMT-33" x="55.615234"/>
       <use xlink:href="#ArialMT-30" x="111.230469"/>
      </g>
     </g>
    </g>
    <g id="xtick_20">
     <g id="line2d_20">
      <path d="M 303.637801 298.20375 
L 303.637801 27.6 
" clip-path="url(#p22476a1cf7)" style="fill: none; stroke: #ffffff; stroke-linecap: round"/>
     </g>
     <g id="text_20">
      <!-- 440 -->
      <g style="fill: #262626" transform="translate(294.462254 315.577344)scale(0.11 -0.11)">
       <use xlink:href="#ArialMT-34"/>
       <use xlink:href="#ArialMT-34" x="55.615234"/>
       <use xlink:href="#ArialMT-30" x="111.230469"/>
      </g>
     </g>
    </g>
    <g id="xtick_21">
     <g id="line2d_21">
      <path d="M 80.978449 298.20375 
L 80.978449 27.6 
" clip-path="url(#p22476a1cf7)" style="fill: none; stroke: #ffffff; stroke-linecap: round"/>
     </g>
     <g id="text_21">
      <!-- 0 -->
      <g style="fill: #262626" transform="translate(77.919933 315.577344)scale(0.11 -0.11)">
       <use xlink:href="#ArialMT-30"/>
      </g>
     </g>
    </g>
    <g id="xtick_22">
     <g id="line2d_22">
      <path d="M 136.643287 298.20375 
L 136.643287 27.6 
" clip-path="url(#p22476a1cf7)" style="fill: none; stroke: #ffffff; stroke-linecap: round"/>
     </g>
     <g id="text_22">
      <!-- 110 -->
      <g style="fill: #262626" transform="translate(127.873365 315.577344)scale(0.11 -0.11)">
       <use xlink:href="#ArialMT-31"/>
       <use xlink:href="#ArialMT-31" x="48.240234"/>
       <use xlink:href="#ArialMT-30" x="103.855469"/>
      </g>
     </g>
    </g>
    <g id="xtick_23">
     <g id="line2d_23">
      <path d="M 192.308125 298.20375 
L 192.308125 27.6 
" clip-path="url(#p22476a1cf7)" style="fill: none; stroke: #ffffff; stroke-linecap: round"/>
     </g>
     <g id="text_23">
      <!-- 220 -->
      <g style="fill: #262626" transform="translate(183.132578 315.577344)scale(0.11 -0.11)">
       <use xlink:href="#ArialMT-32"/>
       <use xlink:href="#ArialMT-32" x="55.615234"/>
       <use xlink:href="#ArialMT-30" x="111.230469"/>
      </g>
     </g>
    </g>
    <g id="xtick_24">
     <g id="line2d_24">
      <path d="M 247.972963 298.20375 
L 247.972963 27.6 
" clip-path="url(#p22476a1cf7)" style="fill: none; stroke: #ffffff; stroke-linecap: round"/>
     </g>
     <g id="text_24">
      <!-- 330 -->
      <g style="fill: #262626" transform="translate(238.797416 315.577344)scale(0.11 -0.11)">
       <use xlink:href="#ArialMT-33"/>
       <use xlink:href="#ArialMT-33" x="55.615234"/>
       <use xlink:href="#ArialMT-30" x="111.230469"/>
      </g>
     </g>
    </g>
    <g id="xtick_25">
     <g id="line2d_25">
      <path d="M 303.637801 298.20375 
L 303.637801 27.6 
" clip-path="url(#p22476a1cf7)" style="fill: none; stroke: #ffffff; stroke-linecap: round"/>
     </g>
     <g id="text_25">
      <!-- 440 -->
      <g style="fill: #262626" transform="translate(294.462254 315.577344)scale(0.11 -0.11)">
       <use xlink:href="#ArialMT-34"/>
       <use xlink:href="#ArialMT-34" x="55.615234"/>
       <use xlink:href="#ArialMT-30" x="111.230469"/>
      </g>
     </g>
    </g>
    <g id="text_26">
     <!-- X-Coordinate [m] -->
     <g style="fill: #262626" transform="translate(146.959375 330.499219)scale(0.12 -0.12)">
      <defs>
       <path id="ArialMT-58" d="M 28 0 
L 1800 2388 
L 238 4581 
L 959 4581 
L 1791 3406 
Q 2050 3041 2159 2844 
Q 2313 3094 2522 3366 
L 3444 4581 
L 4103 4581 
L 2494 2422 
L 4228 0 
L 3478 0 
L 2325 1634 
Q 2228 1775 2125 1941 
Q 1972 1691 1906 1597 
L 756 0 
L 28 0 
z
" transform="scale(0.015625)"/>
       <path id="ArialMT-2d" d="M 203 1375 
L 203 1941 
L 1931 1941 
L 1931 1375 
L 203 1375 
z
" transform="scale(0.015625)"/>
       <path id="ArialMT-43" d="M 3763 1606 
L 4369 1453 
Q 4178 706 3683 314 
Q 3188 -78 2472 -78 
Q 1731 -78 1267 223 
Q 803 525 561 1097 
Q 319 1669 319 2325 
Q 319 3041 592 3573 
Q 866 4106 1370 4382 
Q 1875 4659 2481 4659 
Q 3169 4659 3637 4309 
Q 4106 3959 4291 3325 
L 3694 3184 
Q 3534 3684 3231 3912 
Q 2928 4141 2469 4141 
Q 1941 4141 1586 3887 
Q 1231 3634 1087 3207 
Q 944 2781 944 2328 
Q 944 1744 1114 1308 
Q 1284 872 1643 656 
Q 2003 441 2422 441 
Q 2931 441 3284 734 
Q 3638 1028 3763 1606 
z
" transform="scale(0.015625)"/>
       <path id="ArialMT-6f" d="M 213 1659 
Q 213 2581 725 3025 
Q 1153 3394 1769 3394 
Q 2453 3394 2887 2945 
Q 3322 2497 3322 1706 
Q 3322 1066 3130 698 
Q 2938 331 2570 128 
Q 2203 -75 1769 -75 
Q 1072 -75 642 372 
Q 213 819 213 1659 
z
M 791 1659 
Q 791 1022 1069 705 
Q 1347 388 1769 388 
Q 2188 388 2466 706 
Q 2744 1025 2744 1678 
Q 2744 2294 2464 2611 
Q 2184 2928 1769 2928 
Q 1347 2928 1069 2612 
Q 791 2297 791 1659 
z
" transform="scale(0.015625)"/>
       <path id="ArialMT-72" d="M 416 0 
L 416 3319 
L 922 3319 
L 922 2816 
Q 1116 3169 1280 3281 
Q 1444 3394 1641 3394 
Q 1925 3394 2219 3213 
L 2025 2691 
Q 1819 2813 1613 2813 
Q 1428 2813 1281 2702 
Q 1134 2591 1072 2394 
Q 978 2094 978 1738 
L 978 0 
L 416 0 
z
" transform="scale(0.015625)"/>
       <path id="ArialMT-64" d="M 2575 0 
L 2575 419 
Q 2259 -75 1647 -75 
Q 1250 -75 917 144 
Q 584 363 401 755 
Q 219 1147 219 1656 
Q 219 2153 384 2558 
Q 550 2963 881 3178 
Q 1213 3394 1622 3394 
Q 1922 3394 2156 3267 
Q 2391 3141 2538 2938 
L 2538 4581 
L 3097 4581 
L 3097 0 
L 2575 0 
z
M 797 1656 
Q 797 1019 1065 703 
Q 1334 388 1700 388 
Q 2069 388 2326 689 
Q 2584 991 2584 1609 
Q 2584 2291 2321 2609 
Q 2059 2928 1675 2928 
Q 1300 2928 1048 2622 
Q 797 2316 797 1656 
z
" transform="scale(0.015625)"/>
       <path id="ArialMT-69" d="M 425 3934 
L 425 4581 
L 988 4581 
L 988 3934 
L 425 3934 
z
M 425 0 
L 425 3319 
L 988 3319 
L 988 0 
L 425 0 
z
" transform="scale(0.015625)"/>
       <path id="ArialMT-6e" d="M 422 0 
L 422 3319 
L 928 3319 
L 928 2847 
Q 1294 3394 1984 3394 
Q 2284 3394 2536 3286 
Q 2788 3178 2913 3003 
Q 3038 2828 3088 2588 
Q 3119 2431 3119 2041 
L 3119 0 
L 2556 0 
L 2556 2019 
Q 2556 2363 2490 2533 
Q 2425 2703 2258 2804 
Q 2091 2906 1866 2906 
Q 1506 2906 1245 2678 
Q 984 2450 984 1813 
L 984 0 
L 422 0 
z
" transform="scale(0.015625)"/>
       <path id="ArialMT-61" d="M 2588 409 
Q 2275 144 1986 34 
Q 1697 -75 1366 -75 
Q 819 -75 525 192 
Q 231 459 231 875 
Q 231 1119 342 1320 
Q 453 1522 633 1644 
Q 813 1766 1038 1828 
Q 1203 1872 1538 1913 
Q 2219 1994 2541 2106 
Q 2544 2222 2544 2253 
Q 2544 2597 2384 2738 
Q 2169 2928 1744 2928 
Q 1347 2928 1158 2789 
Q 969 2650 878 2297 
L 328 2372 
Q 403 2725 575 2942 
Q 747 3159 1072 3276 
Q 1397 3394 1825 3394 
Q 2250 3394 2515 3294 
Q 2781 3194 2906 3042 
Q 3031 2891 3081 2659 
Q 3109 2516 3109 2141 
L 3109 1391 
Q 3109 606 3145 398 
Q 3181 191 3288 0 
L 2700 0 
Q 2613 175 2588 409 
z
M 2541 1666 
Q 2234 1541 1622 1453 
Q 1275 1403 1131 1340 
Q 988 1278 909 1158 
Q 831 1038 831 891 
Q 831 666 1001 516 
Q 1172 366 1500 366 
Q 1825 366 2078 508 
Q 2331 650 2450 897 
Q 2541 1088 2541 1459 
L 2541 1666 
z
" transform="scale(0.015625)"/>
       <path id="ArialMT-74" d="M 1650 503 
L 1731 6 
Q 1494 -44 1306 -44 
Q 1000 -44 831 53 
Q 663 150 594 308 
Q 525 466 525 972 
L 525 2881 
L 113 2881 
L 113 3319 
L 525 3319 
L 525 4141 
L 1084 4478 
L 1084 3319 
L 1650 3319 
L 1650 2881 
L 1084 2881 
L 1084 941 
Q 1084 700 1114 631 
Q 1144 563 1211 522 
Q 1278 481 1403 481 
Q 1497 481 1650 503 
z
" transform="scale(0.015625)"/>
       <path id="ArialMT-65" d="M 2694 1069 
L 3275 997 
Q 3138 488 2766 206 
Q 2394 -75 1816 -75 
Q 1088 -75 661 373 
Q 234 822 234 1631 
Q 234 2469 665 2931 
Q 1097 3394 1784 3394 
Q 2450 3394 2872 2941 
Q 3294 2488 3294 1666 
Q 3294 1616 3291 1516 
L 816 1516 
Q 847 969 1125 678 
Q 1403 388 1819 388 
Q 2128 388 2347 550 
Q 2566 713 2694 1069 
z
M 847 1978 
L 2700 1978 
Q 2663 2397 2488 2606 
Q 2219 2931 1791 2931 
Q 1403 2931 1139 2672 
Q 875 2413 847 1978 
z
" transform="scale(0.015625)"/>
       <path id="ArialMT-20" transform="scale(0.015625)"/>
       <path id="ArialMT-5b" d="M 434 -1272 
L 434 4581 
L 1675 4581 
L 1675 4116 
L 997 4116 
L 997 -806 
L 1675 -806 
L 1675 -1272 
L 434 -1272 
z
" transform="scale(0.015625)"/>
       <path id="ArialMT-6d" d="M 422 0 
L 422 3319 
L 925 3319 
L 925 2853 
Q 1081 3097 1340 3245 
Q 1600 3394 1931 3394 
Q 2300 3394 2536 3241 
Q 2772 3088 2869 2813 
Q 3263 3394 3894 3394 
Q 4388 3394 4653 3120 
Q 4919 2847 4919 2278 
L 4919 0 
L 4359 0 
L 4359 2091 
Q 4359 2428 4304 2576 
Q 4250 2725 4106 2815 
Q 3963 2906 3769 2906 
Q 3419 2906 3187 2673 
Q 2956 2441 2956 1928 
L 2956 0 
L 2394 0 
L 2394 2156 
Q 2394 2531 2256 2718 
Q 2119 2906 1806 2906 
Q 1569 2906 1367 2781 
Q 1166 2656 1075 2415 
Q 984 2175 984 1722 
L 984 0 
L 422 0 
z
" transform="scale(0.015625)"/>
       <path id="ArialMT-5d" d="M 1363 -1272 
L 122 -1272 
L 122 -806 
L 800 -806 
L 800 4116 
L 122 4116 
L 122 4581 
L 1363 4581 
L 1363 -1272 
z
" transform="scale(0.015625)"/>
      </defs>
      <use xlink:href="#ArialMT-58"/>
      <use xlink:href="#ArialMT-2d" x="66.699219"/>
      <use xlink:href="#ArialMT-43" x="100"/>
      <use xlink:href="#ArialMT-6f" x="172.216797"/>
      <use xlink:href="#ArialMT-6f" x="227.832031"/>
      <use xlink:href="#ArialMT-72" x="283.447266"/>
      <use xlink:href="#ArialMT-64" x="316.748047"/>
      <use xlink:href="#ArialMT-69" x="372.363281"/>
      <use xlink:href="#ArialMT-6e" x="394.580078"/>
      <use xlink:href="#ArialMT-61" x="450.195312"/>
      <use xlink:href="#ArialMT-74" x="505.810547"/>
      <use xlink:href="#ArialMT-65" x="533.59375"/>
      <use xlink:href="#ArialMT-20" x="589.208984"/>
      <use xlink:href="#ArialMT-5b" x="616.992188"/>
      <use xlink:href="#ArialMT-6d" x="644.775391"/>
      <use xlink:href="#ArialMT-5d" x="728.076172"/>
     </g>
    </g>
   </g>
   <g id="matplotlib.axis_2">
    <g id="ytick_1">
     <g id="line2d_26">
      <path d="M 55.67625 273.147847 
L 328.94 273.147847 
" clip-path="url(#p22476a1cf7)" style="fill: none; stroke: #ffffff; stroke-linecap: round"/>
     </g>
     <g id="text_27">
      <!-- 0 -->
      <g style="fill: #262626" transform="translate(40.059219 277.084644)scale(0.11 -0.11)">
       <use xlink:href="#ArialMT-30"/>
      </g>
     </g>
    </g>
    <g id="ytick_2">
     <g id="line2d_27">
      <path d="M 55.67625 273.147847 
L 328.94 273.147847 
" clip-path="url(#p22476a1cf7)" style="fill: none; stroke: #ffffff; stroke-linecap: round"/>
     </g>
     <g id="text_28">
      <!-- 0 -->
      <g style="fill: #262626" transform="translate(40.059219 277.084644)scale(0.11 -0.11)">
       <use xlink:href="#ArialMT-30"/>
      </g>
     </g>
    </g>
    <g id="ytick_3">
     <g id="line2d_28">
      <path d="M 55.67625 273.147847 
L 328.94 273.147847 
" clip-path="url(#p22476a1cf7)" style="fill: none; stroke: #ffffff; stroke-linecap: round"/>
     </g>
     <g id="text_29">
      <!-- 0 -->
      <g style="fill: #262626" transform="translate(40.059219 277.084644)scale(0.11 -0.11)">
       <use xlink:href="#ArialMT-30"/>
      </g>
     </g>
    </g>
    <g id="ytick_4">
     <g id="line2d_29">
      <path d="M 55.67625 273.147847 
L 328.94 273.147847 
" clip-path="url(#p22476a1cf7)" style="fill: none; stroke: #ffffff; stroke-linecap: round"/>
     </g>
     <g id="text_30">
      <!-- 0 -->
      <g style="fill: #262626" transform="translate(40.059219 277.084644)scale(0.11 -0.11)">
       <use xlink:href="#ArialMT-30"/>
      </g>
     </g>
    </g>
    <g id="ytick_5">
     <g id="line2d_30">
      <path d="M 55.67625 273.147847 
L 328.94 273.147847 
" clip-path="url(#p22476a1cf7)" style="fill: none; stroke: #ffffff; stroke-linecap: round"/>
     </g>
     <g id="text_31">
      <!-- 0 -->
      <g style="fill: #262626" transform="translate(40.059219 277.084644)scale(0.11 -0.11)">
       <use xlink:href="#ArialMT-30"/>
      </g>
     </g>
    </g>
    <g id="ytick_6">
     <g id="line2d_31">
      <path d="M 55.67625 218.024861 
L 328.94 218.024861 
" clip-path="url(#p22476a1cf7)" style="fill: none; stroke: #ffffff; stroke-linecap: round"/>
     </g>
     <g id="text_32">
      <!-- 110 -->
      <g style="fill: #262626" transform="translate(28.636406 221.961658)scale(0.11 -0.11)">
       <use xlink:href="#ArialMT-31"/>
       <use xlink:href="#ArialMT-31" x="48.240234"/>
       <use xlink:href="#ArialMT-30" x="103.855469"/>
      </g>
     </g>
    </g>
    <g id="ytick_7">
     <g id="line2d_32">
      <path d="M 55.67625 218.024861 
L 328.94 218.024861 
" clip-path="url(#p22476a1cf7)" style="fill: none; stroke: #ffffff; stroke-linecap: round"/>
     </g>
     <g id="text_33">
      <!-- 110 -->
      <g style="fill: #262626" transform="translate(28.636406 221.961658)scale(0.11 -0.11)">
       <use xlink:href="#ArialMT-31"/>
       <use xlink:href="#ArialMT-31" x="48.240234"/>
       <use xlink:href="#ArialMT-30" x="103.855469"/>
      </g>
     </g>
    </g>
    <g id="ytick_8">
     <g id="line2d_33">
      <path d="M 55.67625 218.024861 
L 328.94 218.024861 
" clip-path="url(#p22476a1cf7)" style="fill: none; stroke: #ffffff; stroke-linecap: round"/>
     </g>
     <g id="text_34">
      <!-- 110 -->
      <g style="fill: #262626" transform="translate(28.636406 221.961658)scale(0.11 -0.11)">
       <use xlink:href="#ArialMT-31"/>
       <use xlink:href="#ArialMT-31" x="48.240234"/>
       <use xlink:href="#ArialMT-30" x="103.855469"/>
      </g>
     </g>
    </g>
    <g id="ytick_9">
     <g id="line2d_34">
      <path d="M 55.67625 218.024861 
L 328.94 218.024861 
" clip-path="url(#p22476a1cf7)" style="fill: none; stroke: #ffffff; stroke-linecap: round"/>
     </g>
     <g id="text_35">
      <!-- 110 -->
      <g style="fill: #262626" transform="translate(28.636406 221.961658)scale(0.11 -0.11)">
       <use xlink:href="#ArialMT-31"/>
       <use xlink:href="#ArialMT-31" x="48.240234"/>
       <use xlink:href="#ArialMT-30" x="103.855469"/>
      </g>
     </g>
    </g>
    <g id="ytick_10">
     <g id="line2d_35">
      <path d="M 55.67625 218.024861 
L 328.94 218.024861 
" clip-path="url(#p22476a1cf7)" style="fill: none; stroke: #ffffff; stroke-linecap: round"/>
     </g>
     <g id="text_36">
      <!-- 110 -->
      <g style="fill: #262626" transform="translate(28.636406 221.961658)scale(0.11 -0.11)">
       <use xlink:href="#ArialMT-31"/>
       <use xlink:href="#ArialMT-31" x="48.240234"/>
       <use xlink:href="#ArialMT-30" x="103.855469"/>
      </g>
     </g>
    </g>
    <g id="ytick_11">
     <g id="line2d_36">
      <path d="M 55.67625 162.901875 
L 328.94 162.901875 
" clip-path="url(#p22476a1cf7)" style="fill: none; stroke: #ffffff; stroke-linecap: round"/>
     </g>
     <g id="text_37">
      <!-- 220 -->
      <g style="fill: #262626" transform="translate(27.825156 166.838672)scale(0.11 -0.11)">
       <use xlink:href="#ArialMT-32"/>
       <use xlink:href="#ArialMT-32" x="55.615234"/>
       <use xlink:href="#ArialMT-30" x="111.230469"/>
      </g>
     </g>
    </g>
    <g id="ytick_12">
     <g id="line2d_37">
      <path d="M 55.67625 162.901875 
L 328.94 162.901875 
" clip-path="url(#p22476a1cf7)" style="fill: none; stroke: #ffffff; stroke-linecap: round"/>
     </g>
     <g id="text_38">
      <!-- 220 -->
      <g style="fill: #262626" transform="translate(27.825156 166.838672)scale(0.11 -0.11)">
       <use xlink:href="#ArialMT-32"/>
       <use xlink:href="#ArialMT-32" x="55.615234"/>
       <use xlink:href="#ArialMT-30" x="111.230469"/>
      </g>
     </g>
    </g>
    <g id="ytick_13">
     <g id="line2d_38">
      <path d="M 55.67625 162.901875 
L 328.94 162.901875 
" clip-path="url(#p22476a1cf7)" style="fill: none; stroke: #ffffff; stroke-linecap: round"/>
     </g>
     <g id="text_39">
      <!-- 220 -->
      <g style="fill: #262626" transform="translate(27.825156 166.838672)scale(0.11 -0.11)">
       <use xlink:href="#ArialMT-32"/>
       <use xlink:href="#ArialMT-32" x="55.615234"/>
       <use xlink:href="#ArialMT-30" x="111.230469"/>
      </g>
     </g>
    </g>
    <g id="ytick_14">
     <g id="line2d_39">
      <path d="M 55.67625 162.901875 
L 328.94 162.901875 
" clip-path="url(#p22476a1cf7)" style="fill: none; stroke: #ffffff; stroke-linecap: round"/>
     </g>
     <g id="text_40">
      <!-- 220 -->
      <g style="fill: #262626" transform="translate(27.825156 166.838672)scale(0.11 -0.11)">
       <use xlink:href="#ArialMT-32"/>
       <use xlink:href="#ArialMT-32" x="55.615234"/>
       <use xlink:href="#ArialMT-30" x="111.230469"/>
      </g>
     </g>
    </g>
    <g id="ytick_15">
     <g id="line2d_40">
      <path d="M 55.67625 162.901875 
L 328.94 162.901875 
" clip-path="url(#p22476a1cf7)" style="fill: none; stroke: #ffffff; stroke-linecap: round"/>
     </g>
     <g id="text_41">
      <!-- 220 -->
      <g style="fill: #262626" transform="translate(27.825156 166.838672)scale(0.11 -0.11)">
       <use xlink:href="#ArialMT-32"/>
       <use xlink:href="#ArialMT-32" x="55.615234"/>
       <use xlink:href="#ArialMT-30" x="111.230469"/>
      </g>
     </g>
    </g>
    <g id="ytick_16">
     <g id="line2d_41">
      <path d="M 55.67625 107.778889 
L 328.94 107.778889 
" clip-path="url(#p22476a1cf7)" style="fill: none; stroke: #ffffff; stroke-linecap: round"/>
     </g>
     <g id="text_42">
      <!-- 330 -->
      <g style="fill: #262626" transform="translate(27.825156 111.715686)scale(0.11 -0.11)">
       <use xlink:href="#ArialMT-33"/>
       <use xlink:href="#ArialMT-33" x="55.615234"/>
       <use xlink:href="#ArialMT-30" x="111.230469"/>
      </g>
     </g>
    </g>
    <g id="ytick_17">
     <g id="line2d_42">
      <path d="M 55.67625 107.778889 
L 328.94 107.778889 
" clip-path="url(#p22476a1cf7)" style="fill: none; stroke: #ffffff; stroke-linecap: round"/>
     </g>
     <g id="text_43">
      <!-- 330 -->
      <g style="fill: #262626" transform="translate(27.825156 111.715686)scale(0.11 -0.11)">
       <use xlink:href="#ArialMT-33"/>
       <use xlink:href="#ArialMT-33" x="55.615234"/>
       <use xlink:href="#ArialMT-30" x="111.230469"/>
      </g>
     </g>
    </g>
    <g id="ytick_18">
     <g id="line2d_43">
      <path d="M 55.67625 107.778889 
L 328.94 107.778889 
" clip-path="url(#p22476a1cf7)" style="fill: none; stroke: #ffffff; stroke-linecap: round"/>
     </g>
     <g id="text_44">
      <!-- 330 -->
      <g style="fill: #262626" transform="translate(27.825156 111.715686)scale(0.11 -0.11)">
       <use xlink:href="#ArialMT-33"/>
       <use xlink:href="#ArialMT-33" x="55.615234"/>
       <use xlink:href="#ArialMT-30" x="111.230469"/>
      </g>
     </g>
    </g>
    <g id="ytick_19">
     <g id="line2d_44">
      <path d="M 55.67625 107.778889 
L 328.94 107.778889 
" clip-path="url(#p22476a1cf7)" style="fill: none; stroke: #ffffff; stroke-linecap: round"/>
     </g>
     <g id="text_45">
      <!-- 330 -->
      <g style="fill: #262626" transform="translate(27.825156 111.715686)scale(0.11 -0.11)">
       <use xlink:href="#ArialMT-33"/>
       <use xlink:href="#ArialMT-33" x="55.615234"/>
       <use xlink:href="#ArialMT-30" x="111.230469"/>
      </g>
     </g>
    </g>
    <g id="ytick_20">
     <g id="line2d_45">
      <path d="M 55.67625 107.778889 
L 328.94 107.778889 
" clip-path="url(#p22476a1cf7)" style="fill: none; stroke: #ffffff; stroke-linecap: round"/>
     </g>
     <g id="text_46">
      <!-- 330 -->
      <g style="fill: #262626" transform="translate(27.825156 111.715686)scale(0.11 -0.11)">
       <use xlink:href="#ArialMT-33"/>
       <use xlink:href="#ArialMT-33" x="55.615234"/>
       <use xlink:href="#ArialMT-30" x="111.230469"/>
      </g>
     </g>
    </g>
    <g id="ytick_21">
     <g id="line2d_46">
      <path d="M 55.67625 52.655903 
L 328.94 52.655903 
" clip-path="url(#p22476a1cf7)" style="fill: none; stroke: #ffffff; stroke-linecap: round"/>
     </g>
     <g id="text_47">
      <!-- 440 -->
      <g style="fill: #262626" transform="translate(27.825156 56.5927)scale(0.11 -0.11)">
       <use xlink:href="#ArialMT-34"/>
       <use xlink:href="#ArialMT-34" x="55.615234"/>
       <use xlink:href="#ArialMT-30" x="111.230469"/>
      </g>
     </g>
    </g>
    <g id="ytick_22">
     <g id="line2d_47">
      <path d="M 55.67625 52.655903 
L 328.94 52.655903 
" clip-path="url(#p22476a1cf7)" style="fill: none; stroke: #ffffff; stroke-linecap: round"/>
     </g>
     <g id="text_48">
      <!-- 440 -->
      <g style="fill: #262626" transform="translate(27.825156 56.5927)scale(0.11 -0.11)">
       <use xlink:href="#ArialMT-34"/>
       <use xlink:href="#ArialMT-34" x="55.615234"/>
       <use xlink:href="#ArialMT-30" x="111.230469"/>
      </g>
     </g>
    </g>
    <g id="ytick_23">
     <g id="line2d_48">
      <path d="M 55.67625 52.655903 
L 328.94 52.655903 
" clip-path="url(#p22476a1cf7)" style="fill: none; stroke: #ffffff; stroke-linecap: round"/>
     </g>
     <g id="text_49">
      <!-- 440 -->
      <g style="fill: #262626" transform="translate(27.825156 56.5927)scale(0.11 -0.11)">
       <use xlink:href="#ArialMT-34"/>
       <use xlink:href="#ArialMT-34" x="55.615234"/>
       <use xlink:href="#ArialMT-30" x="111.230469"/>
      </g>
     </g>
    </g>
    <g id="ytick_24">
     <g id="line2d_49">
      <path d="M 55.67625 52.655903 
L 328.94 52.655903 
" clip-path="url(#p22476a1cf7)" style="fill: none; stroke: #ffffff; stroke-linecap: round"/>
     </g>
     <g id="text_50">
      <!-- 440 -->
      <g style="fill: #262626" transform="translate(27.825156 56.5927)scale(0.11 -0.11)">
       <use xlink:href="#ArialMT-34"/>
       <use xlink:href="#ArialMT-34" x="55.615234"/>
       <use xlink:href="#ArialMT-30" x="111.230469"/>
      </g>
     </g>
    </g>
    <g id="ytick_25">
     <g id="line2d_50">
      <path d="M 55.67625 52.655903 
L 328.94 52.655903 
" clip-path="url(#p22476a1cf7)" style="fill: none; stroke: #ffffff; stroke-linecap: round"/>
     </g>
     <g id="text_51">
      <!-- 440 -->
      <g style="fill: #262626" transform="translate(27.825156 56.5927)scale(0.11 -0.11)">
       <use xlink:href="#ArialMT-34"/>
       <use xlink:href="#ArialMT-34" x="55.615234"/>
       <use xlink:href="#ArialMT-30" x="111.230469"/>
      </g>
     </g>
    </g>
    <g id="text_52">
     <!-- Y-Coordinate [m] -->
     <g style="fill: #262626" transform="translate(21.440156 207.703125)rotate(-90)scale(0.12 -0.12)">
      <defs>
       <path id="ArialMT-59" d="M 1784 0 
L 1784 1941 
L 19 4581 
L 756 4581 
L 1659 3200 
Q 1909 2813 2125 2425 
Q 2331 2784 2625 3234 
L 3513 4581 
L 4219 4581 
L 2391 1941 
L 2391 0 
L 1784 0 
z
" transform="scale(0.015625)"/>
      </defs>
      <use xlink:href="#ArialMT-59"/>
      <use xlink:href="#ArialMT-2d" x="57.574219"/>
      <use xlink:href="#ArialMT-43" x="90.875"/>
      <use xlink:href="#ArialMT-6f" x="163.091797"/>
      <use xlink:href="#ArialMT-6f" x="218.707031"/>
      <use xlink:href="#ArialMT-72" x="274.322266"/>
      <use xlink:href="#ArialMT-64" x="307.623047"/>
      <use xlink:href="#ArialMT-69" x="363.238281"/>
      <use xlink:href="#ArialMT-6e" x="385.455078"/>
      <use xlink:href="#ArialMT-61" x="441.070312"/>
      <use xlink:href="#ArialMT-74" x="496.685547"/>
      <use xlink:href="#ArialMT-65" x="524.46875"/>
      <use xlink:href="#ArialMT-20" x="580.083984"/>
      <use xlink:href="#ArialMT-5b" x="607.867188"/>
      <use xlink:href="#ArialMT-6d" x="635.650391"/>
      <use xlink:href="#ArialMT-5d" x="718.951172"/>
     </g>
    </g>
   </g>
   <g id="PathCollection_1">
    <path d="M 80.978449 284.328187 
C 83.94351 284.328187 86.787529 283.150156 88.884143 281.053541 
C 90.980758 278.956927 92.158789 276.112908 92.158789 273.147847 
C 92.158789 270.182786 90.980758 267.338768 88.884143 265.242153 
C 86.787529 263.145538 83.94351 261.967507 80.978449 261.967507 
C 78.013388 261.967507 75.16937 263.145538 73.072755 265.242153 
C 70.97614 267.338768 69.798109 270.182786 69.798109 273.147847 
C 69.798109 276.112908 70.97614 278.956927 73.072755 281.053541 
C 75.16937 283.150156 78.013388 284.328187 80.978449 284.328187 
z
" clip-path="url(#p22476a1cf7)" style="fill: #425a7a"/>
    <path d="M 136.643287 284.328187 
C 139.608348 284.328187 142.452367 283.150156 144.548981 281.053541 
C 146.645596 278.956927 147.823627 276.112908 147.823627 273.147847 
C 147.823627 270.182786 146.645596 267.338768 144.548981 265.242153 
C 142.452367 263.145538 139.608348 261.967507 136.643287 261.967507 
C 133.678226 261.967507 130.834207 263.145538 128.737593 265.242153 
C 126.640978 267.338768 125.462947 270.182786 125.462947 273.147847 
C 125.462947 276.112908 126.640978 278.956927 128.737593 281.053541 
C 130.834207 283.150156 133.678226 284.328187 136.643287 284.328187 
z
" clip-path="url(#p22476a1cf7)" style="fill: #2b333e"/>
    <path d="M 192.308125 284.328187 
C 195.273186 284.328187 198.117205 283.150156 200.213819 281.053541 
C 202.310434 278.956927 203.488465 276.112908 203.488465 273.147847 
C 203.488465 270.182786 202.310434 267.338768 200.213819 265.242153 
C 198.117205 263.145538 195.273186 261.967507 192.308125 261.967507 
C 189.343064 261.967507 186.499045 263.145538 184.402431 265.242153 
C 182.305816 267.338768 181.127785 270.182786 181.127785 273.147847 
C 181.127785 276.112908 182.305816 278.956927 184.402431 281.053541 
C 186.499045 283.150156 189.343064 284.328187 192.308125 284.328187 
z
" clip-path="url(#p22476a1cf7)" style="fill: #313c4c"/>
    <path d="M 247.972963 284.328187 
C 250.938024 284.328187 253.782043 283.150156 255.878657 281.053541 
C 257.975272 278.956927 259.153303 276.112908 259.153303 273.147847 
C 259.153303 270.182786 257.975272 267.338768 255.878657 265.242153 
C 253.782043 263.145538 250.938024 261.967507 247.972963 261.967507 
C 245.007902 261.967507 242.163883 263.145538 240.067269 265.242153 
C 237.970654 267.338768 236.792623 270.182786 236.792623 273.147847 
C 236.792623 276.112908 237.970654 278.956927 240.067269 281.053541 
C 242.163883 283.150156 245.007902 284.328187 247.972963 284.328187 
z
" clip-path="url(#p22476a1cf7)" style="fill: #3a4c65"/>
    <path d="M 303.637801 280.271751 
C 305.527082 280.271751 307.339238 279.521131 308.675161 278.185208 
C 310.011085 276.849284 310.761704 275.037128 310.761704 273.147847 
C 310.761704 271.258566 310.011085 269.44641 308.675161 268.110487 
C 307.339238 266.774563 305.527082 266.023944 303.637801 266.023944 
C 301.74852 266.023944 299.936364 266.774563 298.600441 268.110487 
C 297.264517 269.44641 296.513898 271.258566 296.513898 273.147847 
C 296.513898 275.037128 297.264517 276.849284 298.600441 278.185208 
C 299.936364 279.521131 301.74852 280.271751 303.637801 280.271751 
z
" clip-path="url(#p22476a1cf7)" style="fill: #4a6891"/>
    <path d="M 80.978449 229.205201 
C 83.94351 229.205201 86.787529 228.02717 88.884143 225.930555 
C 90.980758 223.833941 92.158789 220.989922 92.158789 218.024861 
C 92.158789 215.0598 90.980758 212.215782 88.884143 210.119167 
C 86.787529 208.022552 83.94351 206.844521 80.978449 206.844521 
C 78.013388 206.844521 75.16937 208.022552 73.072755 210.119167 
C 70.97614 212.215782 69.798109 215.0598 69.798109 218.024861 
C 69.798109 220.989922 70.97614 223.833941 73.072755 225.930555 
C 75.16937 228.02717 78.013388 229.205201 80.978449 229.205201 
z
" clip-path="url(#p22476a1cf7)" style="fill: #36455a"/>
    <path d="M 136.643287 227.124998 
C 139.056672 227.124998 141.371535 226.166151 143.078056 224.45963 
C 144.784577 222.753109 145.743424 220.438246 145.743424 218.024861 
C 145.743424 215.611476 144.784577 213.296613 143.078056 211.590092 
C 141.371535 209.883572 139.056672 208.924724 136.643287 208.924724 
C 134.229902 208.924724 131.915039 209.883572 130.208518 211.590092 
C 128.501998 213.296613 127.54315 215.611476 127.54315 218.024861 
C 127.54315 220.438246 128.501998 222.753109 130.208518 224.45963 
C 131.915039 226.166151 134.229902 227.124998 136.643287 227.124998 
z
" clip-path="url(#p22476a1cf7)" style="fill: #2f3947"/>
    <path d="M 192.308125 226.550558 
C 194.569166 226.550558 196.737905 225.652236 198.336703 224.053439 
C 199.9355 222.454641 200.833821 220.285902 200.833821 218.024861 
C 200.833821 215.76382 199.9355 213.595081 198.336703 211.996283 
C 196.737905 210.397486 194.569166 209.499165 192.308125 209.499165 
C 190.047084 209.499165 187.878345 210.397486 186.279547 211.996283 
C 184.68075 213.595081 183.782429 215.76382 183.782429 218.024861 
C 183.782429 220.285902 184.68075 222.454641 186.279547 224.053439 
C 187.878345 225.652236 190.047084 226.550558 192.308125 226.550558 
z
" clip-path="url(#p22476a1cf7)" style="fill: #2e3744"/>
    <path d="M 247.972963 225.381831 
C 249.924054 225.381831 251.795496 224.606654 253.175126 223.227024 
C 254.554756 221.847394 255.329932 219.975952 255.329932 218.024861 
C 255.329932 216.07377 254.554756 214.202328 253.175126 212.822698 
C 251.795496 211.443068 249.924054 210.667892 247.972963 210.667892 
C 246.021872 210.667892 244.15043 211.443068 242.7708 212.822698 
C 241.39117 214.202328 240.615993 216.07377 240.615993 218.024861 
C 240.615993 219.975952 241.39117 221.847394 242.7708 223.227024 
C 244.15043 224.606654 246.021872 225.381831 247.972963 225.381831 
z
" clip-path="url(#p22476a1cf7)" style="fill: #384961"/>
    <path d="M 303.637801 224.679277 
C 305.402573 224.679277 307.095301 223.978126 308.343183 222.730244 
C 309.591066 221.482362 310.292217 219.789633 310.292217 218.024861 
C 310.292217 216.260089 309.591066 214.567361 308.343183 213.319479 
C 307.095301 212.071597 305.402573 211.370445 303.637801 211.370445 
C 301.873029 211.370445 300.1803 212.071597 298.932418 213.319479 
C 297.684536 214.567361 296.983385 216.260089 296.983385 218.024861 
C 296.983385 219.789633 297.684536 221.482362 298.932418 222.730244 
C 300.1803 223.978126 301.873029 224.679277 303.637801 224.679277 
z
" clip-path="url(#p22476a1cf7)" style="fill: #3e5371"/>
    <path d="M 80.978449 174.006491 
C 83.923428 174.006491 86.748184 172.836439 88.830598 170.754024 
C 90.913013 168.67161 92.083065 165.846854 92.083065 162.901875 
C 92.083065 159.956896 90.913013 157.13214 88.830598 155.049726 
C 86.748184 152.967311 83.923428 151.797259 80.978449 151.797259 
C 78.03347 151.797259 75.208714 152.967311 73.1263 155.049726 
C 71.043885 157.13214 69.873833 159.956896 69.873833 162.901875 
C 69.873833 165.846854 71.043885 168.67161 73.1263 170.754024 
C 75.208714 172.836439 78.03347 174.006491 80.978449 174.006491 
z
" clip-path="url(#p22476a1cf7)" style="fill: #36455b"/>
    <path d="M 136.643287 172.439629 
C 139.172729 172.439629 141.598912 171.434671 143.387498 169.646085 
C 145.176083 167.8575 146.181041 165.431317 146.181041 162.901875 
C 146.181041 160.372433 145.176083 157.94625 143.387498 156.157665 
C 141.598912 154.369079 139.172729 153.364121 136.643287 153.364121 
C 134.113845 153.364121 131.687662 154.369079 129.899077 156.157665 
C 128.110491 157.94625 127.105533 160.372433 127.105533 162.901875 
C 127.105533 165.431317 128.110491 167.8575 129.899077 169.646085 
C 131.687662 171.434671 134.113845 172.439629 136.643287 172.439629 
z
" clip-path="url(#p22476a1cf7)" style="fill: #2c333e"/>
    <path d="M 192.308125 172.513066 
C 194.857043 172.513066 197.301907 171.500371 199.104264 169.698014 
C 200.906621 167.895657 201.919316 165.450793 201.919316 162.901875 
C 201.919316 160.352957 200.906621 157.908093 199.104264 156.105736 
C 197.301907 154.303379 194.857043 153.290684 192.308125 153.290684 
C 189.759207 153.290684 187.314343 154.303379 185.511986 156.105736 
C 183.709629 157.908093 182.696934 160.352957 182.696934 162.901875 
C 182.696934 165.450793 183.709629 167.895657 185.511986 169.698014 
C 187.314343 171.500371 189.759207 172.513066 192.308125 172.513066 
z
" clip-path="url(#p22476a1cf7)" style="fill: #2b323c"/>
    <path d="M 247.972963 171.971054 
C 250.378137 171.971054 252.685126 171.015468 254.385841 169.314753 
C 256.086556 167.614038 257.042142 165.307049 257.042142 162.901875 
C 257.042142 160.496701 256.086556 158.189712 254.385841 156.488997 
C 252.685126 154.788282 250.378137 153.832696 247.972963 153.832696 
C 245.567789 153.832696 243.2608 154.788282 241.560085 156.488997 
C 239.85937 158.189712 238.903784 160.496701 238.903784 162.901875 
C 238.903784 165.307049 239.85937 167.614038 241.560085 169.314753 
C 243.2608 171.015468 245.567789 171.971054 247.972963 171.971054 
z
" clip-path="url(#p22476a1cf7)" style="fill: #364459"/>
    <path d="M 303.637801 171.687517 
C 305.96778 171.687517 308.202644 170.761806 309.850188 169.114262 
C 311.497732 167.466718 312.423443 165.231854 312.423443 162.901875 
C 312.423443 160.571896 311.497732 158.337032 309.850188 156.689488 
C 308.202644 155.041944 305.96778 154.116233 303.637801 154.116233 
C 301.307822 154.116233 299.072958 155.041944 297.425414 156.689488 
C 295.77787 158.337032 294.852159 160.571896 294.852159 162.901875 
C 294.852159 165.231854 295.77787 167.466718 297.425414 169.114262 
C 299.072958 170.761806 301.307822 171.687517 303.637801 171.687517 
z
" clip-path="url(#p22476a1cf7)" style="fill: #425a7a"/>
    <path d="M 80.978449 118.136555 
C 83.725334 118.136555 86.360084 117.045206 88.302425 115.102865 
C 90.244766 113.160524 91.336115 110.525774 91.336115 107.778889 
C 91.336115 105.032004 90.244766 102.397254 88.302425 100.454913 
C 86.360084 98.512572 83.725334 97.421223 80.978449 97.421223 
C 78.231564 97.421223 75.596814 98.512572 73.654473 100.454913 
C 71.712132 102.397254 70.620783 105.032004 70.620783 107.778889 
C 70.620783 110.525774 71.712132 113.160524 73.654473 115.102865 
C 75.596814 117.045206 78.231564 118.136555 80.978449 118.136555 
z
" clip-path="url(#p22476a1cf7)" style="fill: #425a7a"/>
    <path d="M 136.643287 114.196638 
C 138.345294 114.196638 139.97782 113.520423 141.181321 112.316923 
C 142.384821 111.113422 143.061036 109.480896 143.061036 107.778889 
C 143.061036 106.076882 142.384821 104.444356 141.181321 103.240855 
C 139.97782 102.037355 138.345294 101.36114 136.643287 101.36114 
C 134.94128 101.36114 133.308754 102.037355 132.105253 103.240855 
C 130.901753 104.444356 130.225538 106.076882 130.225538 107.778889 
C 130.225538 109.480896 130.901753 111.113422 132.105253 112.316923 
C 133.308754 113.520423 134.94128 114.196638 136.643287 114.196638 
z
" clip-path="url(#p22476a1cf7)" style="fill: #37485e"/>
    <path d="M 192.308125 115.526872 
C 194.362914 115.526872 196.333821 114.710496 197.786777 113.257541 
C 199.239732 111.804585 200.056109 109.833678 200.056109 107.778889 
C 200.056109 105.7241 199.239732 103.753193 197.786777 102.300237 
C 196.333821 100.847282 194.362914 100.030905 192.308125 100.030905 
C 190.253336 100.030905 188.282429 100.847282 186.829473 102.300237 
C 185.376518 103.753193 184.560141 105.7241 184.560141 107.778889 
C 184.560141 109.833678 185.376518 111.804585 186.829473 113.257541 
C 188.282429 114.710496 190.253336 115.526872 192.308125 115.526872 
z
" clip-path="url(#p22476a1cf7)" style="fill: #364459"/>
    <path d="M 247.972963 114.496403 
C 249.754469 114.496403 251.463248 113.788604 252.722963 112.528889 
C 253.982678 111.269174 254.690477 109.560395 254.690477 107.778889 
C 254.690477 105.997383 253.982678 104.288604 252.722963 103.028889 
C 251.463248 101.769174 249.754469 101.061374 247.972963 101.061374 
C 246.191457 101.061374 244.482678 101.769174 243.222963 103.028889 
C 241.963248 104.288604 241.255449 105.997383 241.255449 107.778889 
C 241.255449 109.560395 241.963248 111.269174 243.222963 112.528889 
C 244.482678 113.788604 246.191457 114.496403 247.972963 114.496403 
z
" clip-path="url(#p22476a1cf7)" style="fill: #3d526e"/>
    <path d="M 303.637801 115.812023 
C 305.768213 115.812023 307.811656 114.965602 309.318085 113.459173 
C 310.824514 111.952744 311.670935 109.909301 311.670935 107.778889 
C 311.670935 105.648477 310.824514 103.605034 309.318085 102.098605 
C 307.811656 100.592176 305.768213 99.745754 303.637801 99.745754 
C 301.507389 99.745754 299.463946 100.592176 297.957517 102.098605 
C 296.451088 103.605034 295.604666 105.648477 295.604666 107.778889 
C 295.604666 109.909301 296.451088 111.952744 297.957517 113.459173 
C 299.463946 114.965602 301.507389 115.812023 303.637801 115.812023 
z
" clip-path="url(#p22476a1cf7)" style="fill: #445d80"/>
    <path d="M 80.978449 57.352976 
C 82.224128 57.352976 83.418954 56.858063 84.299782 55.977235 
C 85.180609 55.096408 85.675523 53.901581 85.675523 52.655903 
C 85.675523 51.410224 85.180609 50.215398 84.299782 49.33457 
C 83.418954 48.453743 82.224128 47.958829 80.978449 47.958829 
C 79.732771 47.958829 78.537944 48.453743 77.657117 49.33457 
C 76.776289 50.215398 76.281376 51.410224 76.281376 52.655903 
C 76.281376 53.901581 76.776289 55.096408 77.657117 55.977235 
C 78.537944 56.858063 79.732771 57.352976 80.978449 57.352976 
z
" clip-path="url(#p22476a1cf7)" style="fill: #4c6c97"/>
    <path d="M 136.643287 60.422015 
C 138.702884 60.422015 140.678403 59.603728 142.134758 58.147373 
C 143.591113 56.691018 144.409399 54.7155 144.409399 52.655903 
C 144.409399 50.596306 143.591113 48.620787 142.134758 47.164432 
C 140.678403 45.708077 138.702884 44.88979 136.643287 44.88979 
C 134.58369 44.88979 132.608171 45.708077 131.151816 47.164432 
C 129.695461 48.620787 128.877175 50.596306 128.877175 52.655903 
C 128.877175 54.7155 129.695461 56.691018 131.151816 58.147373 
C 132.608171 59.603728 134.58369 60.422015 136.643287 60.422015 
z
" clip-path="url(#p22476a1cf7)" style="fill: #3e5370"/>
    <path d="M 192.308125 61.457536 
C 194.642345 61.457536 196.881277 60.530141 198.53182 58.879597 
C 200.182363 57.229054 201.109758 54.990123 201.109758 52.655903 
C 201.109758 50.321682 200.182363 48.082751 198.53182 46.432208 
C 196.881277 44.781665 194.642345 43.854269 192.308125 43.854269 
C 189.973905 43.854269 187.734973 44.781665 186.08443 46.432208 
C 184.433887 48.082751 183.506492 50.321682 183.506492 52.655903 
C 183.506492 54.990123 184.433887 57.229054 186.08443 58.879597 
C 187.734973 60.530141 189.973905 61.457536 192.308125 61.457536 
z
" clip-path="url(#p22476a1cf7)" style="fill: #3f5472"/>
    <path d="M 247.972963 62.237787 
C 250.514108 62.237787 252.951517 61.228179 254.748378 59.431318 
C 256.545239 57.634457 257.554847 55.197048 257.554847 52.655903 
C 257.554847 50.114757 256.545239 47.677349 254.748378 45.880488 
C 252.951517 44.083627 250.514108 43.074019 247.972963 43.074019 
C 245.431818 43.074019 242.994409 44.083627 241.197548 45.880488 
C 239.400687 47.677349 238.391079 50.114757 238.391079 52.655903 
C 238.391079 55.197048 239.400687 57.634457 241.197548 59.431318 
C 242.994409 61.228179 245.431818 62.237787 247.972963 62.237787 
z
" clip-path="url(#p22476a1cf7)" style="fill: #435b7c"/>
    <path d="M 303.637801 56.191437 
C 304.575435 56.191437 305.474793 55.818911 306.137801 55.155903 
C 306.800809 54.492895 307.173335 53.593537 307.173335 52.655903 
C 307.173335 51.718268 306.800809 50.818911 306.137801 50.155903 
C 305.474793 49.492895 304.575435 49.120369 303.637801 49.120369 
C 302.700166 49.120369 301.800809 49.492895 301.137801 50.155903 
C 300.474793 50.818911 300.102267 51.718268 300.102267 52.655903 
C 300.102267 53.593537 300.474793 54.492895 301.137801 55.155903 
C 301.800809 55.818911 302.700166 56.191437 303.637801 56.191437 
z
" clip-path="url(#p22476a1cf7)" style="fill: #4d6d98"/>
   </g>
   <g id="PathCollection_2"/>
   <g id="PathCollection_3"/>
   <g id="PathCollection_4"/>
   <g id="PathCollection_5"/>
   <g id="PathCollection_6"/>
   <g id="PathCollection_7"/>
   <g id="PathCollection_8"/>
   <g id="PathCollection_9"/>
   <g id="PathCollection_10"/>
   <g id="PathCollection_11"/>
   <g id="PathCollection_12">
    <path d="M 164.475706 165.023195 
C 165.038287 165.023195 165.577901 164.79968 165.975706 164.401875 
C 166.373511 164.00407 166.597026 163.464456 166.597026 162.901875 
C 166.597026 162.339294 166.373511 161.79968 165.975706 161.401875 
C 165.577901 161.00407 165.038287 160.780555 164.475706 160.780555 
C 163.913125 160.780555 163.373511 161.00407 162.975706 161.401875 
C 162.577901 161.79968 162.354386 162.339294 162.354386 162.901875 
C 162.354386 163.464456 162.577901 164.00407 162.975706 164.401875 
C 163.373511 164.79968 163.913125 165.023195 164.475706 165.023195 
z
" clip-path="url(#p22476a1cf7)" style="fill: #ffa500; stroke: #ffa500"/>
    <path d="M 220.140544 165.023195 
C 220.703125 165.023195 221.242739 164.79968 221.640544 164.401875 
C 222.038349 164.00407 222.261864 163.464456 222.261864 162.901875 
C 222.261864 162.339294 222.038349 161.79968 221.640544 161.401875 
C 221.242739 161.00407 220.703125 160.780555 220.140544 160.780555 
C 219.577963 160.780555 219.038349 161.00407 218.640544 161.401875 
C 218.242739 161.79968 218.019224 162.339294 218.019224 162.901875 
C 218.019224 163.464456 218.242739 164.00407 218.640544 164.401875 
C 219.038349 164.79968 219.577963 165.023195 220.140544 165.023195 
z
" clip-path="url(#p22476a1cf7)" style="fill: #ffa500; stroke: #ffa500"/>
   </g>
   <g id="PathCollection_13">
    <defs>
     <path id="C0_0_ccebce7df2" d="M 0 74.161985 
C 19.667988 74.161985 38.533075 66.34781 52.440442 52.440442 
C 66.34781 38.533075 74.161985 19.667988 74.161985 -0 
C 74.161985 -19.667988 66.34781 -38.533075 52.440442 -52.440442 
C 38.533075 -66.34781 19.667988 -74.161985 0 -74.161985 
C -19.667988 -74.161985 -38.533075 -66.34781 -52.440442 -52.440442 
C -66.34781 -38.533075 -74.161985 -19.667988 -74.161985 0 
C -74.161985 19.667988 -66.34781 38.533075 -52.440442 52.440442 
C -38.533075 66.34781 -19.667988 74.161985 0 74.161985 
z
"/>
    </defs>
    <g clip-path="url(#p22476a1cf7)">
     <use xlink:href="#C0_0_ccebce7df2" x="164.475706" y="162.901875" style="fill: none; stroke: #ff0000"/>
    </g>
    <g clip-path="url(#p22476a1cf7)">
     <use xlink:href="#C0_0_ccebce7df2" x="220.140544" y="162.901875" style="fill: none; stroke: #ff0000"/>
    </g>
   </g>
   <g id="patch_3">
    <path d="M 55.67625 298.20375 
L 55.67625 27.6 
" style="fill: none; stroke: #ffffff; stroke-width: 1.25; stroke-linejoin: miter; stroke-linecap: square"/>
   </g>
   <g id="patch_4">
    <path d="M 328.94 298.20375 
L 328.94 27.6 
" style="fill: none; stroke: #ffffff; stroke-width: 1.25; stroke-linejoin: miter; stroke-linecap: square"/>
   </g>
   <g id="patch_5">
    <path d="M 55.67625 298.20375 
L 328.94 298.20375 
" style="fill: none; stroke: #ffffff; stroke-width: 1.25; stroke-linejoin: miter; stroke-linecap: square"/>
   </g>
   <g id="patch_6">
    <path d="M 55.67625 27.6 
L 328.94 27.6 
" style="fill: none; stroke: #ffffff; stroke-width: 1.25; stroke-linejoin: miter; stroke-linecap: square"/>
   </g>
   <g id="text_53">
    <!-- MPL 2D1C with Interference -->
    <g style="fill: #262626" transform="translate(117.17125 21.6)scale(0.12 -0.12)">
     <defs>
      <path id="ArialMT-4d" d="M 475 0 
L 475 4581 
L 1388 4581 
L 2472 1338 
Q 2622 884 2691 659 
Q 2769 909 2934 1394 
L 4031 4581 
L 4847 4581 
L 4847 0 
L 4263 0 
L 4263 3834 
L 2931 0 
L 2384 0 
L 1059 3900 
L 1059 0 
L 475 0 
z
" transform="scale(0.015625)"/>
      <path id="ArialMT-50" d="M 494 0 
L 494 4581 
L 2222 4581 
Q 2678 4581 2919 4538 
Q 3256 4481 3484 4323 
Q 3713 4166 3852 3881 
Q 3991 3597 3991 3256 
Q 3991 2672 3619 2267 
Q 3247 1863 2275 1863 
L 1100 1863 
L 1100 0 
L 494 0 
z
M 1100 2403 
L 2284 2403 
Q 2872 2403 3119 2622 
Q 3366 2841 3366 3238 
Q 3366 3525 3220 3729 
Q 3075 3934 2838 4000 
Q 2684 4041 2272 4041 
L 1100 4041 
L 1100 2403 
z
" transform="scale(0.015625)"/>
      <path id="ArialMT-4c" d="M 469 0 
L 469 4581 
L 1075 4581 
L 1075 541 
L 3331 541 
L 3331 0 
L 469 0 
z
" transform="scale(0.015625)"/>
      <path id="ArialMT-44" d="M 494 0 
L 494 4581 
L 2072 4581 
Q 2606 4581 2888 4516 
Q 3281 4425 3559 4188 
Q 3922 3881 4101 3404 
Q 4281 2928 4281 2316 
Q 4281 1794 4159 1391 
Q 4038 988 3847 723 
Q 3656 459 3429 307 
Q 3203 156 2883 78 
Q 2563 0 2147 0 
L 494 0 
z
M 1100 541 
L 2078 541 
Q 2531 541 2789 625 
Q 3047 709 3200 863 
Q 3416 1078 3536 1442 
Q 3656 1806 3656 2325 
Q 3656 3044 3420 3430 
Q 3184 3816 2847 3947 
Q 2603 4041 2063 4041 
L 1100 4041 
L 1100 541 
z
" transform="scale(0.015625)"/>
      <path id="ArialMT-77" d="M 1034 0 
L 19 3319 
L 600 3319 
L 1128 1403 
L 1325 691 
Q 1338 744 1497 1375 
L 2025 3319 
L 2603 3319 
L 3100 1394 
L 3266 759 
L 3456 1400 
L 4025 3319 
L 4572 3319 
L 3534 0 
L 2950 0 
L 2422 1988 
L 2294 2553 
L 1622 0 
L 1034 0 
z
" transform="scale(0.015625)"/>
      <path id="ArialMT-68" d="M 422 0 
L 422 4581 
L 984 4581 
L 984 2938 
Q 1378 3394 1978 3394 
Q 2347 3394 2619 3248 
Q 2891 3103 3008 2847 
Q 3125 2591 3125 2103 
L 3125 0 
L 2563 0 
L 2563 2103 
Q 2563 2525 2380 2717 
Q 2197 2909 1863 2909 
Q 1613 2909 1392 2779 
Q 1172 2650 1078 2428 
Q 984 2206 984 1816 
L 984 0 
L 422 0 
z
" transform="scale(0.015625)"/>
      <path id="ArialMT-49" d="M 597 0 
L 597 4581 
L 1203 4581 
L 1203 0 
L 597 0 
z
" transform="scale(0.015625)"/>
      <path id="ArialMT-66" d="M 556 0 
L 556 2881 
L 59 2881 
L 59 3319 
L 556 3319 
L 556 3672 
Q 556 4006 616 4169 
Q 697 4388 901 4523 
Q 1106 4659 1475 4659 
Q 1713 4659 2000 4603 
L 1916 4113 
Q 1741 4144 1584 4144 
Q 1328 4144 1222 4034 
Q 1116 3925 1116 3625 
L 1116 3319 
L 1763 3319 
L 1763 2881 
L 1116 2881 
L 1116 0 
L 556 0 
z
" transform="scale(0.015625)"/>
      <path id="ArialMT-63" d="M 2588 1216 
L 3141 1144 
Q 3050 572 2676 248 
Q 2303 -75 1759 -75 
Q 1078 -75 664 370 
Q 250 816 250 1647 
Q 250 2184 428 2587 
Q 606 2991 970 3192 
Q 1334 3394 1763 3394 
Q 2303 3394 2647 3120 
Q 2991 2847 3088 2344 
L 2541 2259 
Q 2463 2594 2264 2762 
Q 2066 2931 1784 2931 
Q 1359 2931 1093 2626 
Q 828 2322 828 1663 
Q 828 994 1084 691 
Q 1341 388 1753 388 
Q 2084 388 2306 591 
Q 2528 794 2588 1216 
z
" transform="scale(0.015625)"/>
     </defs>
     <use xlink:href="#ArialMT-4d"/>
     <use xlink:href="#ArialMT-50" x="83.300781"/>
     <use xlink:href="#ArialMT-4c" x="150"/>
     <use xlink:href="#ArialMT-20" x="201.865234"/>
     <use xlink:href="#ArialMT-32" x="229.648438"/>
     <use xlink:href="#ArialMT-44" x="285.263672"/>
     <use xlink:href="#ArialMT-31" x="357.480469"/>
     <use xlink:href="#ArialMT-43" x="413.095703"/>
     <use xlink:href="#ArialMT-20" x="485.3125"/>
     <use xlink:href="#ArialMT-77" x="513.095703"/>
     <use xlink:href="#ArialMT-69" x="585.3125"/>
     <use xlink:href="#ArialMT-74" x="607.529297"/>
     <use xlink:href="#ArialMT-68" x="635.3125"/>
     <use xlink:href="#ArialMT-20" x="690.927734"/>
     <use xlink:href="#ArialMT-49" x="718.710938"/>
     <use xlink:href="#ArialMT-6e" x="746.494141"/>
     <use xlink:href="#ArialMT-74" x="802.109375"/>
     <use xlink:href="#ArialMT-65" x="829.892578"/>
     <use xlink:href="#ArialMT-72" x="885.507812"/>
     <use xlink:href="#ArialMT-66" x="918.808594"/>
     <use xlink:href="#ArialMT-65" x="946.591797"/>
     <use xlink:href="#ArialMT-72" x="1002.207031"/>
     <use xlink:href="#ArialMT-65" x="1035.507812"/>
     <use xlink:href="#ArialMT-6e" x="1091.123047"/>
     <use xlink:href="#ArialMT-63" x="1146.738281"/>
     <use xlink:href="#ArialMT-65" x="1196.738281"/>
    </g>
   </g>
   <g id="legend_1">
    <g id="patch_7">
     <path d="M 336.64 257.977969 
L 445.823594 257.977969 
Q 448.023594 257.977969 448.023594 255.777969 
L 448.023594 70.025781 
Q 448.023594 67.825781 445.823594 67.825781 
L 336.64 67.825781 
Q 334.44 67.825781 334.44 70.025781 
L 334.44 255.777969 
Q 334.44 257.977969 336.64 257.977969 
z
" style="fill: #eaeaf2; opacity: 0.8; stroke: #cccccc; stroke-linejoin: miter"/>
    </g>
    <g id="text_54">
     <!-- PDR [%] -->
     <g style="fill: #262626" transform="translate(369.64 80.233437)scale(0.11 -0.11)">
      <defs>
       <path id="ArialMT-52" d="M 503 0 
L 503 4581 
L 2534 4581 
Q 3147 4581 3465 4457 
Q 3784 4334 3975 4021 
Q 4166 3709 4166 3331 
Q 4166 2844 3850 2509 
Q 3534 2175 2875 2084 
Q 3116 1969 3241 1856 
Q 3506 1613 3744 1247 
L 4541 0 
L 3778 0 
L 3172 953 
Q 2906 1366 2734 1584 
Q 2563 1803 2427 1890 
Q 2291 1978 2150 2013 
Q 2047 2034 1813 2034 
L 1109 2034 
L 1109 0 
L 503 0 
z
M 1109 2559 
L 2413 2559 
Q 2828 2559 3062 2645 
Q 3297 2731 3419 2920 
Q 3541 3109 3541 3331 
Q 3541 3656 3305 3865 
Q 3069 4075 2559 4075 
L 1109 4075 
L 1109 2559 
z
" transform="scale(0.015625)"/>
       <path id="ArialMT-25" d="M 372 3481 
Q 372 3972 619 4315 
Q 866 4659 1334 4659 
Q 1766 4659 2048 4351 
Q 2331 4044 2331 3447 
Q 2331 2866 2045 2552 
Q 1759 2238 1341 2238 
Q 925 2238 648 2547 
Q 372 2856 372 3481 
z
M 1350 4272 
Q 1141 4272 1002 4090 
Q 863 3909 863 3425 
Q 863 2984 1003 2804 
Q 1144 2625 1350 2625 
Q 1563 2625 1702 2806 
Q 1841 2988 1841 3469 
Q 1841 3913 1700 4092 
Q 1559 4272 1350 4272 
z
M 1353 -169 
L 3859 4659 
L 4316 4659 
L 1819 -169 
L 1353 -169 
z
M 3334 1075 
Q 3334 1569 3581 1911 
Q 3828 2253 4300 2253 
Q 4731 2253 5014 1945 
Q 5297 1638 5297 1041 
Q 5297 459 5011 145 
Q 4725 -169 4303 -169 
Q 3888 -169 3611 142 
Q 3334 453 3334 1075 
z
M 4316 1866 
Q 4103 1866 3964 1684 
Q 3825 1503 3825 1019 
Q 3825 581 3965 400 
Q 4106 219 4313 219 
Q 4528 219 4667 400 
Q 4806 581 4806 1063 
Q 4806 1506 4665 1686 
Q 4525 1866 4316 1866 
z
" transform="scale(0.015625)"/>
      </defs>
      <use xlink:href="#ArialMT-50"/>
      <use xlink:href="#ArialMT-44" x="66.699219"/>
      <use xlink:href="#ArialMT-52" x="138.916016"/>
      <use xlink:href="#ArialMT-20" x="211.132812"/>
      <use xlink:href="#ArialMT-5b" x="238.916016"/>
      <use xlink:href="#ArialMT-25" x="266.699219"/>
      <use xlink:href="#ArialMT-5d" x="355.615234"/>
     </g>
    </g>
    <g id="PathCollection_14">
     <defs>
      <path id="m5757ec13c0" d="M 0 3 
C 0.795609 3 1.55874 2.683901 2.12132 2.12132 
C 2.683901 1.55874 3 0.795609 3 0 
C 3 -0.795609 2.683901 -1.55874 2.12132 -2.12132 
C 1.55874 -2.683901 0.795609 -3 0 -3 
C -0.795609 -3 -1.55874 -2.683901 -2.12132 -2.12132 
C -2.683901 -1.55874 -3 -0.795609 -3 0 
C -3 0.795609 -2.683901 1.55874 -2.12132 2.12132 
C -1.55874 2.683901 -0.795609 3 0 3 
z
" style="stroke: #4c6b95"/>
     </defs>
     <g>
      <use xlink:href="#m5757ec13c0" x="349.84" y="92.905781" style="fill: #4c6b95; stroke: #4c6b95"/>
     </g>
    </g>
    <g id="text_55">
     <!-- 200 -->
     <g style="fill: #262626" transform="translate(369.64 95.793281)scale(0.11 -0.11)">
      <use xlink:href="#ArialMT-32"/>
      <use xlink:href="#ArialMT-30" x="55.615234"/>
      <use xlink:href="#ArialMT-30" x="111.230469"/>
     </g>
    </g>
    <g id="PathCollection_15">
     <defs>
      <path id="md751bb3e25" d="M 0 3 
C 0.795609 3 1.55874 2.683901 2.12132 2.12132 
C 2.683901 1.55874 3 0.795609 3 0 
C 3 -0.795609 2.683901 -1.55874 2.12132 -2.12132 
C 1.55874 -2.683901 0.795609 -3 0 -3 
C -0.795609 -3 -1.55874 -2.683901 -2.12132 -2.12132 
C -2.683901 -1.55874 -3 -0.795609 -3 0 
C -3 0.795609 -2.683901 1.55874 -2.12132 2.12132 
C -1.55874 2.683901 -0.795609 3 0 3 
z
" style="stroke: #455f83"/>
     </defs>
     <g>
      <use xlink:href="#md751bb3e25" x="349.84" y="108.465625" style="fill: #455f83; stroke: #455f83"/>
     </g>
    </g>
    <g id="text_56">
     <!-- 250 -->
     <g style="fill: #262626" transform="translate(369.64 111.353125)scale(0.11 -0.11)">
      <defs>
       <path id="ArialMT-35" d="M 266 1200 
L 856 1250 
Q 922 819 1161 601 
Q 1400 384 1738 384 
Q 2144 384 2425 690 
Q 2706 997 2706 1503 
Q 2706 1984 2436 2262 
Q 2166 2541 1728 2541 
Q 1456 2541 1237 2417 
Q 1019 2294 894 2097 
L 366 2166 
L 809 4519 
L 3088 4519 
L 3088 3981 
L 1259 3981 
L 1013 2750 
Q 1425 3038 1878 3038 
Q 2478 3038 2890 2622 
Q 3303 2206 3303 1553 
Q 3303 931 2941 478 
Q 2500 -78 1738 -78 
Q 1113 -78 717 272 
Q 322 622 266 1200 
z
" transform="scale(0.015625)"/>
      </defs>
      <use xlink:href="#ArialMT-32"/>
      <use xlink:href="#ArialMT-35" x="55.615234"/>
      <use xlink:href="#ArialMT-30" x="111.230469"/>
     </g>
    </g>
    <g id="PathCollection_16">
     <defs>
      <path id="m626b27ec70" d="M 0 3 
C 0.795609 3 1.55874 2.683901 2.12132 2.12132 
C 2.683901 1.55874 3 0.795609 3 0 
C 3 -0.795609 2.683901 -1.55874 2.12132 -2.12132 
C 1.55874 -2.683901 0.795609 -3 0 -3 
C -0.795609 -3 -1.55874 -2.683901 -2.12132 -2.12132 
C -2.683901 -1.55874 -3 -0.795609 -3 0 
C -3 0.795609 -2.683901 1.55874 -2.12132 2.12132 
C -1.55874 2.683901 -0.795609 3 0 3 
z
" style="stroke: #3e5471"/>
     </defs>
     <g>
      <use xlink:href="#m626b27ec70" x="349.84" y="124.025469" style="fill: #3e5471; stroke: #3e5471"/>
     </g>
    </g>
    <g id="text_57">
     <!-- 300 -->
     <g style="fill: #262626" transform="translate(369.64 126.912969)scale(0.11 -0.11)">
      <use xlink:href="#ArialMT-33"/>
      <use xlink:href="#ArialMT-30" x="55.615234"/>
      <use xlink:href="#ArialMT-30" x="111.230469"/>
     </g>
    </g>
    <g id="PathCollection_17">
     <defs>
      <path id="mf441c6adc6" d="M 0 3 
C 0.795609 3 1.55874 2.683901 2.12132 2.12132 
C 2.683901 1.55874 3 0.795609 3 0 
C 3 -0.795609 2.683901 -1.55874 2.12132 -2.12132 
C 1.55874 -2.683901 0.795609 -3 0 -3 
C -0.795609 -3 -1.55874 -2.683901 -2.12132 -2.12132 
C -2.683901 -1.55874 -3 -0.795609 -3 0 
C -3 0.795609 -2.683901 1.55874 -2.12132 2.12132 
C -1.55874 2.683901 -0.795609 3 0 3 
z
" style="stroke: #38485f"/>
     </defs>
     <g>
      <use xlink:href="#mf441c6adc6" x="349.84" y="139.585312" style="fill: #38485f; stroke: #38485f"/>
     </g>
    </g>
    <g id="text_58">
     <!-- 350 -->
     <g style="fill: #262626" transform="translate(369.64 142.472812)scale(0.11 -0.11)">
      <use xlink:href="#ArialMT-33"/>
      <use xlink:href="#ArialMT-35" x="55.615234"/>
      <use xlink:href="#ArialMT-30" x="111.230469"/>
     </g>
    </g>
    <g id="PathCollection_18">
     <defs>
      <path id="macf74905b8" d="M 0 3 
C 0.795609 3 1.55874 2.683901 2.12132 2.12132 
C 2.683901 1.55874 3 0.795609 3 0 
C 3 -0.795609 2.683901 -1.55874 2.12132 -2.12132 
C 1.55874 -2.683901 0.795609 -3 0 -3 
C -0.795609 -3 -1.55874 -2.683901 -2.12132 -2.12132 
C -2.683901 -1.55874 -3 -0.795609 -3 0 
C -3 0.795609 -2.683901 1.55874 -2.12132 2.12132 
C -1.55874 2.683901 -0.795609 3 0 3 
z
" style="stroke: #313d4d"/>
     </defs>
     <g>
      <use xlink:href="#macf74905b8" x="349.84" y="155.145156" style="fill: #313d4d; stroke: #313d4d"/>
     </g>
    </g>
    <g id="text_59">
     <!-- 400 -->
     <g style="fill: #262626" transform="translate(369.64 158.032656)scale(0.11 -0.11)">
      <use xlink:href="#ArialMT-34"/>
      <use xlink:href="#ArialMT-30" x="55.615234"/>
      <use xlink:href="#ArialMT-30" x="111.230469"/>
     </g>
    </g>
    <g id="text_60">
     <!-- # Sent Packets -->
     <g style="fill: #262626" transform="translate(369.64 173.5925)scale(0.11 -0.11)">
      <defs>
       <path id="ArialMT-23" d="M 322 -78 
L 594 1253 
L 66 1253 
L 66 1719 
L 688 1719 
L 919 2853 
L 66 2853 
L 66 3319 
L 1013 3319 
L 1284 4659 
L 1753 4659 
L 1481 3319 
L 2466 3319 
L 2738 4659 
L 3209 4659 
L 2938 3319 
L 3478 3319 
L 3478 2853 
L 2844 2853 
L 2609 1719 
L 3478 1719 
L 3478 1253 
L 2516 1253 
L 2244 -78 
L 1775 -78 
L 2044 1253 
L 1063 1253 
L 791 -78 
L 322 -78 
z
M 1156 1719 
L 2138 1719 
L 2372 2853 
L 1388 2853 
L 1156 1719 
z
" transform="scale(0.015625)"/>
       <path id="ArialMT-53" d="M 288 1472 
L 859 1522 
Q 900 1178 1048 958 
Q 1197 738 1509 602 
Q 1822 466 2213 466 
Q 2559 466 2825 569 
Q 3091 672 3220 851 
Q 3350 1031 3350 1244 
Q 3350 1459 3225 1620 
Q 3100 1781 2813 1891 
Q 2628 1963 1997 2114 
Q 1366 2266 1113 2400 
Q 784 2572 623 2826 
Q 463 3081 463 3397 
Q 463 3744 659 4045 
Q 856 4347 1234 4503 
Q 1613 4659 2075 4659 
Q 2584 4659 2973 4495 
Q 3363 4331 3572 4012 
Q 3781 3694 3797 3291 
L 3216 3247 
Q 3169 3681 2898 3903 
Q 2628 4125 2100 4125 
Q 1550 4125 1298 3923 
Q 1047 3722 1047 3438 
Q 1047 3191 1225 3031 
Q 1400 2872 2139 2705 
Q 2878 2538 3153 2413 
Q 3553 2228 3743 1945 
Q 3934 1663 3934 1294 
Q 3934 928 3725 604 
Q 3516 281 3123 101 
Q 2731 -78 2241 -78 
Q 1619 -78 1198 103 
Q 778 284 539 648 
Q 300 1013 288 1472 
z
" transform="scale(0.015625)"/>
       <path id="ArialMT-6b" d="M 425 0 
L 425 4581 
L 988 4581 
L 988 1969 
L 2319 3319 
L 3047 3319 
L 1778 2088 
L 3175 0 
L 2481 0 
L 1384 1697 
L 988 1316 
L 988 0 
L 425 0 
z
" transform="scale(0.015625)"/>
       <path id="ArialMT-73" d="M 197 991 
L 753 1078 
Q 800 744 1014 566 
Q 1228 388 1613 388 
Q 2000 388 2187 545 
Q 2375 703 2375 916 
Q 2375 1106 2209 1216 
Q 2094 1291 1634 1406 
Q 1016 1563 777 1677 
Q 538 1791 414 1992 
Q 291 2194 291 2438 
Q 291 2659 392 2848 
Q 494 3038 669 3163 
Q 800 3259 1026 3326 
Q 1253 3394 1513 3394 
Q 1903 3394 2198 3281 
Q 2494 3169 2634 2976 
Q 2775 2784 2828 2463 
L 2278 2388 
Q 2241 2644 2061 2787 
Q 1881 2931 1553 2931 
Q 1166 2931 1000 2803 
Q 834 2675 834 2503 
Q 834 2394 903 2306 
Q 972 2216 1119 2156 
Q 1203 2125 1616 2013 
Q 2213 1853 2448 1751 
Q 2684 1650 2818 1456 
Q 2953 1263 2953 975 
Q 2953 694 2789 445 
Q 2625 197 2315 61 
Q 2006 -75 1616 -75 
Q 969 -75 630 194 
Q 291 463 197 991 
z
" transform="scale(0.015625)"/>
      </defs>
      <use xlink:href="#ArialMT-23"/>
      <use xlink:href="#ArialMT-20" x="55.615234"/>
      <use xlink:href="#ArialMT-53" x="83.398438"/>
      <use xlink:href="#ArialMT-65" x="150.097656"/>
      <use xlink:href="#ArialMT-6e" x="205.712891"/>
      <use xlink:href="#ArialMT-74" x="261.328125"/>
      <use xlink:href="#ArialMT-20" x="289.111328"/>
      <use xlink:href="#ArialMT-50" x="316.894531"/>
      <use xlink:href="#ArialMT-61" x="383.59375"/>
      <use xlink:href="#ArialMT-63" x="439.208984"/>
      <use xlink:href="#ArialMT-6b" x="489.208984"/>
      <use xlink:href="#ArialMT-65" x="539.208984"/>
      <use xlink:href="#ArialMT-74" x="594.824219"/>
      <use xlink:href="#ArialMT-73" x="622.607422"/>
     </g>
    </g>
    <g id="PathCollection_19">
     <defs>
      <path id="m92b9046e87" d="M 0 3.535534 
C 0.937635 3.535534 1.836992 3.163008 2.5 2.5 
C 3.163008 1.836992 3.535534 0.937635 3.535534 0 
C 3.535534 -0.937635 3.163008 -1.836992 2.5 -2.5 
C 1.836992 -3.163008 0.937635 -3.535534 0 -3.535534 
C -0.937635 -3.535534 -1.836992 -3.163008 -2.5 -2.5 
C -3.163008 -1.836992 -3.535534 -0.937635 -3.535534 0 
C -3.535534 0.937635 -3.163008 1.836992 -2.5 2.5 
C -1.836992 3.163008 -0.937635 3.535534 0 3.535534 
z
" style="stroke: #333333"/>
     </defs>
     <g>
      <use xlink:href="#m92b9046e87" x="349.84" y="186.264844" style="fill: #333333; stroke: #333333"/>
     </g>
    </g>
    <g id="text_61">
     <!-- 40 -->
     <g style="fill: #262626" transform="translate(369.64 189.152344)scale(0.11 -0.11)">
      <use xlink:href="#ArialMT-34"/>
      <use xlink:href="#ArialMT-30" x="55.615234"/>
     </g>
    </g>
    <g id="PathCollection_20">
     <defs>
      <path id="madc8096412" d="M 0 6.373774 
C 1.690345 6.373774 3.311685 5.702193 4.506939 4.506939 
C 5.702193 3.311685 6.373774 1.690345 6.373774 0 
C 6.373774 -1.690345 5.702193 -3.311685 4.506939 -4.506939 
C 3.311685 -5.702193 1.690345 -6.373774 0 -6.373774 
C -1.690345 -6.373774 -3.311685 -5.702193 -4.506939 -4.506939 
C -5.702193 -3.311685 -6.373774 -1.690345 -6.373774 0 
C -6.373774 1.690345 -5.702193 3.311685 -4.506939 4.506939 
C -3.311685 5.702193 -1.690345 6.373774 0 6.373774 
z
" style="stroke: #333333"/>
     </defs>
     <g>
      <use xlink:href="#madc8096412" x="349.84" y="201.824688" style="fill: #333333; stroke: #333333"/>
     </g>
    </g>
    <g id="text_62">
     <!-- 60 -->
     <g style="fill: #262626" transform="translate(369.64 204.712187)scale(0.11 -0.11)">
      <defs>
       <path id="ArialMT-36" d="M 3184 3459 
L 2625 3416 
Q 2550 3747 2413 3897 
Q 2184 4138 1850 4138 
Q 1581 4138 1378 3988 
Q 1113 3794 959 3422 
Q 806 3050 800 2363 
Q 1003 2672 1297 2822 
Q 1591 2972 1913 2972 
Q 2475 2972 2870 2558 
Q 3266 2144 3266 1488 
Q 3266 1056 3080 686 
Q 2894 316 2569 119 
Q 2244 -78 1831 -78 
Q 1128 -78 684 439 
Q 241 956 241 2144 
Q 241 3472 731 4075 
Q 1159 4600 1884 4600 
Q 2425 4600 2770 4297 
Q 3116 3994 3184 3459 
z
M 888 1484 
Q 888 1194 1011 928 
Q 1134 663 1356 523 
Q 1578 384 1822 384 
Q 2178 384 2434 671 
Q 2691 959 2691 1453 
Q 2691 1928 2437 2201 
Q 2184 2475 1800 2475 
Q 1419 2475 1153 2201 
Q 888 1928 888 1484 
z
" transform="scale(0.015625)"/>
      </defs>
      <use xlink:href="#ArialMT-36"/>
      <use xlink:href="#ArialMT-30" x="55.615234"/>
     </g>
    </g>
    <g id="PathCollection_21">
     <defs>
      <path id="m9ec9245260" d="M 0 8.291562 
C 2.198948 8.291562 4.308129 7.417911 5.86302 5.86302 
C 7.417911 4.308129 8.291562 2.198948 8.291562 0 
C 8.291562 -2.198948 7.417911 -4.308129 5.86302 -5.86302 
C 4.308129 -7.417911 2.198948 -8.291562 0 -8.291562 
C -2.198948 -8.291562 -4.308129 -7.417911 -5.86302 -5.86302 
C -7.417911 -4.308129 -8.291562 -2.198948 -8.291562 0 
C -8.291562 2.198948 -7.417911 4.308129 -5.86302 5.86302 
C -4.308129 7.417911 -2.198948 8.291562 0 8.291562 
z
" style="stroke: #333333"/>
     </defs>
     <g>
      <use xlink:href="#m9ec9245260" x="349.84" y="217.384531" style="fill: #333333; stroke: #333333"/>
     </g>
    </g>
    <g id="text_63">
     <!-- 80 -->
     <g style="fill: #262626" transform="translate(369.64 220.272031)scale(0.11 -0.11)">
      <defs>
       <path id="ArialMT-38" d="M 1131 2484 
Q 781 2613 612 2850 
Q 444 3088 444 3419 
Q 444 3919 803 4259 
Q 1163 4600 1759 4600 
Q 2359 4600 2725 4251 
Q 3091 3903 3091 3403 
Q 3091 3084 2923 2848 
Q 2756 2613 2416 2484 
Q 2838 2347 3058 2040 
Q 3278 1734 3278 1309 
Q 3278 722 2862 322 
Q 2447 -78 1769 -78 
Q 1091 -78 675 323 
Q 259 725 259 1325 
Q 259 1772 486 2073 
Q 713 2375 1131 2484 
z
M 1019 3438 
Q 1019 3113 1228 2906 
Q 1438 2700 1772 2700 
Q 2097 2700 2305 2904 
Q 2513 3109 2513 3406 
Q 2513 3716 2298 3927 
Q 2084 4138 1766 4138 
Q 1444 4138 1231 3931 
Q 1019 3725 1019 3438 
z
M 838 1322 
Q 838 1081 952 856 
Q 1066 631 1291 507 
Q 1516 384 1775 384 
Q 2178 384 2440 643 
Q 2703 903 2703 1303 
Q 2703 1709 2433 1975 
Q 2163 2241 1756 2241 
Q 1359 2241 1098 1978 
Q 838 1716 838 1322 
z
" transform="scale(0.015625)"/>
      </defs>
      <use xlink:href="#ArialMT-38"/>
      <use xlink:href="#ArialMT-30" x="55.615234"/>
     </g>
    </g>
    <g id="PathCollection_22">
     <defs>
      <path id="m0f8de67982" d="M 0 9.84251 
C 2.610264 9.84251 5.11397 8.805441 6.959705 6.959705 
C 8.805441 5.11397 9.84251 2.610264 9.84251 0 
C 9.84251 -2.610264 8.805441 -5.11397 6.959705 -6.959705 
C 5.11397 -8.805441 2.610264 -9.84251 0 -9.84251 
C -2.610264 -9.84251 -5.11397 -8.805441 -6.959705 -6.959705 
C -8.805441 -5.11397 -9.84251 -2.610264 -9.84251 0 
C -9.84251 2.610264 -8.805441 5.11397 -6.959705 6.959705 
C -5.11397 8.805441 -2.610264 9.84251 0 9.84251 
z
" style="stroke: #333333"/>
     </defs>
     <g>
      <use xlink:href="#m0f8de67982" x="349.84" y="232.944375" style="fill: #333333; stroke: #333333"/>
     </g>
    </g>
    <g id="text_64">
     <!-- 100 -->
     <g style="fill: #262626" transform="translate(369.64 235.831875)scale(0.11 -0.11)">
      <use xlink:href="#ArialMT-31"/>
      <use xlink:href="#ArialMT-30" x="55.615234"/>
      <use xlink:href="#ArialMT-30" x="111.230469"/>
     </g>
    </g>
    <g id="PathCollection_23">
     <defs>
      <path id="mc12956efa8" d="M 0 11.18034 
C 2.965061 11.18034 5.80908 10.002309 7.905694 7.905694 
C 10.002309 5.80908 11.18034 2.965061 11.18034 0 
C 11.18034 -2.965061 10.002309 -5.80908 7.905694 -7.905694 
C 5.80908 -10.002309 2.965061 -11.18034 0 -11.18034 
C -2.965061 -11.18034 -5.80908 -10.002309 -7.905694 -7.905694 
C -10.002309 -5.80908 -11.18034 -2.965061 -11.18034 0 
C -11.18034 2.965061 -10.002309 5.80908 -7.905694 7.905694 
C -5.80908 10.002309 -2.965061 11.18034 0 11.18034 
z
" style="stroke: #333333"/>
     </defs>
     <g>
      <use xlink:href="#mc12956efa8" x="349.84" y="248.504219" style="fill: #333333; stroke: #333333"/>
     </g>
    </g>
    <g id="text_65">
     <!-- 120 -->
     <g style="fill: #262626" transform="translate(369.64 251.391719)scale(0.11 -0.11)">
      <use xlink:href="#ArialMT-31"/>
      <use xlink:href="#ArialMT-32" x="55.615234"/>
      <use xlink:href="#ArialMT-30" x="111.230469"/>
     </g>
    </g>
   </g>
  </g>
 </g>
 <defs>
  <clipPath id="p22476a1cf7">
   <rect x="55.67625" y="27.6" width="273.26375" height="270.60375"/>
  </clipPath>
 </defs>
</svg>
