<?xml version="1.0" encoding="utf-8" standalone="no"?>
<!DOCTYPE svg PUBLIC "-//W3C//DTD SVG 1.1//EN"
  "http://www.w3.org/Graphics/SVG/1.1/DTD/svg11.dtd">
<svg xmlns:xlink="http://www.w3.org/1999/xlink" width="460.8pt" height="345.6pt" viewBox="0 0 460.8 345.6" xmlns="http://www.w3.org/2000/svg" version="1.1">
 <metadata>
  <rdf:RDF xmlns:dc="http://purl.org/dc/elements/1.1/" xmlns:cc="http://creativecommons.org/ns#" xmlns:rdf="http://www.w3.org/1999/02/22-rdf-syntax-ns#">
   <cc:Work>
    <dc:type rdf:resource="http://purl.org/dc/dcmitype/StillImage"/>
    <dc:date>2022-11-27T22:53:19.255499</dc:date>
    <dc:format>image/svg+xml</dc:format>
    <dc:creator>
     <cc:Agent>
      <dc:title>Matplotlib v3.5.1, https://matplotlib.org/</dc:title>
     </cc:Agent>
    </dc:creator>
   </cc:Work>
  </rdf:RDF>
 </metadata>
 <defs>
  <style type="text/css">*{stroke-linejoin: round; stroke-linecap: butt}</style>
 </defs>
 <g id="figure_1">
  <g id="patch_1">
   <path d="M 0 345.6 
L 460.8 345.6 
L 460.8 0 
L 0 0 
z
" style="fill: #ffffff"/>
  </g>
  <g id="axes_1">
   <g id="patch_2">
    <path d="M 55.67625 298.20375 
L 328.94 298.20375 
L 328.94 27.6 
L 55.67625 27.6 
z
" style="fill: #eaeaf2"/>
   </g>
   <g id="matplotlib.axis_1">
    <g id="xtick_1">
     <g id="line2d_1">
      <path d="M 80.978449 298.20375 
L 80.978449 27.6 
" clip-path="url(#p96bcd7716f)" style="fill: none; stroke: #ffffff; stroke-linecap: round"/>
     </g>
     <g id="text_1">
      <!-- 0 -->
      <g style="fill: #262626" transform="translate(77.919933 315.577344)scale(0.11 -0.11)">
       <defs>
        <path id="ArialMT-30" d="M 266 2259 
Q 266 3072 433 3567 
Q 600 4063 929 4331 
Q 1259 4600 1759 4600 
Q 2128 4600 2406 4451 
Q 2684 4303 2865 4023 
Q 3047 3744 3150 3342 
Q 3253 2941 3253 2259 
Q 3253 1453 3087 958 
Q 2922 463 2592 192 
Q 2263 -78 1759 -78 
Q 1097 -78 719 397 
Q 266 969 266 2259 
z
M 844 2259 
Q 844 1131 1108 757 
Q 1372 384 1759 384 
Q 2147 384 2411 759 
Q 2675 1134 2675 2259 
Q 2675 3391 2411 3762 
Q 2147 4134 1753 4134 
Q 1366 4134 1134 3806 
Q 844 3388 844 2259 
z
" transform="scale(0.015625)"/>
       </defs>
       <use xlink:href="#ArialMT-30"/>
      </g>
     </g>
    </g>
    <g id="xtick_2">
     <g id="line2d_2">
      <path d="M 136.643287 298.20375 
L 136.643287 27.6 
" clip-path="url(#p96bcd7716f)" style="fill: none; stroke: #ffffff; stroke-linecap: round"/>
     </g>
     <g id="text_2">
      <!-- 110 -->
      <g style="fill: #262626" transform="translate(127.873365 315.577344)scale(0.11 -0.11)">
       <defs>
        <path id="ArialMT-31" d="M 2384 0 
L 1822 0 
L 1822 3584 
Q 1619 3391 1289 3197 
Q 959 3003 697 2906 
L 697 3450 
Q 1169 3672 1522 3987 
Q 1875 4303 2022 4600 
L 2384 4600 
L 2384 0 
z
" transform="scale(0.015625)"/>
       </defs>
       <use xlink:href="#ArialMT-31"/>
       <use xlink:href="#ArialMT-31" x="48.240234"/>
       <use xlink:href="#ArialMT-30" x="103.855469"/>
      </g>
     </g>
    </g>
    <g id="xtick_3">
     <g id="line2d_3">
      <path d="M 192.308125 298.20375 
L 192.308125 27.6 
" clip-path="url(#p96bcd7716f)" style="fill: none; stroke: #ffffff; stroke-linecap: round"/>
     </g>
     <g id="text_3">
      <!-- 220 -->
      <g style="fill: #262626" transform="translate(183.132578 315.577344)scale(0.11 -0.11)">
       <defs>
        <path id="ArialMT-32" d="M 3222 541 
L 3222 0 
L 194 0 
Q 188 203 259 391 
Q 375 700 629 1000 
Q 884 1300 1366 1694 
Q 2113 2306 2375 2664 
Q 2638 3022 2638 3341 
Q 2638 3675 2398 3904 
Q 2159 4134 1775 4134 
Q 1369 4134 1125 3890 
Q 881 3647 878 3216 
L 300 3275 
Q 359 3922 746 4261 
Q 1134 4600 1788 4600 
Q 2447 4600 2831 4234 
Q 3216 3869 3216 3328 
Q 3216 3053 3103 2787 
Q 2991 2522 2730 2228 
Q 2469 1934 1863 1422 
Q 1356 997 1212 845 
Q 1069 694 975 541 
L 3222 541 
z
" transform="scale(0.015625)"/>
       </defs>
       <use xlink:href="#ArialMT-32"/>
       <use xlink:href="#ArialMT-32" x="55.615234"/>
       <use xlink:href="#ArialMT-30" x="111.230469"/>
      </g>
     </g>
    </g>
    <g id="xtick_4">
     <g id="line2d_4">
      <path d="M 247.972963 298.20375 
L 247.972963 27.6 
" clip-path="url(#p96bcd7716f)" style="fill: none; stroke: #ffffff; stroke-linecap: round"/>
     </g>
     <g id="text_4">
      <!-- 330 -->
      <g style="fill: #262626" transform="translate(238.797416 315.577344)scale(0.11 -0.11)">
       <defs>
        <path id="ArialMT-33" d="M 269 1209 
L 831 1284 
Q 928 806 1161 595 
Q 1394 384 1728 384 
Q 2125 384 2398 659 
Q 2672 934 2672 1341 
Q 2672 1728 2419 1979 
Q 2166 2231 1775 2231 
Q 1616 2231 1378 2169 
L 1441 2663 
Q 1497 2656 1531 2656 
Q 1891 2656 2178 2843 
Q 2466 3031 2466 3422 
Q 2466 3731 2256 3934 
Q 2047 4138 1716 4138 
Q 1388 4138 1169 3931 
Q 950 3725 888 3313 
L 325 3413 
Q 428 3978 793 4289 
Q 1159 4600 1703 4600 
Q 2078 4600 2393 4439 
Q 2709 4278 2876 4000 
Q 3044 3722 3044 3409 
Q 3044 3113 2884 2869 
Q 2725 2625 2413 2481 
Q 2819 2388 3044 2092 
Q 3269 1797 3269 1353 
Q 3269 753 2831 336 
Q 2394 -81 1725 -81 
Q 1122 -81 723 278 
Q 325 638 269 1209 
z
" transform="scale(0.015625)"/>
       </defs>
       <use xlink:href="#ArialMT-33"/>
       <use xlink:href="#ArialMT-33" x="55.615234"/>
       <use xlink:href="#ArialMT-30" x="111.230469"/>
      </g>
     </g>
    </g>
    <g id="xtick_5">
     <g id="line2d_5">
      <path d="M 303.637801 298.20375 
L 303.637801 27.6 
" clip-path="url(#p96bcd7716f)" style="fill: none; stroke: #ffffff; stroke-linecap: round"/>
     </g>
     <g id="text_5">
      <!-- 440 -->
      <g style="fill: #262626" transform="translate(294.462254 315.577344)scale(0.11 -0.11)">
       <defs>
        <path id="ArialMT-34" d="M 2069 0 
L 2069 1097 
L 81 1097 
L 81 1613 
L 2172 4581 
L 2631 4581 
L 2631 1613 
L 3250 1613 
L 3250 1097 
L 2631 1097 
L 2631 0 
L 2069 0 
z
M 2069 1613 
L 2069 3678 
L 634 1613 
L 2069 1613 
z
" transform="scale(0.015625)"/>
       </defs>
       <use xlink:href="#ArialMT-34"/>
       <use xlink:href="#ArialMT-34" x="55.615234"/>
       <use xlink:href="#ArialMT-30" x="111.230469"/>
      </g>
     </g>
    </g>
    <g id="xtick_6">
     <g id="line2d_6">
      <path d="M 80.978449 298.20375 
L 80.978449 27.6 
" clip-path="url(#p96bcd7716f)" style="fill: none; stroke: #ffffff; stroke-linecap: round"/>
     </g>
     <g id="text_6">
      <!-- 0 -->
      <g style="fill: #262626" transform="translate(77.919933 315.577344)scale(0.11 -0.11)">
       <use xlink:href="#ArialMT-30"/>
      </g>
     </g>
    </g>
    <g id="xtick_7">
     <g id="line2d_7">
      <path d="M 136.643287 298.20375 
L 136.643287 27.6 
" clip-path="url(#p96bcd7716f)" style="fill: none; stroke: #ffffff; stroke-linecap: round"/>
     </g>
     <g id="text_7">
      <!-- 110 -->
      <g style="fill: #262626" transform="translate(127.873365 315.577344)scale(0.11 -0.11)">
       <use xlink:href="#ArialMT-31"/>
       <use xlink:href="#ArialMT-31" x="48.240234"/>
       <use xlink:href="#ArialMT-30" x="103.855469"/>
      </g>
     </g>
    </g>
    <g id="xtick_8">
     <g id="line2d_8">
      <path d="M 192.308125 298.20375 
L 192.308125 27.6 
" clip-path="url(#p96bcd7716f)" style="fill: none; stroke: #ffffff; stroke-linecap: round"/>
     </g>
     <g id="text_8">
      <!-- 220 -->
      <g style="fill: #262626" transform="translate(183.132578 315.577344)scale(0.11 -0.11)">
       <use xlink:href="#ArialMT-32"/>
       <use xlink:href="#ArialMT-32" x="55.615234"/>
       <use xlink:href="#ArialMT-30" x="111.230469"/>
      </g>
     </g>
    </g>
    <g id="xtick_9">
     <g id="line2d_9">
      <path d="M 247.972963 298.20375 
L 247.972963 27.6 
" clip-path="url(#p96bcd7716f)" style="fill: none; stroke: #ffffff; stroke-linecap: round"/>
     </g>
     <g id="text_9">
      <!-- 330 -->
      <g style="fill: #262626" transform="translate(238.797416 315.577344)scale(0.11 -0.11)">
       <use xlink:href="#ArialMT-33"/>
       <use xlink:href="#ArialMT-33" x="55.615234"/>
       <use xlink:href="#ArialMT-30" x="111.230469"/>
      </g>
     </g>
    </g>
    <g id="xtick_10">
     <g id="line2d_10">
      <path d="M 303.637801 298.20375 
L 303.637801 27.6 
" clip-path="url(#p96bcd7716f)" style="fill: none; stroke: #ffffff; stroke-linecap: round"/>
     </g>
     <g id="text_10">
      <!-- 440 -->
      <g style="fill: #262626" transform="translate(294.462254 315.577344)scale(0.11 -0.11)">
       <use xlink:href="#ArialMT-34"/>
       <use xlink:href="#ArialMT-34" x="55.615234"/>
       <use xlink:href="#ArialMT-30" x="111.230469"/>
      </g>
     </g>
    </g>
    <g id="xtick_11">
     <g id="line2d_11">
      <path d="M 80.978449 298.20375 
L 80.978449 27.6 
" clip-path="url(#p96bcd7716f)" style="fill: none; stroke: #ffffff; stroke-linecap: round"/>
     </g>
     <g id="text_11">
      <!-- 0 -->
      <g style="fill: #262626" transform="translate(77.919933 315.577344)scale(0.11 -0.11)">
       <use xlink:href="#ArialMT-30"/>
      </g>
     </g>
    </g>
    <g id="xtick_12">
     <g id="line2d_12">
      <path d="M 136.643287 298.20375 
L 136.643287 27.6 
" clip-path="url(#p96bcd7716f)" style="fill: none; stroke: #ffffff; stroke-linecap: round"/>
     </g>
     <g id="text_12">
      <!-- 110 -->
      <g style="fill: #262626" transform="translate(127.873365 315.577344)scale(0.11 -0.11)">
       <use xlink:href="#ArialMT-31"/>
       <use xlink:href="#ArialMT-31" x="48.240234"/>
       <use xlink:href="#ArialMT-30" x="103.855469"/>
      </g>
     </g>
    </g>
    <g id="xtick_13">
     <g id="line2d_13">
      <path d="M 192.308125 298.20375 
L 192.308125 27.6 
" clip-path="url(#p96bcd7716f)" style="fill: none; stroke: #ffffff; stroke-linecap: round"/>
     </g>
     <g id="text_13">
      <!-- 220 -->
      <g style="fill: #262626" transform="translate(183.132578 315.577344)scale(0.11 -0.11)">
       <use xlink:href="#ArialMT-32"/>
       <use xlink:href="#ArialMT-32" x="55.615234"/>
       <use xlink:href="#ArialMT-30" x="111.230469"/>
      </g>
     </g>
    </g>
    <g id="xtick_14">
     <g id="line2d_14">
      <path d="M 247.972963 298.20375 
L 247.972963 27.6 
" clip-path="url(#p96bcd7716f)" style="fill: none; stroke: #ffffff; stroke-linecap: round"/>
     </g>
     <g id="text_14">
      <!-- 330 -->
      <g style="fill: #262626" transform="translate(238.797416 315.577344)scale(0.11 -0.11)">
       <use xlink:href="#ArialMT-33"/>
       <use xlink:href="#ArialMT-33" x="55.615234"/>
       <use xlink:href="#ArialMT-30" x="111.230469"/>
      </g>
     </g>
    </g>
    <g id="xtick_15">
     <g id="line2d_15">
      <path d="M 303.637801 298.20375 
L 303.637801 27.6 
" clip-path="url(#p96bcd7716f)" style="fill: none; stroke: #ffffff; stroke-linecap: round"/>
     </g>
     <g id="text_15">
      <!-- 440 -->
      <g style="fill: #262626" transform="translate(294.462254 315.577344)scale(0.11 -0.11)">
       <use xlink:href="#ArialMT-34"/>
       <use xlink:href="#ArialMT-34" x="55.615234"/>
       <use xlink:href="#ArialMT-30" x="111.230469"/>
      </g>
     </g>
    </g>
    <g id="xtick_16">
     <g id="line2d_16">
      <path d="M 80.978449 298.20375 
L 80.978449 27.6 
" clip-path="url(#p96bcd7716f)" style="fill: none; stroke: #ffffff; stroke-linecap: round"/>
     </g>
     <g id="text_16">
      <!-- 0 -->
      <g style="fill: #262626" transform="translate(77.919933 315.577344)scale(0.11 -0.11)">
       <use xlink:href="#ArialMT-30"/>
      </g>
     </g>
    </g>
    <g id="xtick_17">
     <g id="line2d_17">
      <path d="M 136.643287 298.20375 
L 136.643287 27.6 
" clip-path="url(#p96bcd7716f)" style="fill: none; stroke: #ffffff; stroke-linecap: round"/>
     </g>
     <g id="text_17">
      <!-- 110 -->
      <g style="fill: #262626" transform="translate(127.873365 315.577344)scale(0.11 -0.11)">
       <use xlink:href="#ArialMT-31"/>
       <use xlink:href="#ArialMT-31" x="48.240234"/>
       <use xlink:href="#ArialMT-30" x="103.855469"/>
      </g>
     </g>
    </g>
    <g id="xtick_18">
     <g id="line2d_18">
      <path d="M 192.308125 298.20375 
L 192.308125 27.6 
" clip-path="url(#p96bcd7716f)" style="fill: none; stroke: #ffffff; stroke-linecap: round"/>
     </g>
     <g id="text_18">
      <!-- 220 -->
      <g style="fill: #262626" transform="translate(183.132578 315.577344)scale(0.11 -0.11)">
       <use xlink:href="#ArialMT-32"/>
       <use xlink:href="#ArialMT-32" x="55.615234"/>
       <use xlink:href="#ArialMT-30" x="111.230469"/>
      </g>
     </g>
    </g>
    <g id="xtick_19">
     <g id="line2d_19">
      <path d="M 247.972963 298.20375 
L 247.972963 27.6 
" clip-path="url(#p96bcd7716f)" style="fill: none; stroke: #ffffff; stroke-linecap: round"/>
     </g>
     <g id="text_19">
      <!-- 330 -->
      <g style="fill: #262626" transform="translate(238.797416 315.577344)scale(0.11 -0.11)">
       <use xlink:href="#ArialMT-33"/>
       <use xlink:href="#ArialMT-33" x="55.615234"/>
       <use xlink:href="#ArialMT-30" x="111.230469"/>
      </g>
     </g>
    </g>
    <g id="xtick_20">
     <g id="line2d_20">
      <path d="M 303.637801 298.20375 
L 303.637801 27.6 
" clip-path="url(#p96bcd7716f)" style="fill: none; stroke: #ffffff; stroke-linecap: round"/>
     </g>
     <g id="text_20">
      <!-- 440 -->
      <g style="fill: #262626" transform="translate(294.462254 315.577344)scale(0.11 -0.11)">
       <use xlink:href="#ArialMT-34"/>
       <use xlink:href="#ArialMT-34" x="55.615234"/>
       <use xlink:href="#ArialMT-30" x="111.230469"/>
      </g>
     </g>
    </g>
    <g id="xtick_21">
     <g id="line2d_21">
      <path d="M 80.978449 298.20375 
L 80.978449 27.6 
" clip-path="url(#p96bcd7716f)" style="fill: none; stroke: #ffffff; stroke-linecap: round"/>
     </g>
     <g id="text_21">
      <!-- 0 -->
      <g style="fill: #262626" transform="translate(77.919933 315.577344)scale(0.11 -0.11)">
       <use xlink:href="#ArialMT-30"/>
      </g>
     </g>
    </g>
    <g id="xtick_22">
     <g id="line2d_22">
      <path d="M 136.643287 298.20375 
L 136.643287 27.6 
" clip-path="url(#p96bcd7716f)" style="fill: none; stroke: #ffffff; stroke-linecap: round"/>
     </g>
     <g id="text_22">
      <!-- 110 -->
      <g style="fill: #262626" transform="translate(127.873365 315.577344)scale(0.11 -0.11)">
       <use xlink:href="#ArialMT-31"/>
       <use xlink:href="#ArialMT-31" x="48.240234"/>
       <use xlink:href="#ArialMT-30" x="103.855469"/>
      </g>
     </g>
    </g>
    <g id="xtick_23">
     <g id="line2d_23">
      <path d="M 192.308125 298.20375 
L 192.308125 27.6 
" clip-path="url(#p96bcd7716f)" style="fill: none; stroke: #ffffff; stroke-linecap: round"/>
     </g>
     <g id="text_23">
      <!-- 220 -->
      <g style="fill: #262626" transform="translate(183.132578 315.577344)scale(0.11 -0.11)">
       <use xlink:href="#ArialMT-32"/>
       <use xlink:href="#ArialMT-32" x="55.615234"/>
       <use xlink:href="#ArialMT-30" x="111.230469"/>
      </g>
     </g>
    </g>
    <g id="xtick_24">
     <g id="line2d_24">
      <path d="M 247.972963 298.20375 
L 247.972963 27.6 
" clip-path="url(#p96bcd7716f)" style="fill: none; stroke: #ffffff; stroke-linecap: round"/>
     </g>
     <g id="text_24">
      <!-- 330 -->
      <g style="fill: #262626" transform="translate(238.797416 315.577344)scale(0.11 -0.11)">
       <use xlink:href="#ArialMT-33"/>
       <use xlink:href="#ArialMT-33" x="55.615234"/>
       <use xlink:href="#ArialMT-30" x="111.230469"/>
      </g>
     </g>
    </g>
    <g id="xtick_25">
     <g id="line2d_25">
      <path d="M 303.637801 298.20375 
L 303.637801 27.6 
" clip-path="url(#p96bcd7716f)" style="fill: none; stroke: #ffffff; stroke-linecap: round"/>
     </g>
     <g id="text_25">
      <!-- 440 -->
      <g style="fill: #262626" transform="translate(294.462254 315.577344)scale(0.11 -0.11)">
       <use xlink:href="#ArialMT-34"/>
       <use xlink:href="#ArialMT-34" x="55.615234"/>
       <use xlink:href="#ArialMT-30" x="111.230469"/>
      </g>
     </g>
    </g>
    <g id="text_26">
     <!-- X-Coordinate [m] -->
     <g style="fill: #262626" transform="translate(146.959375 330.499219)scale(0.12 -0.12)">
      <defs>
       <path id="ArialMT-58" d="M 28 0 
L 1800 2388 
L 238 4581 
L 959 4581 
L 1791 3406 
Q 2050 3041 2159 2844 
Q 2313 3094 2522 3366 
L 3444 4581 
L 4103 4581 
L 2494 2422 
L 4228 0 
L 3478 0 
L 2325 1634 
Q 2228 1775 2125 1941 
Q 1972 1691 1906 1597 
L 756 0 
L 28 0 
z
" transform="scale(0.015625)"/>
       <path id="ArialMT-2d" d="M 203 1375 
L 203 1941 
L 1931 1941 
L 1931 1375 
L 203 1375 
z
" transform="scale(0.015625)"/>
       <path id="ArialMT-43" d="M 3763 1606 
L 4369 1453 
Q 4178 706 3683 314 
Q 3188 -78 2472 -78 
Q 1731 -78 1267 223 
Q 803 525 561 1097 
Q 319 1669 319 2325 
Q 319 3041 592 3573 
Q 866 4106 1370 4382 
Q 1875 4659 2481 4659 
Q 3169 4659 3637 4309 
Q 4106 3959 4291 3325 
L 3694 3184 
Q 3534 3684 3231 3912 
Q 2928 4141 2469 4141 
Q 1941 4141 1586 3887 
Q 1231 3634 1087 3207 
Q 944 2781 944 2328 
Q 944 1744 1114 1308 
Q 1284 872 1643 656 
Q 2003 441 2422 441 
Q 2931 441 3284 734 
Q 3638 1028 3763 1606 
z
" transform="scale(0.015625)"/>
       <path id="ArialMT-6f" d="M 213 1659 
Q 213 2581 725 3025 
Q 1153 3394 1769 3394 
Q 2453 3394 2887 2945 
Q 3322 2497 3322 1706 
Q 3322 1066 3130 698 
Q 2938 331 2570 128 
Q 2203 -75 1769 -75 
Q 1072 -75 642 372 
Q 213 819 213 1659 
z
M 791 1659 
Q 791 1022 1069 705 
Q 1347 388 1769 388 
Q 2188 388 2466 706 
Q 2744 1025 2744 1678 
Q 2744 2294 2464 2611 
Q 2184 2928 1769 2928 
Q 1347 2928 1069 2612 
Q 791 2297 791 1659 
z
" transform="scale(0.015625)"/>
       <path id="ArialMT-72" d="M 416 0 
L 416 3319 
L 922 3319 
L 922 2816 
Q 1116 3169 1280 3281 
Q 1444 3394 1641 3394 
Q 1925 3394 2219 3213 
L 2025 2691 
Q 1819 2813 1613 2813 
Q 1428 2813 1281 2702 
Q 1134 2591 1072 2394 
Q 978 2094 978 1738 
L 978 0 
L 416 0 
z
" transform="scale(0.015625)"/>
       <path id="ArialMT-64" d="M 2575 0 
L 2575 419 
Q 2259 -75 1647 -75 
Q 1250 -75 917 144 
Q 584 363 401 755 
Q 219 1147 219 1656 
Q 219 2153 384 2558 
Q 550 2963 881 3178 
Q 1213 3394 1622 3394 
Q 1922 3394 2156 3267 
Q 2391 3141 2538 2938 
L 2538 4581 
L 3097 4581 
L 3097 0 
L 2575 0 
z
M 797 1656 
Q 797 1019 1065 703 
Q 1334 388 1700 388 
Q 2069 388 2326 689 
Q 2584 991 2584 1609 
Q 2584 2291 2321 2609 
Q 2059 2928 1675 2928 
Q 1300 2928 1048 2622 
Q 797 2316 797 1656 
z
" transform="scale(0.015625)"/>
       <path id="ArialMT-69" d="M 425 3934 
L 425 4581 
L 988 4581 
L 988 3934 
L 425 3934 
z
M 425 0 
L 425 3319 
L 988 3319 
L 988 0 
L 425 0 
z
" transform="scale(0.015625)"/>
       <path id="ArialMT-6e" d="M 422 0 
L 422 3319 
L 928 3319 
L 928 2847 
Q 1294 3394 1984 3394 
Q 2284 3394 2536 3286 
Q 2788 3178 2913 3003 
Q 3038 2828 3088 2588 
Q 3119 2431 3119 2041 
L 3119 0 
L 2556 0 
L 2556 2019 
Q 2556 2363 2490 2533 
Q 2425 2703 2258 2804 
Q 2091 2906 1866 2906 
Q 1506 2906 1245 2678 
Q 984 2450 984 1813 
L 984 0 
L 422 0 
z
" transform="scale(0.015625)"/>
       <path id="ArialMT-61" d="M 2588 409 
Q 2275 144 1986 34 
Q 1697 -75 1366 -75 
Q 819 -75 525 192 
Q 231 459 231 875 
Q 231 1119 342 1320 
Q 453 1522 633 1644 
Q 813 1766 1038 1828 
Q 1203 1872 1538 1913 
Q 2219 1994 2541 2106 
Q 2544 2222 2544 2253 
Q 2544 2597 2384 2738 
Q 2169 2928 1744 2928 
Q 1347 2928 1158 2789 
Q 969 2650 878 2297 
L 328 2372 
Q 403 2725 575 2942 
Q 747 3159 1072 3276 
Q 1397 3394 1825 3394 
Q 2250 3394 2515 3294 
Q 2781 3194 2906 3042 
Q 3031 2891 3081 2659 
Q 3109 2516 3109 2141 
L 3109 1391 
Q 3109 606 3145 398 
Q 3181 191 3288 0 
L 2700 0 
Q 2613 175 2588 409 
z
M 2541 1666 
Q 2234 1541 1622 1453 
Q 1275 1403 1131 1340 
Q 988 1278 909 1158 
Q 831 1038 831 891 
Q 831 666 1001 516 
Q 1172 366 1500 366 
Q 1825 366 2078 508 
Q 2331 650 2450 897 
Q 2541 1088 2541 1459 
L 2541 1666 
z
" transform="scale(0.015625)"/>
       <path id="ArialMT-74" d="M 1650 503 
L 1731 6 
Q 1494 -44 1306 -44 
Q 1000 -44 831 53 
Q 663 150 594 308 
Q 525 466 525 972 
L 525 2881 
L 113 2881 
L 113 3319 
L 525 3319 
L 525 4141 
L 1084 4478 
L 1084 3319 
L 1650 3319 
L 1650 2881 
L 1084 2881 
L 1084 941 
Q 1084 700 1114 631 
Q 1144 563 1211 522 
Q 1278 481 1403 481 
Q 1497 481 1650 503 
z
" transform="scale(0.015625)"/>
       <path id="ArialMT-65" d="M 2694 1069 
L 3275 997 
Q 3138 488 2766 206 
Q 2394 -75 1816 -75 
Q 1088 -75 661 373 
Q 234 822 234 1631 
Q 234 2469 665 2931 
Q 1097 3394 1784 3394 
Q 2450 3394 2872 2941 
Q 3294 2488 3294 1666 
Q 3294 1616 3291 1516 
L 816 1516 
Q 847 969 1125 678 
Q 1403 388 1819 388 
Q 2128 388 2347 550 
Q 2566 713 2694 1069 
z
M 847 1978 
L 2700 1978 
Q 2663 2397 2488 2606 
Q 2219 2931 1791 2931 
Q 1403 2931 1139 2672 
Q 875 2413 847 1978 
z
" transform="scale(0.015625)"/>
       <path id="ArialMT-20" transform="scale(0.015625)"/>
       <path id="ArialMT-5b" d="M 434 -1272 
L 434 4581 
L 1675 4581 
L 1675 4116 
L 997 4116 
L 997 -806 
L 1675 -806 
L 1675 -1272 
L 434 -1272 
z
" transform="scale(0.015625)"/>
       <path id="ArialMT-6d" d="M 422 0 
L 422 3319 
L 925 3319 
L 925 2853 
Q 1081 3097 1340 3245 
Q 1600 3394 1931 3394 
Q 2300 3394 2536 3241 
Q 2772 3088 2869 2813 
Q 3263 3394 3894 3394 
Q 4388 3394 4653 3120 
Q 4919 2847 4919 2278 
L 4919 0 
L 4359 0 
L 4359 2091 
Q 4359 2428 4304 2576 
Q 4250 2725 4106 2815 
Q 3963 2906 3769 2906 
Q 3419 2906 3187 2673 
Q 2956 2441 2956 1928 
L 2956 0 
L 2394 0 
L 2394 2156 
Q 2394 2531 2256 2718 
Q 2119 2906 1806 2906 
Q 1569 2906 1367 2781 
Q 1166 2656 1075 2415 
Q 984 2175 984 1722 
L 984 0 
L 422 0 
z
" transform="scale(0.015625)"/>
       <path id="ArialMT-5d" d="M 1363 -1272 
L 122 -1272 
L 122 -806 
L 800 -806 
L 800 4116 
L 122 4116 
L 122 4581 
L 1363 4581 
L 1363 -1272 
z
" transform="scale(0.015625)"/>
      </defs>
      <use xlink:href="#ArialMT-58"/>
      <use xlink:href="#ArialMT-2d" x="66.699219"/>
      <use xlink:href="#ArialMT-43" x="100"/>
      <use xlink:href="#ArialMT-6f" x="172.216797"/>
      <use xlink:href="#ArialMT-6f" x="227.832031"/>
      <use xlink:href="#ArialMT-72" x="283.447266"/>
      <use xlink:href="#ArialMT-64" x="316.748047"/>
      <use xlink:href="#ArialMT-69" x="372.363281"/>
      <use xlink:href="#ArialMT-6e" x="394.580078"/>
      <use xlink:href="#ArialMT-61" x="450.195312"/>
      <use xlink:href="#ArialMT-74" x="505.810547"/>
      <use xlink:href="#ArialMT-65" x="533.59375"/>
      <use xlink:href="#ArialMT-20" x="589.208984"/>
      <use xlink:href="#ArialMT-5b" x="616.992188"/>
      <use xlink:href="#ArialMT-6d" x="644.775391"/>
      <use xlink:href="#ArialMT-5d" x="728.076172"/>
     </g>
    </g>
   </g>
   <g id="matplotlib.axis_2">
    <g id="ytick_1">
     <g id="line2d_26">
      <path d="M 55.67625 273.147847 
L 328.94 273.147847 
" clip-path="url(#p96bcd7716f)" style="fill: none; stroke: #ffffff; stroke-linecap: round"/>
     </g>
     <g id="text_27">
      <!-- 0 -->
      <g style="fill: #262626" transform="translate(40.059219 277.084644)scale(0.11 -0.11)">
       <use xlink:href="#ArialMT-30"/>
      </g>
     </g>
    </g>
    <g id="ytick_2">
     <g id="line2d_27">
      <path d="M 55.67625 273.147847 
L 328.94 273.147847 
" clip-path="url(#p96bcd7716f)" style="fill: none; stroke: #ffffff; stroke-linecap: round"/>
     </g>
     <g id="text_28">
      <!-- 0 -->
      <g style="fill: #262626" transform="translate(40.059219 277.084644)scale(0.11 -0.11)">
       <use xlink:href="#ArialMT-30"/>
      </g>
     </g>
    </g>
    <g id="ytick_3">
     <g id="line2d_28">
      <path d="M 55.67625 273.147847 
L 328.94 273.147847 
" clip-path="url(#p96bcd7716f)" style="fill: none; stroke: #ffffff; stroke-linecap: round"/>
     </g>
     <g id="text_29">
      <!-- 0 -->
      <g style="fill: #262626" transform="translate(40.059219 277.084644)scale(0.11 -0.11)">
       <use xlink:href="#ArialMT-30"/>
      </g>
     </g>
    </g>
    <g id="ytick_4">
     <g id="line2d_29">
      <path d="M 55.67625 273.147847 
L 328.94 273.147847 
" clip-path="url(#p96bcd7716f)" style="fill: none; stroke: #ffffff; stroke-linecap: round"/>
     </g>
     <g id="text_30">
      <!-- 0 -->
      <g style="fill: #262626" transform="translate(40.059219 277.084644)scale(0.11 -0.11)">
       <use xlink:href="#ArialMT-30"/>
      </g>
     </g>
    </g>
    <g id="ytick_5">
     <g id="line2d_30">
      <path d="M 55.67625 273.147847 
L 328.94 273.147847 
" clip-path="url(#p96bcd7716f)" style="fill: none; stroke: #ffffff; stroke-linecap: round"/>
     </g>
     <g id="text_31">
      <!-- 0 -->
      <g style="fill: #262626" transform="translate(40.059219 277.084644)scale(0.11 -0.11)">
       <use xlink:href="#ArialMT-30"/>
      </g>
     </g>
    </g>
    <g id="ytick_6">
     <g id="line2d_31">
      <path d="M 55.67625 218.024861 
L 328.94 218.024861 
" clip-path="url(#p96bcd7716f)" style="fill: none; stroke: #ffffff; stroke-linecap: round"/>
     </g>
     <g id="text_32">
      <!-- 110 -->
      <g style="fill: #262626" transform="translate(28.636406 221.961658)scale(0.11 -0.11)">
       <use xlink:href="#ArialMT-31"/>
       <use xlink:href="#ArialMT-31" x="48.240234"/>
       <use xlink:href="#ArialMT-30" x="103.855469"/>
      </g>
     </g>
    </g>
    <g id="ytick_7">
     <g id="line2d_32">
      <path d="M 55.67625 218.024861 
L 328.94 218.024861 
" clip-path="url(#p96bcd7716f)" style="fill: none; stroke: #ffffff; stroke-linecap: round"/>
     </g>
     <g id="text_33">
      <!-- 110 -->
      <g style="fill: #262626" transform="translate(28.636406 221.961658)scale(0.11 -0.11)">
       <use xlink:href="#ArialMT-31"/>
       <use xlink:href="#ArialMT-31" x="48.240234"/>
       <use xlink:href="#ArialMT-30" x="103.855469"/>
      </g>
     </g>
    </g>
    <g id="ytick_8">
     <g id="line2d_33">
      <path d="M 55.67625 218.024861 
L 328.94 218.024861 
" clip-path="url(#p96bcd7716f)" style="fill: none; stroke: #ffffff; stroke-linecap: round"/>
     </g>
     <g id="text_34">
      <!-- 110 -->
      <g style="fill: #262626" transform="translate(28.636406 221.961658)scale(0.11 -0.11)">
       <use xlink:href="#ArialMT-31"/>
       <use xlink:href="#ArialMT-31" x="48.240234"/>
       <use xlink:href="#ArialMT-30" x="103.855469"/>
      </g>
     </g>
    </g>
    <g id="ytick_9">
     <g id="line2d_34">
      <path d="M 55.67625 218.024861 
L 328.94 218.024861 
" clip-path="url(#p96bcd7716f)" style="fill: none; stroke: #ffffff; stroke-linecap: round"/>
     </g>
     <g id="text_35">
      <!-- 110 -->
      <g style="fill: #262626" transform="translate(28.636406 221.961658)scale(0.11 -0.11)">
       <use xlink:href="#ArialMT-31"/>
       <use xlink:href="#ArialMT-31" x="48.240234"/>
       <use xlink:href="#ArialMT-30" x="103.855469"/>
      </g>
     </g>
    </g>
    <g id="ytick_10">
     <g id="line2d_35">
      <path d="M 55.67625 218.024861 
L 328.94 218.024861 
" clip-path="url(#p96bcd7716f)" style="fill: none; stroke: #ffffff; stroke-linecap: round"/>
     </g>
     <g id="text_36">
      <!-- 110 -->
      <g style="fill: #262626" transform="translate(28.636406 221.961658)scale(0.11 -0.11)">
       <use xlink:href="#ArialMT-31"/>
       <use xlink:href="#ArialMT-31" x="48.240234"/>
       <use xlink:href="#ArialMT-30" x="103.855469"/>
      </g>
     </g>
    </g>
    <g id="ytick_11">
     <g id="line2d_36">
      <path d="M 55.67625 162.901875 
L 328.94 162.901875 
" clip-path="url(#p96bcd7716f)" style="fill: none; stroke: #ffffff; stroke-linecap: round"/>
     </g>
     <g id="text_37">
      <!-- 220 -->
      <g style="fill: #262626" transform="translate(27.825156 166.838672)scale(0.11 -0.11)">
       <use xlink:href="#ArialMT-32"/>
       <use xlink:href="#ArialMT-32" x="55.615234"/>
       <use xlink:href="#ArialMT-30" x="111.230469"/>
      </g>
     </g>
    </g>
    <g id="ytick_12">
     <g id="line2d_37">
      <path d="M 55.67625 162.901875 
L 328.94 162.901875 
" clip-path="url(#p96bcd7716f)" style="fill: none; stroke: #ffffff; stroke-linecap: round"/>
     </g>
     <g id="text_38">
      <!-- 220 -->
      <g style="fill: #262626" transform="translate(27.825156 166.838672)scale(0.11 -0.11)">
       <use xlink:href="#ArialMT-32"/>
       <use xlink:href="#ArialMT-32" x="55.615234"/>
       <use xlink:href="#ArialMT-30" x="111.230469"/>
      </g>
     </g>
    </g>
    <g id="ytick_13">
     <g id="line2d_38">
      <path d="M 55.67625 162.901875 
L 328.94 162.901875 
" clip-path="url(#p96bcd7716f)" style="fill: none; stroke: #ffffff; stroke-linecap: round"/>
     </g>
     <g id="text_39">
      <!-- 220 -->
      <g style="fill: #262626" transform="translate(27.825156 166.838672)scale(0.11 -0.11)">
       <use xlink:href="#ArialMT-32"/>
       <use xlink:href="#ArialMT-32" x="55.615234"/>
       <use xlink:href="#ArialMT-30" x="111.230469"/>
      </g>
     </g>
    </g>
    <g id="ytick_14">
     <g id="line2d_39">
      <path d="M 55.67625 162.901875 
L 328.94 162.901875 
" clip-path="url(#p96bcd7716f)" style="fill: none; stroke: #ffffff; stroke-linecap: round"/>
     </g>
     <g id="text_40">
      <!-- 220 -->
      <g style="fill: #262626" transform="translate(27.825156 166.838672)scale(0.11 -0.11)">
       <use xlink:href="#ArialMT-32"/>
       <use xlink:href="#ArialMT-32" x="55.615234"/>
       <use xlink:href="#ArialMT-30" x="111.230469"/>
      </g>
     </g>
    </g>
    <g id="ytick_15">
     <g id="line2d_40">
      <path d="M 55.67625 162.901875 
L 328.94 162.901875 
" clip-path="url(#p96bcd7716f)" style="fill: none; stroke: #ffffff; stroke-linecap: round"/>
     </g>
     <g id="text_41">
      <!-- 220 -->
      <g style="fill: #262626" transform="translate(27.825156 166.838672)scale(0.11 -0.11)">
       <use xlink:href="#ArialMT-32"/>
       <use xlink:href="#ArialMT-32" x="55.615234"/>
       <use xlink:href="#ArialMT-30" x="111.230469"/>
      </g>
     </g>
    </g>
    <g id="ytick_16">
     <g id="line2d_41">
      <path d="M 55.67625 107.778889 
L 328.94 107.778889 
" clip-path="url(#p96bcd7716f)" style="fill: none; stroke: #ffffff; stroke-linecap: round"/>
     </g>
     <g id="text_42">
      <!-- 330 -->
      <g style="fill: #262626" transform="translate(27.825156 111.715686)scale(0.11 -0.11)">
       <use xlink:href="#ArialMT-33"/>
       <use xlink:href="#ArialMT-33" x="55.615234"/>
       <use xlink:href="#ArialMT-30" x="111.230469"/>
      </g>
     </g>
    </g>
    <g id="ytick_17">
     <g id="line2d_42">
      <path d="M 55.67625 107.778889 
L 328.94 107.778889 
" clip-path="url(#p96bcd7716f)" style="fill: none; stroke: #ffffff; stroke-linecap: round"/>
     </g>
     <g id="text_43">
      <!-- 330 -->
      <g style="fill: #262626" transform="translate(27.825156 111.715686)scale(0.11 -0.11)">
       <use xlink:href="#ArialMT-33"/>
       <use xlink:href="#ArialMT-33" x="55.615234"/>
       <use xlink:href="#ArialMT-30" x="111.230469"/>
      </g>
     </g>
    </g>
    <g id="ytick_18">
     <g id="line2d_43">
      <path d="M 55.67625 107.778889 
L 328.94 107.778889 
" clip-path="url(#p96bcd7716f)" style="fill: none; stroke: #ffffff; stroke-linecap: round"/>
     </g>
     <g id="text_44">
      <!-- 330 -->
      <g style="fill: #262626" transform="translate(27.825156 111.715686)scale(0.11 -0.11)">
       <use xlink:href="#ArialMT-33"/>
       <use xlink:href="#ArialMT-33" x="55.615234"/>
       <use xlink:href="#ArialMT-30" x="111.230469"/>
      </g>
     </g>
    </g>
    <g id="ytick_19">
     <g id="line2d_44">
      <path d="M 55.67625 107.778889 
L 328.94 107.778889 
" clip-path="url(#p96bcd7716f)" style="fill: none; stroke: #ffffff; stroke-linecap: round"/>
     </g>
     <g id="text_45">
      <!-- 330 -->
      <g style="fill: #262626" transform="translate(27.825156 111.715686)scale(0.11 -0.11)">
       <use xlink:href="#ArialMT-33"/>
       <use xlink:href="#ArialMT-33" x="55.615234"/>
       <use xlink:href="#ArialMT-30" x="111.230469"/>
      </g>
     </g>
    </g>
    <g id="ytick_20">
     <g id="line2d_45">
      <path d="M 55.67625 107.778889 
L 328.94 107.778889 
" clip-path="url(#p96bcd7716f)" style="fill: none; stroke: #ffffff; stroke-linecap: round"/>
     </g>
     <g id="text_46">
      <!-- 330 -->
      <g style="fill: #262626" transform="translate(27.825156 111.715686)scale(0.11 -0.11)">
       <use xlink:href="#ArialMT-33"/>
       <use xlink:href="#ArialMT-33" x="55.615234"/>
       <use xlink:href="#ArialMT-30" x="111.230469"/>
      </g>
     </g>
    </g>
    <g id="ytick_21">
     <g id="line2d_46">
      <path d="M 55.67625 52.655903 
L 328.94 52.655903 
" clip-path="url(#p96bcd7716f)" style="fill: none; stroke: #ffffff; stroke-linecap: round"/>
     </g>
     <g id="text_47">
      <!-- 440 -->
      <g style="fill: #262626" transform="translate(27.825156 56.5927)scale(0.11 -0.11)">
       <use xlink:href="#ArialMT-34"/>
       <use xlink:href="#ArialMT-34" x="55.615234"/>
       <use xlink:href="#ArialMT-30" x="111.230469"/>
      </g>
     </g>
    </g>
    <g id="ytick_22">
     <g id="line2d_47">
      <path d="M 55.67625 52.655903 
L 328.94 52.655903 
" clip-path="url(#p96bcd7716f)" style="fill: none; stroke: #ffffff; stroke-linecap: round"/>
     </g>
     <g id="text_48">
      <!-- 440 -->
      <g style="fill: #262626" transform="translate(27.825156 56.5927)scale(0.11 -0.11)">
       <use xlink:href="#ArialMT-34"/>
       <use xlink:href="#ArialMT-34" x="55.615234"/>
       <use xlink:href="#ArialMT-30" x="111.230469"/>
      </g>
     </g>
    </g>
    <g id="ytick_23">
     <g id="line2d_48">
      <path d="M 55.67625 52.655903 
L 328.94 52.655903 
" clip-path="url(#p96bcd7716f)" style="fill: none; stroke: #ffffff; stroke-linecap: round"/>
     </g>
     <g id="text_49">
      <!-- 440 -->
      <g style="fill: #262626" transform="translate(27.825156 56.5927)scale(0.11 -0.11)">
       <use xlink:href="#ArialMT-34"/>
       <use xlink:href="#ArialMT-34" x="55.615234"/>
       <use xlink:href="#ArialMT-30" x="111.230469"/>
      </g>
     </g>
    </g>
    <g id="ytick_24">
     <g id="line2d_49">
      <path d="M 55.67625 52.655903 
L 328.94 52.655903 
" clip-path="url(#p96bcd7716f)" style="fill: none; stroke: #ffffff; stroke-linecap: round"/>
     </g>
     <g id="text_50">
      <!-- 440 -->
      <g style="fill: #262626" transform="translate(27.825156 56.5927)scale(0.11 -0.11)">
       <use xlink:href="#ArialMT-34"/>
       <use xlink:href="#ArialMT-34" x="55.615234"/>
       <use xlink:href="#ArialMT-30" x="111.230469"/>
      </g>
     </g>
    </g>
    <g id="ytick_25">
     <g id="line2d_50">
      <path d="M 55.67625 52.655903 
L 328.94 52.655903 
" clip-path="url(#p96bcd7716f)" style="fill: none; stroke: #ffffff; stroke-linecap: round"/>
     </g>
     <g id="text_51">
      <!-- 440 -->
      <g style="fill: #262626" transform="translate(27.825156 56.5927)scale(0.11 -0.11)">
       <use xlink:href="#ArialMT-34"/>
       <use xlink:href="#ArialMT-34" x="55.615234"/>
       <use xlink:href="#ArialMT-30" x="111.230469"/>
      </g>
     </g>
    </g>
    <g id="text_52">
     <!-- Y-Coordinate [m] -->
     <g style="fill: #262626" transform="translate(21.440156 207.703125)rotate(-90)scale(0.12 -0.12)">
      <defs>
       <path id="ArialMT-59" d="M 1784 0 
L 1784 1941 
L 19 4581 
L 756 4581 
L 1659 3200 
Q 1909 2813 2125 2425 
Q 2331 2784 2625 3234 
L 3513 4581 
L 4219 4581 
L 2391 1941 
L 2391 0 
L 1784 0 
z
" transform="scale(0.015625)"/>
      </defs>
      <use xlink:href="#ArialMT-59"/>
      <use xlink:href="#ArialMT-2d" x="57.574219"/>
      <use xlink:href="#ArialMT-43" x="90.875"/>
      <use xlink:href="#ArialMT-6f" x="163.091797"/>
      <use xlink:href="#ArialMT-6f" x="218.707031"/>
      <use xlink:href="#ArialMT-72" x="274.322266"/>
      <use xlink:href="#ArialMT-64" x="307.623047"/>
      <use xlink:href="#ArialMT-69" x="363.238281"/>
      <use xlink:href="#ArialMT-6e" x="385.455078"/>
      <use xlink:href="#ArialMT-61" x="441.070312"/>
      <use xlink:href="#ArialMT-74" x="496.685547"/>
      <use xlink:href="#ArialMT-65" x="524.46875"/>
      <use xlink:href="#ArialMT-20" x="580.083984"/>
      <use xlink:href="#ArialMT-5b" x="607.867188"/>
      <use xlink:href="#ArialMT-6d" x="635.650391"/>
      <use xlink:href="#ArialMT-5d" x="718.951172"/>
     </g>
    </g>
   </g>
   <g id="PathCollection_1">
    <path d="M 80.978449 276.683381 
C 81.916084 276.683381 82.815441 276.310855 83.478449 275.647847 
C 84.141457 274.984839 84.513983 274.085482 84.513983 273.147847 
C 84.513983 272.210213 84.141457 271.310855 83.478449 270.647847 
C 82.815441 269.984839 81.916084 269.612313 80.978449 269.612313 
C 80.040815 269.612313 79.141457 269.984839 78.478449 270.647847 
C 77.815441 271.310855 77.442915 272.210213 77.442915 273.147847 
C 77.442915 274.085482 77.815441 274.984839 78.478449 275.647847 
C 79.141457 276.310855 80.040815 276.683381 80.978449 276.683381 
z
" clip-path="url(#p96bcd7716f)" style="fill: #242629"/>
    <path d="M 136.643287 276.683381 
C 137.580922 276.683381 138.480279 276.310855 139.143287 275.647847 
C 139.806295 274.984839 140.178821 274.085482 140.178821 273.147847 
C 140.178821 272.210213 139.806295 271.310855 139.143287 270.647847 
C 138.480279 269.984839 137.580922 269.612313 136.643287 269.612313 
C 135.705652 269.612313 134.806295 269.984839 134.143287 270.647847 
C 133.480279 271.310855 133.107753 272.210213 133.107753 273.147847 
C 133.107753 274.085482 133.480279 274.984839 134.143287 275.647847 
C 134.806295 276.310855 135.705652 276.683381 136.643287 276.683381 
z
" clip-path="url(#p96bcd7716f)" style="fill: #242629"/>
    <path d="M 192.308125 276.683381 
C 193.24576 276.683381 194.145117 276.310855 194.808125 275.647847 
C 195.471133 274.984839 195.843659 274.085482 195.843659 273.147847 
C 195.843659 272.210213 195.471133 271.310855 194.808125 270.647847 
C 194.145117 269.984839 193.24576 269.612313 192.308125 269.612313 
C 191.37049 269.612313 190.471133 269.984839 189.808125 270.647847 
C 189.145117 271.310855 188.772591 272.210213 188.772591 273.147847 
C 188.772591 274.085482 189.145117 274.984839 189.808125 275.647847 
C 190.471133 276.310855 191.37049 276.683381 192.308125 276.683381 
z
" clip-path="url(#p96bcd7716f)" style="fill: #242629"/>
    <path d="M 247.972963 276.683381 
C 248.910598 276.683381 249.809955 276.310855 250.472963 275.647847 
C 251.135971 274.984839 251.508497 274.085482 251.508497 273.147847 
C 251.508497 272.210213 251.135971 271.310855 250.472963 270.647847 
C 249.809955 269.984839 248.910598 269.612313 247.972963 269.612313 
C 247.035328 269.612313 246.135971 269.984839 245.472963 270.647847 
C 244.809955 271.310855 244.437429 272.210213 244.437429 273.147847 
C 244.437429 274.085482 244.809955 274.984839 245.472963 275.647847 
C 246.135971 276.310855 247.035328 276.683381 247.972963 276.683381 
z
" clip-path="url(#p96bcd7716f)" style="fill: #242629"/>
    <path d="M 303.637801 276.683381 
C 304.575435 276.683381 305.474793 276.310855 306.137801 275.647847 
C 306.800809 274.984839 307.173335 274.085482 307.173335 273.147847 
C 307.173335 272.210213 306.800809 271.310855 306.137801 270.647847 
C 305.474793 269.984839 304.575435 269.612313 303.637801 269.612313 
C 302.700166 269.612313 301.800809 269.984839 301.137801 270.647847 
C 300.474793 271.310855 300.102267 272.210213 300.102267 273.147847 
C 300.102267 274.085482 300.474793 274.984839 301.137801 275.647847 
C 301.800809 276.310855 302.700166 276.683381 303.637801 276.683381 
z
" clip-path="url(#p96bcd7716f)" style="fill: #242629"/>
    <path d="M 80.978449 221.560395 
C 81.916084 221.560395 82.815441 221.187869 83.478449 220.524861 
C 84.141457 219.861853 84.513983 218.962496 84.513983 218.024861 
C 84.513983 217.087227 84.141457 216.187869 83.478449 215.524861 
C 82.815441 214.861853 81.916084 214.489327 80.978449 214.489327 
C 80.040815 214.489327 79.141457 214.861853 78.478449 215.524861 
C 77.815441 216.187869 77.442915 217.087227 77.442915 218.024861 
C 77.442915 218.962496 77.815441 219.861853 78.478449 220.524861 
C 79.141457 221.187869 80.040815 221.560395 80.978449 221.560395 
z
" clip-path="url(#p96bcd7716f)" style="fill: #242629"/>
    <path d="M 136.643287 221.560395 
C 137.580922 221.560395 138.480279 221.187869 139.143287 220.524861 
C 139.806295 219.861853 140.178821 218.962496 140.178821 218.024861 
C 140.178821 217.087227 139.806295 216.187869 139.143287 215.524861 
C 138.480279 214.861853 137.580922 214.489327 136.643287 214.489327 
C 135.705652 214.489327 134.806295 214.861853 134.143287 215.524861 
C 133.480279 216.187869 133.107753 217.087227 133.107753 218.024861 
C 133.107753 218.962496 133.480279 219.861853 134.143287 220.524861 
C 134.806295 221.187869 135.705652 221.560395 136.643287 221.560395 
z
" clip-path="url(#p96bcd7716f)" style="fill: #242629"/>
    <path d="M 192.308125 221.560395 
C 193.24576 221.560395 194.145117 221.187869 194.808125 220.524861 
C 195.471133 219.861853 195.843659 218.962496 195.843659 218.024861 
C 195.843659 217.087227 195.471133 216.187869 194.808125 215.524861 
C 194.145117 214.861853 193.24576 214.489327 192.308125 214.489327 
C 191.37049 214.489327 190.471133 214.861853 189.808125 215.524861 
C 189.145117 216.187869 188.772591 217.087227 188.772591 218.024861 
C 188.772591 218.962496 189.145117 219.861853 189.808125 220.524861 
C 190.471133 221.187869 191.37049 221.560395 192.308125 221.560395 
z
" clip-path="url(#p96bcd7716f)" style="fill: #242629"/>
    <path d="M 247.972963 221.560395 
C 248.910598 221.560395 249.809955 221.187869 250.472963 220.524861 
C 251.135971 219.861853 251.508497 218.962496 251.508497 218.024861 
C 251.508497 217.087227 251.135971 216.187869 250.472963 215.524861 
C 249.809955 214.861853 248.910598 214.489327 247.972963 214.489327 
C 247.035328 214.489327 246.135971 214.861853 245.472963 215.524861 
C 244.809955 216.187869 244.437429 217.087227 244.437429 218.024861 
C 244.437429 218.962496 244.809955 219.861853 245.472963 220.524861 
C 246.135971 221.187869 247.035328 221.560395 247.972963 221.560395 
z
" clip-path="url(#p96bcd7716f)" style="fill: #242629"/>
    <path d="M 303.637801 221.560395 
C 304.575435 221.560395 305.474793 221.187869 306.137801 220.524861 
C 306.800809 219.861853 307.173335 218.962496 307.173335 218.024861 
C 307.173335 217.087227 306.800809 216.187869 306.137801 215.524861 
C 305.474793 214.861853 304.575435 214.489327 303.637801 214.489327 
C 302.700166 214.489327 301.800809 214.861853 301.137801 215.524861 
C 300.474793 216.187869 300.102267 217.087227 300.102267 218.024861 
C 300.102267 218.962496 300.474793 219.861853 301.137801 220.524861 
C 301.800809 221.187869 302.700166 221.560395 303.637801 221.560395 
z
" clip-path="url(#p96bcd7716f)" style="fill: #242629"/>
    <path d="M 80.978449 166.437409 
C 81.916084 166.437409 82.815441 166.064883 83.478449 165.401875 
C 84.141457 164.738867 84.513983 163.83951 84.513983 162.901875 
C 84.513983 161.96424 84.141457 161.064883 83.478449 160.401875 
C 82.815441 159.738867 81.916084 159.366341 80.978449 159.366341 
C 80.040815 159.366341 79.141457 159.738867 78.478449 160.401875 
C 77.815441 161.064883 77.442915 161.96424 77.442915 162.901875 
C 77.442915 163.83951 77.815441 164.738867 78.478449 165.401875 
C 79.141457 166.064883 80.040815 166.437409 80.978449 166.437409 
z
" clip-path="url(#p96bcd7716f)" style="fill: #242629"/>
    <path d="M 136.643287 166.437409 
C 137.580922 166.437409 138.480279 166.064883 139.143287 165.401875 
C 139.806295 164.738867 140.178821 163.83951 140.178821 162.901875 
C 140.178821 161.96424 139.806295 161.064883 139.143287 160.401875 
C 138.480279 159.738867 137.580922 159.366341 136.643287 159.366341 
C 135.705652 159.366341 134.806295 159.738867 134.143287 160.401875 
C 133.480279 161.064883 133.107753 161.96424 133.107753 162.901875 
C 133.107753 163.83951 133.480279 164.738867 134.143287 165.401875 
C 134.806295 166.064883 135.705652 166.437409 136.643287 166.437409 
z
" clip-path="url(#p96bcd7716f)" style="fill: #242629"/>
    <path d="M 192.308125 166.437409 
C 193.24576 166.437409 194.145117 166.064883 194.808125 165.401875 
C 195.471133 164.738867 195.843659 163.83951 195.843659 162.901875 
C 195.843659 161.96424 195.471133 161.064883 194.808125 160.401875 
C 194.145117 159.738867 193.24576 159.366341 192.308125 159.366341 
C 191.37049 159.366341 190.471133 159.738867 189.808125 160.401875 
C 189.145117 161.064883 188.772591 161.96424 188.772591 162.901875 
C 188.772591 163.83951 189.145117 164.738867 189.808125 165.401875 
C 190.471133 166.064883 191.37049 166.437409 192.308125 166.437409 
z
" clip-path="url(#p96bcd7716f)" style="fill: #242629"/>
    <path d="M 247.972963 166.437409 
C 248.910598 166.437409 249.809955 166.064883 250.472963 165.401875 
C 251.135971 164.738867 251.508497 163.83951 251.508497 162.901875 
C 251.508497 161.96424 251.135971 161.064883 250.472963 160.401875 
C 249.809955 159.738867 248.910598 159.366341 247.972963 159.366341 
C 247.035328 159.366341 246.135971 159.738867 245.472963 160.401875 
C 244.809955 161.064883 244.437429 161.96424 244.437429 162.901875 
C 244.437429 163.83951 244.809955 164.738867 245.472963 165.401875 
C 246.135971 166.064883 247.035328 166.437409 247.972963 166.437409 
z
" clip-path="url(#p96bcd7716f)" style="fill: #242629"/>
    <path d="M 303.637801 166.437409 
C 304.575435 166.437409 305.474793 166.064883 306.137801 165.401875 
C 306.800809 164.738867 307.173335 163.83951 307.173335 162.901875 
C 307.173335 161.96424 306.800809 161.064883 306.137801 160.401875 
C 305.474793 159.738867 304.575435 159.366341 303.637801 159.366341 
C 302.700166 159.366341 301.800809 159.738867 301.137801 160.401875 
C 300.474793 161.064883 300.102267 161.96424 300.102267 162.901875 
C 300.102267 163.83951 300.474793 164.738867 301.137801 165.401875 
C 301.800809 166.064883 302.700166 166.437409 303.637801 166.437409 
z
" clip-path="url(#p96bcd7716f)" style="fill: #242629"/>
    <path d="M 80.978449 111.314423 
C 81.916084 111.314423 82.815441 110.941897 83.478449 110.278889 
C 84.141457 109.615881 84.513983 108.716523 84.513983 107.778889 
C 84.513983 106.841254 84.141457 105.941897 83.478449 105.278889 
C 82.815441 104.615881 81.916084 104.243355 80.978449 104.243355 
C 80.040815 104.243355 79.141457 104.615881 78.478449 105.278889 
C 77.815441 105.941897 77.442915 106.841254 77.442915 107.778889 
C 77.442915 108.716523 77.815441 109.615881 78.478449 110.278889 
C 79.141457 110.941897 80.040815 111.314423 80.978449 111.314423 
z
" clip-path="url(#p96bcd7716f)" style="fill: #242629"/>
    <path d="M 136.643287 111.314423 
C 137.580922 111.314423 138.480279 110.941897 139.143287 110.278889 
C 139.806295 109.615881 140.178821 108.716523 140.178821 107.778889 
C 140.178821 106.841254 139.806295 105.941897 139.143287 105.278889 
C 138.480279 104.615881 137.580922 104.243355 136.643287 104.243355 
C 135.705652 104.243355 134.806295 104.615881 134.143287 105.278889 
C 133.480279 105.941897 133.107753 106.841254 133.107753 107.778889 
C 133.107753 108.716523 133.480279 109.615881 134.143287 110.278889 
C 134.806295 110.941897 135.705652 111.314423 136.643287 111.314423 
z
" clip-path="url(#p96bcd7716f)" style="fill: #242629"/>
    <path d="M 192.308125 111.314423 
C 193.24576 111.314423 194.145117 110.941897 194.808125 110.278889 
C 195.471133 109.615881 195.843659 108.716523 195.843659 107.778889 
C 195.843659 106.841254 195.471133 105.941897 194.808125 105.278889 
C 194.145117 104.615881 193.24576 104.243355 192.308125 104.243355 
C 191.37049 104.243355 190.471133 104.615881 189.808125 105.278889 
C 189.145117 105.941897 188.772591 106.841254 188.772591 107.778889 
C 188.772591 108.716523 189.145117 109.615881 189.808125 110.278889 
C 190.471133 110.941897 191.37049 111.314423 192.308125 111.314423 
z
" clip-path="url(#p96bcd7716f)" style="fill: #242629"/>
    <path d="M 247.972963 111.314423 
C 248.910598 111.314423 249.809955 110.941897 250.472963 110.278889 
C 251.135971 109.615881 251.508497 108.716523 251.508497 107.778889 
C 251.508497 106.841254 251.135971 105.941897 250.472963 105.278889 
C 249.809955 104.615881 248.910598 104.243355 247.972963 104.243355 
C 247.035328 104.243355 246.135971 104.615881 245.472963 105.278889 
C 244.809955 105.941897 244.437429 106.841254 244.437429 107.778889 
C 244.437429 108.716523 244.809955 109.615881 245.472963 110.278889 
C 246.135971 110.941897 247.035328 111.314423 247.972963 111.314423 
z
" clip-path="url(#p96bcd7716f)" style="fill: #242629"/>
    <path d="M 303.637801 111.314423 
C 304.575435 111.314423 305.474793 110.941897 306.137801 110.278889 
C 306.800809 109.615881 307.173335 108.716523 307.173335 107.778889 
C 307.173335 106.841254 306.800809 105.941897 306.137801 105.278889 
C 305.474793 104.615881 304.575435 104.243355 303.637801 104.243355 
C 302.700166 104.243355 301.800809 104.615881 301.137801 105.278889 
C 300.474793 105.941897 300.102267 106.841254 300.102267 107.778889 
C 300.102267 108.716523 300.474793 109.615881 301.137801 110.278889 
C 301.800809 110.941897 302.700166 111.314423 303.637801 111.314423 
z
" clip-path="url(#p96bcd7716f)" style="fill: #242629"/>
    <path d="M 80.978449 56.191437 
C 81.916084 56.191437 82.815441 55.818911 83.478449 55.155903 
C 84.141457 54.492895 84.513983 53.593537 84.513983 52.655903 
C 84.513983 51.718268 84.141457 50.818911 83.478449 50.155903 
C 82.815441 49.492895 81.916084 49.120369 80.978449 49.120369 
C 80.040815 49.120369 79.141457 49.492895 78.478449 50.155903 
C 77.815441 50.818911 77.442915 51.718268 77.442915 52.655903 
C 77.442915 53.593537 77.815441 54.492895 78.478449 55.155903 
C 79.141457 55.818911 80.040815 56.191437 80.978449 56.191437 
z
" clip-path="url(#p96bcd7716f)" style="fill: #242629"/>
    <path d="M 136.643287 56.191437 
C 137.580922 56.191437 138.480279 55.818911 139.143287 55.155903 
C 139.806295 54.492895 140.178821 53.593537 140.178821 52.655903 
C 140.178821 51.718268 139.806295 50.818911 139.143287 50.155903 
C 138.480279 49.492895 137.580922 49.120369 136.643287 49.120369 
C 135.705652 49.120369 134.806295 49.492895 134.143287 50.155903 
C 133.480279 50.818911 133.107753 51.718268 133.107753 52.655903 
C 133.107753 53.593537 133.480279 54.492895 134.143287 55.155903 
C 134.806295 55.818911 135.705652 56.191437 136.643287 56.191437 
z
" clip-path="url(#p96bcd7716f)" style="fill: #242629"/>
    <path d="M 192.308125 56.191437 
C 193.24576 56.191437 194.145117 55.818911 194.808125 55.155903 
C 195.471133 54.492895 195.843659 53.593537 195.843659 52.655903 
C 195.843659 51.718268 195.471133 50.818911 194.808125 50.155903 
C 194.145117 49.492895 193.24576 49.120369 192.308125 49.120369 
C 191.37049 49.120369 190.471133 49.492895 189.808125 50.155903 
C 189.145117 50.818911 188.772591 51.718268 188.772591 52.655903 
C 188.772591 53.593537 189.145117 54.492895 189.808125 55.155903 
C 190.471133 55.818911 191.37049 56.191437 192.308125 56.191437 
z
" clip-path="url(#p96bcd7716f)" style="fill: #242629"/>
    <path d="M 247.972963 56.191437 
C 248.910598 56.191437 249.809955 55.818911 250.472963 55.155903 
C 251.135971 54.492895 251.508497 53.593537 251.508497 52.655903 
C 251.508497 51.718268 251.135971 50.818911 250.472963 50.155903 
C 249.809955 49.492895 248.910598 49.120369 247.972963 49.120369 
C 247.035328 49.120369 246.135971 49.492895 245.472963 50.155903 
C 244.809955 50.818911 244.437429 51.718268 244.437429 52.655903 
C 244.437429 53.593537 244.809955 54.492895 245.472963 55.155903 
C 246.135971 55.818911 247.035328 56.191437 247.972963 56.191437 
z
" clip-path="url(#p96bcd7716f)" style="fill: #242629"/>
    <path d="M 303.637801 56.191437 
C 304.575435 56.191437 305.474793 55.818911 306.137801 55.155903 
C 306.800809 54.492895 307.173335 53.593537 307.173335 52.655903 
C 307.173335 51.718268 306.800809 50.818911 306.137801 50.155903 
C 305.474793 49.492895 304.575435 49.120369 303.637801 49.120369 
C 302.700166 49.120369 301.800809 49.492895 301.137801 50.155903 
C 300.474793 50.818911 300.102267 51.718268 300.102267 52.655903 
C 300.102267 53.593537 300.474793 54.492895 301.137801 55.155903 
C 301.800809 55.818911 302.700166 56.191437 303.637801 56.191437 
z
" clip-path="url(#p96bcd7716f)" style="fill: #242629"/>
   </g>
   <g id="PathCollection_2"/>
   <g id="PathCollection_3"/>
   <g id="PathCollection_4"/>
   <g id="PathCollection_5"/>
   <g id="PathCollection_6"/>
   <g id="PathCollection_7"/>
   <g id="PathCollection_8"/>
   <g id="PathCollection_9"/>
   <g id="PathCollection_10">
    <path d="M 164.475706 165.023195 
C 165.038287 165.023195 165.577901 164.79968 165.975706 164.401875 
C 166.373511 164.00407 166.597026 163.464456 166.597026 162.901875 
C 166.597026 162.339294 166.373511 161.79968 165.975706 161.401875 
C 165.577901 161.00407 165.038287 160.780555 164.475706 160.780555 
C 163.913125 160.780555 163.373511 161.00407 162.975706 161.401875 
C 162.577901 161.79968 162.354386 162.339294 162.354386 162.901875 
C 162.354386 163.464456 162.577901 164.00407 162.975706 164.401875 
C 163.373511 164.79968 163.913125 165.023195 164.475706 165.023195 
z
" clip-path="url(#p96bcd7716f)" style="fill: #ffa500; stroke: #ffa500"/>
    <path d="M 220.140544 165.023195 
C 220.703125 165.023195 221.242739 164.79968 221.640544 164.401875 
C 222.038349 164.00407 222.261864 163.464456 222.261864 162.901875 
C 222.261864 162.339294 222.038349 161.79968 221.640544 161.401875 
C 221.242739 161.00407 220.703125 160.780555 220.140544 160.780555 
C 219.577963 160.780555 219.038349 161.00407 218.640544 161.401875 
C 218.242739 161.79968 218.019224 162.339294 218.019224 162.901875 
C 218.019224 163.464456 218.242739 164.00407 218.640544 164.401875 
C 219.038349 164.79968 219.577963 165.023195 220.140544 165.023195 
z
" clip-path="url(#p96bcd7716f)" style="fill: #ffa500; stroke: #ffa500"/>
   </g>
   <g id="PathCollection_11">
    <defs>
     <path id="C0_0_dfbdd5fe86" d="M 0 74.161985 
C 19.667988 74.161985 38.533075 66.34781 52.440442 52.440442 
C 66.34781 38.533075 74.161985 19.667988 74.161985 -0 
C 74.161985 -19.667988 66.34781 -38.533075 52.440442 -52.440442 
C 38.533075 -66.34781 19.667988 -74.161985 0 -74.161985 
C -19.667988 -74.161985 -38.533075 -66.34781 -52.440442 -52.440442 
C -66.34781 -38.533075 -74.161985 -19.667988 -74.161985 0 
C -74.161985 19.667988 -66.34781 38.533075 -52.440442 52.440442 
C -38.533075 66.34781 -19.667988 74.161985 0 74.161985 
z
"/>
    </defs>
    <g clip-path="url(#p96bcd7716f)">
     <use xlink:href="#C0_0_dfbdd5fe86" x="164.475706" y="162.901875" style="fill: none; stroke: #ff0000"/>
    </g>
    <g clip-path="url(#p96bcd7716f)">
     <use xlink:href="#C0_0_dfbdd5fe86" x="220.140544" y="162.901875" style="fill: none; stroke: #ff0000"/>
    </g>
   </g>
   <g id="patch_3">
    <path d="M 55.67625 298.20375 
L 55.67625 27.6 
" style="fill: none; stroke: #ffffff; stroke-width: 1.25; stroke-linejoin: miter; stroke-linecap: square"/>
   </g>
   <g id="patch_4">
    <path d="M 328.94 298.20375 
L 328.94 27.6 
" style="fill: none; stroke: #ffffff; stroke-width: 1.25; stroke-linejoin: miter; stroke-linecap: square"/>
   </g>
   <g id="patch_5">
    <path d="M 55.67625 298.20375 
L 328.94 298.20375 
" style="fill: none; stroke: #ffffff; stroke-width: 1.25; stroke-linejoin: miter; stroke-linecap: square"/>
   </g>
   <g id="patch_6">
    <path d="M 55.67625 27.6 
L 328.94 27.6 
" style="fill: none; stroke: #ffffff; stroke-width: 1.25; stroke-linejoin: miter; stroke-linecap: square"/>
   </g>
   <g id="text_53">
    <!-- MPL 2D1C with Interference -->
    <g style="fill: #262626" transform="translate(117.17125 21.6)scale(0.12 -0.12)">
     <defs>
      <path id="ArialMT-4d" d="M 475 0 
L 475 4581 
L 1388 4581 
L 2472 1338 
Q 2622 884 2691 659 
Q 2769 909 2934 1394 
L 4031 4581 
L 4847 4581 
L 4847 0 
L 4263 0 
L 4263 3834 
L 2931 0 
L 2384 0 
L 1059 3900 
L 1059 0 
L 475 0 
z
" transform="scale(0.015625)"/>
      <path id="ArialMT-50" d="M 494 0 
L 494 4581 
L 2222 4581 
Q 2678 4581 2919 4538 
Q 3256 4481 3484 4323 
Q 3713 4166 3852 3881 
Q 3991 3597 3991 3256 
Q 3991 2672 3619 2267 
Q 3247 1863 2275 1863 
L 1100 1863 
L 1100 0 
L 494 0 
z
M 1100 2403 
L 2284 2403 
Q 2872 2403 3119 2622 
Q 3366 2841 3366 3238 
Q 3366 3525 3220 3729 
Q 3075 3934 2838 4000 
Q 2684 4041 2272 4041 
L 1100 4041 
L 1100 2403 
z
" transform="scale(0.015625)"/>
      <path id="ArialMT-4c" d="M 469 0 
L 469 4581 
L 1075 4581 
L 1075 541 
L 3331 541 
L 3331 0 
L 469 0 
z
" transform="scale(0.015625)"/>
      <path id="ArialMT-44" d="M 494 0 
L 494 4581 
L 2072 4581 
Q 2606 4581 2888 4516 
Q 3281 4425 3559 4188 
Q 3922 3881 4101 3404 
Q 4281 2928 4281 2316 
Q 4281 1794 4159 1391 
Q 4038 988 3847 723 
Q 3656 459 3429 307 
Q 3203 156 2883 78 
Q 2563 0 2147 0 
L 494 0 
z
M 1100 541 
L 2078 541 
Q 2531 541 2789 625 
Q 3047 709 3200 863 
Q 3416 1078 3536 1442 
Q 3656 1806 3656 2325 
Q 3656 3044 3420 3430 
Q 3184 3816 2847 3947 
Q 2603 4041 2063 4041 
L 1100 4041 
L 1100 541 
z
" transform="scale(0.015625)"/>
      <path id="ArialMT-77" d="M 1034 0 
L 19 3319 
L 600 3319 
L 1128 1403 
L 1325 691 
Q 1338 744 1497 1375 
L 2025 3319 
L 2603 3319 
L 3100 1394 
L 3266 759 
L 3456 1400 
L 4025 3319 
L 4572 3319 
L 3534 0 
L 2950 0 
L 2422 1988 
L 2294 2553 
L 1622 0 
L 1034 0 
z
" transform="scale(0.015625)"/>
      <path id="ArialMT-68" d="M 422 0 
L 422 4581 
L 984 4581 
L 984 2938 
Q 1378 3394 1978 3394 
Q 2347 3394 2619 3248 
Q 2891 3103 3008 2847 
Q 3125 2591 3125 2103 
L 3125 0 
L 2563 0 
L 2563 2103 
Q 2563 2525 2380 2717 
Q 2197 2909 1863 2909 
Q 1613 2909 1392 2779 
Q 1172 2650 1078 2428 
Q 984 2206 984 1816 
L 984 0 
L 422 0 
z
" transform="scale(0.015625)"/>
      <path id="ArialMT-49" d="M 597 0 
L 597 4581 
L 1203 4581 
L 1203 0 
L 597 0 
z
" transform="scale(0.015625)"/>
      <path id="ArialMT-66" d="M 556 0 
L 556 2881 
L 59 2881 
L 59 3319 
L 556 3319 
L 556 3672 
Q 556 4006 616 4169 
Q 697 4388 901 4523 
Q 1106 4659 1475 4659 
Q 1713 4659 2000 4603 
L 1916 4113 
Q 1741 4144 1584 4144 
Q 1328 4144 1222 4034 
Q 1116 3925 1116 3625 
L 1116 3319 
L 1763 3319 
L 1763 2881 
L 1116 2881 
L 1116 0 
L 556 0 
z
" transform="scale(0.015625)"/>
      <path id="ArialMT-63" d="M 2588 1216 
L 3141 1144 
Q 3050 572 2676 248 
Q 2303 -75 1759 -75 
Q 1078 -75 664 370 
Q 250 816 250 1647 
Q 250 2184 428 2587 
Q 606 2991 970 3192 
Q 1334 3394 1763 3394 
Q 2303 3394 2647 3120 
Q 2991 2847 3088 2344 
L 2541 2259 
Q 2463 2594 2264 2762 
Q 2066 2931 1784 2931 
Q 1359 2931 1093 2626 
Q 828 2322 828 1663 
Q 828 994 1084 691 
Q 1341 388 1753 388 
Q 2084 388 2306 591 
Q 2528 794 2588 1216 
z
" transform="scale(0.015625)"/>
     </defs>
     <use xlink:href="#ArialMT-4d"/>
     <use xlink:href="#ArialMT-50" x="83.300781"/>
     <use xlink:href="#ArialMT-4c" x="150"/>
     <use xlink:href="#ArialMT-20" x="201.865234"/>
     <use xlink:href="#ArialMT-32" x="229.648438"/>
     <use xlink:href="#ArialMT-44" x="285.263672"/>
     <use xlink:href="#ArialMT-31" x="357.480469"/>
     <use xlink:href="#ArialMT-43" x="413.095703"/>
     <use xlink:href="#ArialMT-20" x="485.3125"/>
     <use xlink:href="#ArialMT-77" x="513.095703"/>
     <use xlink:href="#ArialMT-69" x="585.3125"/>
     <use xlink:href="#ArialMT-74" x="607.529297"/>
     <use xlink:href="#ArialMT-68" x="635.3125"/>
     <use xlink:href="#ArialMT-20" x="690.927734"/>
     <use xlink:href="#ArialMT-49" x="718.710938"/>
     <use xlink:href="#ArialMT-6e" x="746.494141"/>
     <use xlink:href="#ArialMT-74" x="802.109375"/>
     <use xlink:href="#ArialMT-65" x="829.892578"/>
     <use xlink:href="#ArialMT-72" x="885.507812"/>
     <use xlink:href="#ArialMT-66" x="918.808594"/>
     <use xlink:href="#ArialMT-65" x="946.591797"/>
     <use xlink:href="#ArialMT-72" x="1002.207031"/>
     <use xlink:href="#ArialMT-65" x="1035.507812"/>
     <use xlink:href="#ArialMT-6e" x="1091.123047"/>
     <use xlink:href="#ArialMT-63" x="1146.738281"/>
     <use xlink:href="#ArialMT-65" x="1196.738281"/>
    </g>
   </g>
   <g id="legend_1">
    <g id="patch_7">
     <path d="M 336.64 242.418125 
L 445.823594 242.418125 
Q 448.023594 242.418125 448.023594 240.218125 
L 448.023594 85.585625 
Q 448.023594 83.385625 445.823594 83.385625 
L 336.64 83.385625 
Q 334.44 83.385625 334.44 85.585625 
L 334.44 240.218125 
Q 334.44 242.418125 336.64 242.418125 
z
" style="fill: #eaeaf2; opacity: 0.8; stroke: #cccccc; stroke-linejoin: miter"/>
    </g>
    <g id="text_54">
     <!-- PDR [%] -->
     <g style="fill: #262626" transform="translate(369.64 95.793281)scale(0.11 -0.11)">
      <defs>
       <path id="ArialMT-52" d="M 503 0 
L 503 4581 
L 2534 4581 
Q 3147 4581 3465 4457 
Q 3784 4334 3975 4021 
Q 4166 3709 4166 3331 
Q 4166 2844 3850 2509 
Q 3534 2175 2875 2084 
Q 3116 1969 3241 1856 
Q 3506 1613 3744 1247 
L 4541 0 
L 3778 0 
L 3172 953 
Q 2906 1366 2734 1584 
Q 2563 1803 2427 1890 
Q 2291 1978 2150 2013 
Q 2047 2034 1813 2034 
L 1109 2034 
L 1109 0 
L 503 0 
z
M 1109 2559 
L 2413 2559 
Q 2828 2559 3062 2645 
Q 3297 2731 3419 2920 
Q 3541 3109 3541 3331 
Q 3541 3656 3305 3865 
Q 3069 4075 2559 4075 
L 1109 4075 
L 1109 2559 
z
" transform="scale(0.015625)"/>
       <path id="ArialMT-25" d="M 372 3481 
Q 372 3972 619 4315 
Q 866 4659 1334 4659 
Q 1766 4659 2048 4351 
Q 2331 4044 2331 3447 
Q 2331 2866 2045 2552 
Q 1759 2238 1341 2238 
Q 925 2238 648 2547 
Q 372 2856 372 3481 
z
M 1350 4272 
Q 1141 4272 1002 4090 
Q 863 3909 863 3425 
Q 863 2984 1003 2804 
Q 1144 2625 1350 2625 
Q 1563 2625 1702 2806 
Q 1841 2988 1841 3469 
Q 1841 3913 1700 4092 
Q 1559 4272 1350 4272 
z
M 1353 -169 
L 3859 4659 
L 4316 4659 
L 1819 -169 
L 1353 -169 
z
M 3334 1075 
Q 3334 1569 3581 1911 
Q 3828 2253 4300 2253 
Q 4731 2253 5014 1945 
Q 5297 1638 5297 1041 
Q 5297 459 5011 145 
Q 4725 -169 4303 -169 
Q 3888 -169 3611 142 
Q 3334 453 3334 1075 
z
M 4316 1866 
Q 4103 1866 3964 1684 
Q 3825 1503 3825 1019 
Q 3825 581 3965 400 
Q 4106 219 4313 219 
Q 4528 219 4667 400 
Q 4806 581 4806 1063 
Q 4806 1506 4665 1686 
Q 4525 1866 4316 1866 
z
" transform="scale(0.015625)"/>
      </defs>
      <use xlink:href="#ArialMT-50"/>
      <use xlink:href="#ArialMT-44" x="66.699219"/>
      <use xlink:href="#ArialMT-52" x="138.916016"/>
      <use xlink:href="#ArialMT-20" x="211.132812"/>
      <use xlink:href="#ArialMT-5b" x="238.916016"/>
      <use xlink:href="#ArialMT-25" x="266.699219"/>
      <use xlink:href="#ArialMT-5d" x="355.615234"/>
     </g>
    </g>
    <g id="PathCollection_12">
     <defs>
      <path id="me8bd1033ea" d="M 0 3 
C 0.795609 3 1.55874 2.683901 2.12132 2.12132 
C 2.683901 1.55874 3 0.795609 3 0 
C 3 -0.795609 2.683901 -1.55874 2.12132 -2.12132 
C 1.55874 -2.683901 0.795609 -3 0 -3 
C -0.795609 -3 -1.55874 -2.683901 -2.12132 -2.12132 
C -2.683901 -1.55874 -3 -0.795609 -3 0 
C -3 0.795609 -2.683901 1.55874 -2.12132 2.12132 
C -1.55874 2.683901 -0.795609 3 0 3 
z
" style="stroke: #242629"/>
     </defs>
     <g>
      <use xlink:href="#me8bd1033ea" x="349.84" y="108.465625" style="fill: #242629; stroke: #242629"/>
     </g>
    </g>
    <g id="text_55">
     <!-- inf -->
     <g style="fill: #262626" transform="translate(369.64 111.353125)scale(0.11 -0.11)">
      <use xlink:href="#ArialMT-69"/>
      <use xlink:href="#ArialMT-6e" x="22.216797"/>
      <use xlink:href="#ArialMT-66" x="77.832031"/>
     </g>
    </g>
    <g id="text_56">
     <!-- # Sent Packets -->
     <g style="fill: #262626" transform="translate(369.64 126.912969)scale(0.11 -0.11)">
      <defs>
       <path id="ArialMT-23" d="M 322 -78 
L 594 1253 
L 66 1253 
L 66 1719 
L 688 1719 
L 919 2853 
L 66 2853 
L 66 3319 
L 1013 3319 
L 1284 4659 
L 1753 4659 
L 1481 3319 
L 2466 3319 
L 2738 4659 
L 3209 4659 
L 2938 3319 
L 3478 3319 
L 3478 2853 
L 2844 2853 
L 2609 1719 
L 3478 1719 
L 3478 1253 
L 2516 1253 
L 2244 -78 
L 1775 -78 
L 2044 1253 
L 1063 1253 
L 791 -78 
L 322 -78 
z
M 1156 1719 
L 2138 1719 
L 2372 2853 
L 1388 2853 
L 1156 1719 
z
" transform="scale(0.015625)"/>
       <path id="ArialMT-53" d="M 288 1472 
L 859 1522 
Q 900 1178 1048 958 
Q 1197 738 1509 602 
Q 1822 466 2213 466 
Q 2559 466 2825 569 
Q 3091 672 3220 851 
Q 3350 1031 3350 1244 
Q 3350 1459 3225 1620 
Q 3100 1781 2813 1891 
Q 2628 1963 1997 2114 
Q 1366 2266 1113 2400 
Q 784 2572 623 2826 
Q 463 3081 463 3397 
Q 463 3744 659 4045 
Q 856 4347 1234 4503 
Q 1613 4659 2075 4659 
Q 2584 4659 2973 4495 
Q 3363 4331 3572 4012 
Q 3781 3694 3797 3291 
L 3216 3247 
Q 3169 3681 2898 3903 
Q 2628 4125 2100 4125 
Q 1550 4125 1298 3923 
Q 1047 3722 1047 3438 
Q 1047 3191 1225 3031 
Q 1400 2872 2139 2705 
Q 2878 2538 3153 2413 
Q 3553 2228 3743 1945 
Q 3934 1663 3934 1294 
Q 3934 928 3725 604 
Q 3516 281 3123 101 
Q 2731 -78 2241 -78 
Q 1619 -78 1198 103 
Q 778 284 539 648 
Q 300 1013 288 1472 
z
" transform="scale(0.015625)"/>
       <path id="ArialMT-6b" d="M 425 0 
L 425 4581 
L 988 4581 
L 988 1969 
L 2319 3319 
L 3047 3319 
L 1778 2088 
L 3175 0 
L 2481 0 
L 1384 1697 
L 988 1316 
L 988 0 
L 425 0 
z
" transform="scale(0.015625)"/>
       <path id="ArialMT-73" d="M 197 991 
L 753 1078 
Q 800 744 1014 566 
Q 1228 388 1613 388 
Q 2000 388 2187 545 
Q 2375 703 2375 916 
Q 2375 1106 2209 1216 
Q 2094 1291 1634 1406 
Q 1016 1563 777 1677 
Q 538 1791 414 1992 
Q 291 2194 291 2438 
Q 291 2659 392 2848 
Q 494 3038 669 3163 
Q 800 3259 1026 3326 
Q 1253 3394 1513 3394 
Q 1903 3394 2198 3281 
Q 2494 3169 2634 2976 
Q 2775 2784 2828 2463 
L 2278 2388 
Q 2241 2644 2061 2787 
Q 1881 2931 1553 2931 
Q 1166 2931 1000 2803 
Q 834 2675 834 2503 
Q 834 2394 903 2306 
Q 972 2216 1119 2156 
Q 1203 2125 1616 2013 
Q 2213 1853 2448 1751 
Q 2684 1650 2818 1456 
Q 2953 1263 2953 975 
Q 2953 694 2789 445 
Q 2625 197 2315 61 
Q 2006 -75 1616 -75 
Q 969 -75 630 194 
Q 291 463 197 991 
z
" transform="scale(0.015625)"/>
      </defs>
      <use xlink:href="#ArialMT-23"/>
      <use xlink:href="#ArialMT-20" x="55.615234"/>
      <use xlink:href="#ArialMT-53" x="83.398438"/>
      <use xlink:href="#ArialMT-65" x="150.097656"/>
      <use xlink:href="#ArialMT-6e" x="205.712891"/>
      <use xlink:href="#ArialMT-74" x="261.328125"/>
      <use xlink:href="#ArialMT-20" x="289.111328"/>
      <use xlink:href="#ArialMT-50" x="316.894531"/>
      <use xlink:href="#ArialMT-61" x="383.59375"/>
      <use xlink:href="#ArialMT-63" x="439.208984"/>
      <use xlink:href="#ArialMT-6b" x="489.208984"/>
      <use xlink:href="#ArialMT-65" x="539.208984"/>
      <use xlink:href="#ArialMT-74" x="594.824219"/>
      <use xlink:href="#ArialMT-73" x="622.607422"/>
     </g>
    </g>
    <g id="PathCollection_13">
     <defs>
      <path id="m2c93442fa8" d="M 0 3.535534 
C 0.937635 3.535534 1.836992 3.163008 2.5 2.5 
C 3.163008 1.836992 3.535534 0.937635 3.535534 0 
C 3.535534 -0.937635 3.163008 -1.836992 2.5 -2.5 
C 1.836992 -3.163008 0.937635 -3.535534 0 -3.535534 
C -0.937635 -3.535534 -1.836992 -3.163008 -2.5 -2.5 
C -3.163008 -1.836992 -3.535534 -0.937635 -3.535534 0 
C -3.535534 0.937635 -3.163008 1.836992 -2.5 2.5 
C -1.836992 3.163008 -0.937635 3.535534 0 3.535534 
z
" style="stroke: #333333"/>
     </defs>
     <g>
      <use xlink:href="#m2c93442fa8" x="349.84" y="139.585312" style="fill: #333333; stroke: #333333"/>
     </g>
    </g>
    <g id="text_57">
     <!-- 0.0 -->
     <g style="fill: #262626" transform="translate(369.64 142.472812)scale(0.11 -0.11)">
      <defs>
       <path id="ArialMT-2e" d="M 581 0 
L 581 641 
L 1222 641 
L 1222 0 
L 581 0 
z
" transform="scale(0.015625)"/>
      </defs>
      <use xlink:href="#ArialMT-30"/>
      <use xlink:href="#ArialMT-2e" x="55.615234"/>
      <use xlink:href="#ArialMT-30" x="83.398438"/>
     </g>
    </g>
    <g id="PathCollection_14">
     <g>
      <use xlink:href="#m2c93442fa8" x="349.84" y="155.145156" style="fill: #333333; stroke: #333333"/>
     </g>
    </g>
    <g id="text_58">
     <!-- 0.5 -->
     <g style="fill: #262626" transform="translate(369.64 158.032656)scale(0.11 -0.11)">
      <defs>
       <path id="ArialMT-35" d="M 266 1200 
L 856 1250 
Q 922 819 1161 601 
Q 1400 384 1738 384 
Q 2144 384 2425 690 
Q 2706 997 2706 1503 
Q 2706 1984 2436 2262 
Q 2166 2541 1728 2541 
Q 1456 2541 1237 2417 
Q 1019 2294 894 2097 
L 366 2166 
L 809 4519 
L 3088 4519 
L 3088 3981 
L 1259 3981 
L 1013 2750 
Q 1425 3038 1878 3038 
Q 2478 3038 2890 2622 
Q 3303 2206 3303 1553 
Q 3303 931 2941 478 
Q 2500 -78 1738 -78 
Q 1113 -78 717 272 
Q 322 622 266 1200 
z
" transform="scale(0.015625)"/>
      </defs>
      <use xlink:href="#ArialMT-30"/>
      <use xlink:href="#ArialMT-2e" x="55.615234"/>
      <use xlink:href="#ArialMT-35" x="83.398438"/>
     </g>
    </g>
    <g id="PathCollection_15">
     <g>
      <use xlink:href="#m2c93442fa8" x="349.84" y="170.705" style="fill: #333333; stroke: #333333"/>
     </g>
    </g>
    <g id="text_59">
     <!-- 1.0 -->
     <g style="fill: #262626" transform="translate(369.64 173.5925)scale(0.11 -0.11)">
      <use xlink:href="#ArialMT-31"/>
      <use xlink:href="#ArialMT-2e" x="55.615234"/>
      <use xlink:href="#ArialMT-30" x="83.398438"/>
     </g>
    </g>
    <g id="PathCollection_16">
     <g>
      <use xlink:href="#m2c93442fa8" x="349.84" y="186.264844" style="fill: #333333; stroke: #333333"/>
     </g>
    </g>
    <g id="text_60">
     <!-- 1.5 -->
     <g style="fill: #262626" transform="translate(369.64 189.152344)scale(0.11 -0.11)">
      <use xlink:href="#ArialMT-31"/>
      <use xlink:href="#ArialMT-2e" x="55.615234"/>
      <use xlink:href="#ArialMT-35" x="83.398438"/>
     </g>
    </g>
    <g id="PathCollection_17">
     <g>
      <use xlink:href="#m2c93442fa8" x="349.84" y="201.824687" style="fill: #333333; stroke: #333333"/>
     </g>
    </g>
    <g id="text_61">
     <!-- 2.0 -->
     <g style="fill: #262626" transform="translate(369.64 204.712187)scale(0.11 -0.11)">
      <use xlink:href="#ArialMT-32"/>
      <use xlink:href="#ArialMT-2e" x="55.615234"/>
      <use xlink:href="#ArialMT-30" x="83.398438"/>
     </g>
    </g>
    <g id="PathCollection_18">
     <g>
      <use xlink:href="#m2c93442fa8" x="349.84" y="217.384531" style="fill: #333333; stroke: #333333"/>
     </g>
    </g>
    <g id="text_62">
     <!-- 2.5 -->
     <g style="fill: #262626" transform="translate(369.64 220.272031)scale(0.11 -0.11)">
      <use xlink:href="#ArialMT-32"/>
      <use xlink:href="#ArialMT-2e" x="55.615234"/>
      <use xlink:href="#ArialMT-35" x="83.398438"/>
     </g>
    </g>
    <g id="PathCollection_19">
     <g>
      <use xlink:href="#m2c93442fa8" x="349.84" y="232.944375" style="fill: #333333; stroke: #333333"/>
     </g>
    </g>
    <g id="text_63">
     <!-- 3.0 -->
     <g style="fill: #262626" transform="translate(369.64 235.831875)scale(0.11 -0.11)">
      <use xlink:href="#ArialMT-33"/>
      <use xlink:href="#ArialMT-2e" x="55.615234"/>
      <use xlink:href="#ArialMT-30" x="83.398438"/>
     </g>
    </g>
   </g>
  </g>
 </g>
 <defs>
  <clipPath id="p96bcd7716f">
   <rect x="55.67625" y="27.6" width="273.26375" height="270.60375"/>
  </clipPath>
 </defs>
</svg>
