<?xml version="1.0" encoding="utf-8" standalone="no"?>
<!DOCTYPE svg PUBLIC "-//W3C//DTD SVG 1.1//EN"
  "http://www.w3.org/Graphics/SVG/1.1/DTD/svg11.dtd">
<svg xmlns:xlink="http://www.w3.org/1999/xlink" width="460.8pt" height="345.6pt" viewBox="0 0 460.8 345.6" xmlns="http://www.w3.org/2000/svg" version="1.1">
 <metadata>
  <rdf:RDF xmlns:dc="http://purl.org/dc/elements/1.1/" xmlns:cc="http://creativecommons.org/ns#" xmlns:rdf="http://www.w3.org/1999/02/22-rdf-syntax-ns#">
   <cc:Work>
    <dc:type rdf:resource="http://purl.org/dc/dcmitype/StillImage"/>
    <dc:date>2022-05-12T08:34:54.978423</dc:date>
    <dc:format>image/svg+xml</dc:format>
    <dc:creator>
     <cc:Agent>
      <dc:title>Matplotlib v3.5.1, https://matplotlib.org/</dc:title>
     </cc:Agent>
    </dc:creator>
   </cc:Work>
  </rdf:RDF>
 </metadata>
 <defs>
  <style type="text/css">*{stroke-linejoin: round; stroke-linecap: butt}</style>
 </defs>
 <g id="figure_1">
  <g id="patch_1">
   <path d="M 0 345.6 
L 460.8 345.6 
L 460.8 0 
L 0 0 
z
" style="fill: #ffffff"/>
  </g>
  <g id="axes_1">
   <g id="patch_2">
    <path d="M 55.67625 298.20375 
L 316.97 298.20375 
L 316.97 27.6 
L 55.67625 27.6 
z
" style="fill: #eaeaf2"/>
   </g>
   <g id="matplotlib.axis_1">
    <g id="xtick_1">
     <g id="line2d_1">
      <path d="M 79.430227 298.20375 
L 79.430227 27.6 
" clip-path="url(#pc872384993)" style="fill: none; stroke: #ffffff; stroke-linecap: round"/>
     </g>
     <g id="text_1">
      <!-- 0 -->
      <g style="fill: #262626" transform="translate(76.371712 315.577344)scale(0.11 -0.11)">
       <defs>
        <path id="ArialMT-30" d="M 266 2259 
Q 266 3072 433 3567 
Q 600 4063 929 4331 
Q 1259 4600 1759 4600 
Q 2128 4600 2406 4451 
Q 2684 4303 2865 4023 
Q 3047 3744 3150 3342 
Q 3253 2941 3253 2259 
Q 3253 1453 3087 958 
Q 2922 463 2592 192 
Q 2263 -78 1759 -78 
Q 1097 -78 719 397 
Q 266 969 266 2259 
z
M 844 2259 
Q 844 1131 1108 757 
Q 1372 384 1759 384 
Q 2147 384 2411 759 
Q 2675 1134 2675 2259 
Q 2675 3391 2411 3762 
Q 2147 4134 1753 4134 
Q 1366 4134 1134 3806 
Q 844 3388 844 2259 
z
" transform="scale(0.015625)"/>
       </defs>
       <use xlink:href="#ArialMT-30"/>
      </g>
     </g>
    </g>
    <g id="xtick_2">
     <g id="line2d_2">
      <path d="M 131.688977 298.20375 
L 131.688977 27.6 
" clip-path="url(#pc872384993)" style="fill: none; stroke: #ffffff; stroke-linecap: round"/>
     </g>
     <g id="text_2">
      <!-- 110 -->
      <g style="fill: #262626" transform="translate(122.919055 315.577344)scale(0.11 -0.11)">
       <defs>
        <path id="ArialMT-31" d="M 2384 0 
L 1822 0 
L 1822 3584 
Q 1619 3391 1289 3197 
Q 959 3003 697 2906 
L 697 3450 
Q 1169 3672 1522 3987 
Q 1875 4303 2022 4600 
L 2384 4600 
L 2384 0 
z
" transform="scale(0.015625)"/>
       </defs>
       <use xlink:href="#ArialMT-31"/>
       <use xlink:href="#ArialMT-31" x="48.240234"/>
       <use xlink:href="#ArialMT-30" x="103.855469"/>
      </g>
     </g>
    </g>
    <g id="xtick_3">
     <g id="line2d_3">
      <path d="M 183.947727 298.20375 
L 183.947727 27.6 
" clip-path="url(#pc872384993)" style="fill: none; stroke: #ffffff; stroke-linecap: round"/>
     </g>
     <g id="text_3">
      <!-- 220 -->
      <g style="fill: #262626" transform="translate(174.77218 315.577344)scale(0.11 -0.11)">
       <defs>
        <path id="ArialMT-32" d="M 3222 541 
L 3222 0 
L 194 0 
Q 188 203 259 391 
Q 375 700 629 1000 
Q 884 1300 1366 1694 
Q 2113 2306 2375 2664 
Q 2638 3022 2638 3341 
Q 2638 3675 2398 3904 
Q 2159 4134 1775 4134 
Q 1369 4134 1125 3890 
Q 881 3647 878 3216 
L 300 3275 
Q 359 3922 746 4261 
Q 1134 4600 1788 4600 
Q 2447 4600 2831 4234 
Q 3216 3869 3216 3328 
Q 3216 3053 3103 2787 
Q 2991 2522 2730 2228 
Q 2469 1934 1863 1422 
Q 1356 997 1212 845 
Q 1069 694 975 541 
L 3222 541 
z
" transform="scale(0.015625)"/>
       </defs>
       <use xlink:href="#ArialMT-32"/>
       <use xlink:href="#ArialMT-32" x="55.615234"/>
       <use xlink:href="#ArialMT-30" x="111.230469"/>
      </g>
     </g>
    </g>
    <g id="xtick_4">
     <g id="line2d_4">
      <path d="M 236.206477 298.20375 
L 236.206477 27.6 
" clip-path="url(#pc872384993)" style="fill: none; stroke: #ffffff; stroke-linecap: round"/>
     </g>
     <g id="text_4">
      <!-- 330 -->
      <g style="fill: #262626" transform="translate(227.03093 315.577344)scale(0.11 -0.11)">
       <defs>
        <path id="ArialMT-33" d="M 269 1209 
L 831 1284 
Q 928 806 1161 595 
Q 1394 384 1728 384 
Q 2125 384 2398 659 
Q 2672 934 2672 1341 
Q 2672 1728 2419 1979 
Q 2166 2231 1775 2231 
Q 1616 2231 1378 2169 
L 1441 2663 
Q 1497 2656 1531 2656 
Q 1891 2656 2178 2843 
Q 2466 3031 2466 3422 
Q 2466 3731 2256 3934 
Q 2047 4138 1716 4138 
Q 1388 4138 1169 3931 
Q 950 3725 888 3313 
L 325 3413 
Q 428 3978 793 4289 
Q 1159 4600 1703 4600 
Q 2078 4600 2393 4439 
Q 2709 4278 2876 4000 
Q 3044 3722 3044 3409 
Q 3044 3113 2884 2869 
Q 2725 2625 2413 2481 
Q 2819 2388 3044 2092 
Q 3269 1797 3269 1353 
Q 3269 753 2831 336 
Q 2394 -81 1725 -81 
Q 1122 -81 723 278 
Q 325 638 269 1209 
z
" transform="scale(0.015625)"/>
       </defs>
       <use xlink:href="#ArialMT-33"/>
       <use xlink:href="#ArialMT-33" x="55.615234"/>
       <use xlink:href="#ArialMT-30" x="111.230469"/>
      </g>
     </g>
    </g>
    <g id="xtick_5">
     <g id="line2d_5">
      <path d="M 288.465227 298.20375 
L 288.465227 27.6 
" clip-path="url(#pc872384993)" style="fill: none; stroke: #ffffff; stroke-linecap: round"/>
     </g>
     <g id="text_5">
      <!-- 440 -->
      <g style="fill: #262626" transform="translate(279.28968 315.577344)scale(0.11 -0.11)">
       <defs>
        <path id="ArialMT-34" d="M 2069 0 
L 2069 1097 
L 81 1097 
L 81 1613 
L 2172 4581 
L 2631 4581 
L 2631 1613 
L 3250 1613 
L 3250 1097 
L 2631 1097 
L 2631 0 
L 2069 0 
z
M 2069 1613 
L 2069 3678 
L 634 1613 
L 2069 1613 
z
" transform="scale(0.015625)"/>
       </defs>
       <use xlink:href="#ArialMT-34"/>
       <use xlink:href="#ArialMT-34" x="55.615234"/>
       <use xlink:href="#ArialMT-30" x="111.230469"/>
      </g>
     </g>
    </g>
    <g id="xtick_6">
     <g id="line2d_6">
      <path d="M 79.430227 298.20375 
L 79.430227 27.6 
" clip-path="url(#pc872384993)" style="fill: none; stroke: #ffffff; stroke-linecap: round"/>
     </g>
     <g id="text_6">
      <!-- 0 -->
      <g style="fill: #262626" transform="translate(76.371712 315.577344)scale(0.11 -0.11)">
       <use xlink:href="#ArialMT-30"/>
      </g>
     </g>
    </g>
    <g id="xtick_7">
     <g id="line2d_7">
      <path d="M 131.688977 298.20375 
L 131.688977 27.6 
" clip-path="url(#pc872384993)" style="fill: none; stroke: #ffffff; stroke-linecap: round"/>
     </g>
     <g id="text_7">
      <!-- 110 -->
      <g style="fill: #262626" transform="translate(122.919055 315.577344)scale(0.11 -0.11)">
       <use xlink:href="#ArialMT-31"/>
       <use xlink:href="#ArialMT-31" x="48.240234"/>
       <use xlink:href="#ArialMT-30" x="103.855469"/>
      </g>
     </g>
    </g>
    <g id="xtick_8">
     <g id="line2d_8">
      <path d="M 183.947727 298.20375 
L 183.947727 27.6 
" clip-path="url(#pc872384993)" style="fill: none; stroke: #ffffff; stroke-linecap: round"/>
     </g>
     <g id="text_8">
      <!-- 220 -->
      <g style="fill: #262626" transform="translate(174.77218 315.577344)scale(0.11 -0.11)">
       <use xlink:href="#ArialMT-32"/>
       <use xlink:href="#ArialMT-32" x="55.615234"/>
       <use xlink:href="#ArialMT-30" x="111.230469"/>
      </g>
     </g>
    </g>
    <g id="xtick_9">
     <g id="line2d_9">
      <path d="M 236.206477 298.20375 
L 236.206477 27.6 
" clip-path="url(#pc872384993)" style="fill: none; stroke: #ffffff; stroke-linecap: round"/>
     </g>
     <g id="text_9">
      <!-- 330 -->
      <g style="fill: #262626" transform="translate(227.03093 315.577344)scale(0.11 -0.11)">
       <use xlink:href="#ArialMT-33"/>
       <use xlink:href="#ArialMT-33" x="55.615234"/>
       <use xlink:href="#ArialMT-30" x="111.230469"/>
      </g>
     </g>
    </g>
    <g id="xtick_10">
     <g id="line2d_10">
      <path d="M 288.465227 298.20375 
L 288.465227 27.6 
" clip-path="url(#pc872384993)" style="fill: none; stroke: #ffffff; stroke-linecap: round"/>
     </g>
     <g id="text_10">
      <!-- 440 -->
      <g style="fill: #262626" transform="translate(279.28968 315.577344)scale(0.11 -0.11)">
       <use xlink:href="#ArialMT-34"/>
       <use xlink:href="#ArialMT-34" x="55.615234"/>
       <use xlink:href="#ArialMT-30" x="111.230469"/>
      </g>
     </g>
    </g>
    <g id="xtick_11">
     <g id="line2d_11">
      <path d="M 79.430227 298.20375 
L 79.430227 27.6 
" clip-path="url(#pc872384993)" style="fill: none; stroke: #ffffff; stroke-linecap: round"/>
     </g>
     <g id="text_11">
      <!-- 0 -->
      <g style="fill: #262626" transform="translate(76.371712 315.577344)scale(0.11 -0.11)">
       <use xlink:href="#ArialMT-30"/>
      </g>
     </g>
    </g>
    <g id="xtick_12">
     <g id="line2d_12">
      <path d="M 131.688977 298.20375 
L 131.688977 27.6 
" clip-path="url(#pc872384993)" style="fill: none; stroke: #ffffff; stroke-linecap: round"/>
     </g>
     <g id="text_12">
      <!-- 110 -->
      <g style="fill: #262626" transform="translate(122.919055 315.577344)scale(0.11 -0.11)">
       <use xlink:href="#ArialMT-31"/>
       <use xlink:href="#ArialMT-31" x="48.240234"/>
       <use xlink:href="#ArialMT-30" x="103.855469"/>
      </g>
     </g>
    </g>
    <g id="xtick_13">
     <g id="line2d_13">
      <path d="M 183.947727 298.20375 
L 183.947727 27.6 
" clip-path="url(#pc872384993)" style="fill: none; stroke: #ffffff; stroke-linecap: round"/>
     </g>
     <g id="text_13">
      <!-- 220 -->
      <g style="fill: #262626" transform="translate(174.77218 315.577344)scale(0.11 -0.11)">
       <use xlink:href="#ArialMT-32"/>
       <use xlink:href="#ArialMT-32" x="55.615234"/>
       <use xlink:href="#ArialMT-30" x="111.230469"/>
      </g>
     </g>
    </g>
    <g id="xtick_14">
     <g id="line2d_14">
      <path d="M 236.206477 298.20375 
L 236.206477 27.6 
" clip-path="url(#pc872384993)" style="fill: none; stroke: #ffffff; stroke-linecap: round"/>
     </g>
     <g id="text_14">
      <!-- 330 -->
      <g style="fill: #262626" transform="translate(227.03093 315.577344)scale(0.11 -0.11)">
       <use xlink:href="#ArialMT-33"/>
       <use xlink:href="#ArialMT-33" x="55.615234"/>
       <use xlink:href="#ArialMT-30" x="111.230469"/>
      </g>
     </g>
    </g>
    <g id="xtick_15">
     <g id="line2d_15">
      <path d="M 288.465227 298.20375 
L 288.465227 27.6 
" clip-path="url(#pc872384993)" style="fill: none; stroke: #ffffff; stroke-linecap: round"/>
     </g>
     <g id="text_15">
      <!-- 440 -->
      <g style="fill: #262626" transform="translate(279.28968 315.577344)scale(0.11 -0.11)">
       <use xlink:href="#ArialMT-34"/>
       <use xlink:href="#ArialMT-34" x="55.615234"/>
       <use xlink:href="#ArialMT-30" x="111.230469"/>
      </g>
     </g>
    </g>
    <g id="xtick_16">
     <g id="line2d_16">
      <path d="M 79.430227 298.20375 
L 79.430227 27.6 
" clip-path="url(#pc872384993)" style="fill: none; stroke: #ffffff; stroke-linecap: round"/>
     </g>
     <g id="text_16">
      <!-- 0 -->
      <g style="fill: #262626" transform="translate(76.371712 315.577344)scale(0.11 -0.11)">
       <use xlink:href="#ArialMT-30"/>
      </g>
     </g>
    </g>
    <g id="xtick_17">
     <g id="line2d_17">
      <path d="M 131.688977 298.20375 
L 131.688977 27.6 
" clip-path="url(#pc872384993)" style="fill: none; stroke: #ffffff; stroke-linecap: round"/>
     </g>
     <g id="text_17">
      <!-- 110 -->
      <g style="fill: #262626" transform="translate(122.919055 315.577344)scale(0.11 -0.11)">
       <use xlink:href="#ArialMT-31"/>
       <use xlink:href="#ArialMT-31" x="48.240234"/>
       <use xlink:href="#ArialMT-30" x="103.855469"/>
      </g>
     </g>
    </g>
    <g id="xtick_18">
     <g id="line2d_18">
      <path d="M 183.947727 298.20375 
L 183.947727 27.6 
" clip-path="url(#pc872384993)" style="fill: none; stroke: #ffffff; stroke-linecap: round"/>
     </g>
     <g id="text_18">
      <!-- 220 -->
      <g style="fill: #262626" transform="translate(174.77218 315.577344)scale(0.11 -0.11)">
       <use xlink:href="#ArialMT-32"/>
       <use xlink:href="#ArialMT-32" x="55.615234"/>
       <use xlink:href="#ArialMT-30" x="111.230469"/>
      </g>
     </g>
    </g>
    <g id="xtick_19">
     <g id="line2d_19">
      <path d="M 236.206477 298.20375 
L 236.206477 27.6 
" clip-path="url(#pc872384993)" style="fill: none; stroke: #ffffff; stroke-linecap: round"/>
     </g>
     <g id="text_19">
      <!-- 330 -->
      <g style="fill: #262626" transform="translate(227.03093 315.577344)scale(0.11 -0.11)">
       <use xlink:href="#ArialMT-33"/>
       <use xlink:href="#ArialMT-33" x="55.615234"/>
       <use xlink:href="#ArialMT-30" x="111.230469"/>
      </g>
     </g>
    </g>
    <g id="xtick_20">
     <g id="line2d_20">
      <path d="M 288.465227 298.20375 
L 288.465227 27.6 
" clip-path="url(#pc872384993)" style="fill: none; stroke: #ffffff; stroke-linecap: round"/>
     </g>
     <g id="text_20">
      <!-- 440 -->
      <g style="fill: #262626" transform="translate(279.28968 315.577344)scale(0.11 -0.11)">
       <use xlink:href="#ArialMT-34"/>
       <use xlink:href="#ArialMT-34" x="55.615234"/>
       <use xlink:href="#ArialMT-30" x="111.230469"/>
      </g>
     </g>
    </g>
    <g id="xtick_21">
     <g id="line2d_21">
      <path d="M 79.430227 298.20375 
L 79.430227 27.6 
" clip-path="url(#pc872384993)" style="fill: none; stroke: #ffffff; stroke-linecap: round"/>
     </g>
     <g id="text_21">
      <!-- 0 -->
      <g style="fill: #262626" transform="translate(76.371712 315.577344)scale(0.11 -0.11)">
       <use xlink:href="#ArialMT-30"/>
      </g>
     </g>
    </g>
    <g id="xtick_22">
     <g id="line2d_22">
      <path d="M 131.688977 298.20375 
L 131.688977 27.6 
" clip-path="url(#pc872384993)" style="fill: none; stroke: #ffffff; stroke-linecap: round"/>
     </g>
     <g id="text_22">
      <!-- 110 -->
      <g style="fill: #262626" transform="translate(122.919055 315.577344)scale(0.11 -0.11)">
       <use xlink:href="#ArialMT-31"/>
       <use xlink:href="#ArialMT-31" x="48.240234"/>
       <use xlink:href="#ArialMT-30" x="103.855469"/>
      </g>
     </g>
    </g>
    <g id="xtick_23">
     <g id="line2d_23">
      <path d="M 183.947727 298.20375 
L 183.947727 27.6 
" clip-path="url(#pc872384993)" style="fill: none; stroke: #ffffff; stroke-linecap: round"/>
     </g>
     <g id="text_23">
      <!-- 220 -->
      <g style="fill: #262626" transform="translate(174.77218 315.577344)scale(0.11 -0.11)">
       <use xlink:href="#ArialMT-32"/>
       <use xlink:href="#ArialMT-32" x="55.615234"/>
       <use xlink:href="#ArialMT-30" x="111.230469"/>
      </g>
     </g>
    </g>
    <g id="xtick_24">
     <g id="line2d_24">
      <path d="M 236.206477 298.20375 
L 236.206477 27.6 
" clip-path="url(#pc872384993)" style="fill: none; stroke: #ffffff; stroke-linecap: round"/>
     </g>
     <g id="text_24">
      <!-- 330 -->
      <g style="fill: #262626" transform="translate(227.03093 315.577344)scale(0.11 -0.11)">
       <use xlink:href="#ArialMT-33"/>
       <use xlink:href="#ArialMT-33" x="55.615234"/>
       <use xlink:href="#ArialMT-30" x="111.230469"/>
      </g>
     </g>
    </g>
    <g id="xtick_25">
     <g id="line2d_25">
      <path d="M 288.465227 298.20375 
L 288.465227 27.6 
" clip-path="url(#pc872384993)" style="fill: none; stroke: #ffffff; stroke-linecap: round"/>
     </g>
     <g id="text_25">
      <!-- 440 -->
      <g style="fill: #262626" transform="translate(279.28968 315.577344)scale(0.11 -0.11)">
       <use xlink:href="#ArialMT-34"/>
       <use xlink:href="#ArialMT-34" x="55.615234"/>
       <use xlink:href="#ArialMT-30" x="111.230469"/>
      </g>
     </g>
    </g>
    <g id="text_26">
     <!-- X-Coordinate [m] -->
     <g style="fill: #262626" transform="translate(140.974375 330.499219)scale(0.12 -0.12)">
      <defs>
       <path id="ArialMT-58" d="M 28 0 
L 1800 2388 
L 238 4581 
L 959 4581 
L 1791 3406 
Q 2050 3041 2159 2844 
Q 2313 3094 2522 3366 
L 3444 4581 
L 4103 4581 
L 2494 2422 
L 4228 0 
L 3478 0 
L 2325 1634 
Q 2228 1775 2125 1941 
Q 1972 1691 1906 1597 
L 756 0 
L 28 0 
z
" transform="scale(0.015625)"/>
       <path id="ArialMT-2d" d="M 203 1375 
L 203 1941 
L 1931 1941 
L 1931 1375 
L 203 1375 
z
" transform="scale(0.015625)"/>
       <path id="ArialMT-43" d="M 3763 1606 
L 4369 1453 
Q 4178 706 3683 314 
Q 3188 -78 2472 -78 
Q 1731 -78 1267 223 
Q 803 525 561 1097 
Q 319 1669 319 2325 
Q 319 3041 592 3573 
Q 866 4106 1370 4382 
Q 1875 4659 2481 4659 
Q 3169 4659 3637 4309 
Q 4106 3959 4291 3325 
L 3694 3184 
Q 3534 3684 3231 3912 
Q 2928 4141 2469 4141 
Q 1941 4141 1586 3887 
Q 1231 3634 1087 3207 
Q 944 2781 944 2328 
Q 944 1744 1114 1308 
Q 1284 872 1643 656 
Q 2003 441 2422 441 
Q 2931 441 3284 734 
Q 3638 1028 3763 1606 
z
" transform="scale(0.015625)"/>
       <path id="ArialMT-6f" d="M 213 1659 
Q 213 2581 725 3025 
Q 1153 3394 1769 3394 
Q 2453 3394 2887 2945 
Q 3322 2497 3322 1706 
Q 3322 1066 3130 698 
Q 2938 331 2570 128 
Q 2203 -75 1769 -75 
Q 1072 -75 642 372 
Q 213 819 213 1659 
z
M 791 1659 
Q 791 1022 1069 705 
Q 1347 388 1769 388 
Q 2188 388 2466 706 
Q 2744 1025 2744 1678 
Q 2744 2294 2464 2611 
Q 2184 2928 1769 2928 
Q 1347 2928 1069 2612 
Q 791 2297 791 1659 
z
" transform="scale(0.015625)"/>
       <path id="ArialMT-72" d="M 416 0 
L 416 3319 
L 922 3319 
L 922 2816 
Q 1116 3169 1280 3281 
Q 1444 3394 1641 3394 
Q 1925 3394 2219 3213 
L 2025 2691 
Q 1819 2813 1613 2813 
Q 1428 2813 1281 2702 
Q 1134 2591 1072 2394 
Q 978 2094 978 1738 
L 978 0 
L 416 0 
z
" transform="scale(0.015625)"/>
       <path id="ArialMT-64" d="M 2575 0 
L 2575 419 
Q 2259 -75 1647 -75 
Q 1250 -75 917 144 
Q 584 363 401 755 
Q 219 1147 219 1656 
Q 219 2153 384 2558 
Q 550 2963 881 3178 
Q 1213 3394 1622 3394 
Q 1922 3394 2156 3267 
Q 2391 3141 2538 2938 
L 2538 4581 
L 3097 4581 
L 3097 0 
L 2575 0 
z
M 797 1656 
Q 797 1019 1065 703 
Q 1334 388 1700 388 
Q 2069 388 2326 689 
Q 2584 991 2584 1609 
Q 2584 2291 2321 2609 
Q 2059 2928 1675 2928 
Q 1300 2928 1048 2622 
Q 797 2316 797 1656 
z
" transform="scale(0.015625)"/>
       <path id="ArialMT-69" d="M 425 3934 
L 425 4581 
L 988 4581 
L 988 3934 
L 425 3934 
z
M 425 0 
L 425 3319 
L 988 3319 
L 988 0 
L 425 0 
z
" transform="scale(0.015625)"/>
       <path id="ArialMT-6e" d="M 422 0 
L 422 3319 
L 928 3319 
L 928 2847 
Q 1294 3394 1984 3394 
Q 2284 3394 2536 3286 
Q 2788 3178 2913 3003 
Q 3038 2828 3088 2588 
Q 3119 2431 3119 2041 
L 3119 0 
L 2556 0 
L 2556 2019 
Q 2556 2363 2490 2533 
Q 2425 2703 2258 2804 
Q 2091 2906 1866 2906 
Q 1506 2906 1245 2678 
Q 984 2450 984 1813 
L 984 0 
L 422 0 
z
" transform="scale(0.015625)"/>
       <path id="ArialMT-61" d="M 2588 409 
Q 2275 144 1986 34 
Q 1697 -75 1366 -75 
Q 819 -75 525 192 
Q 231 459 231 875 
Q 231 1119 342 1320 
Q 453 1522 633 1644 
Q 813 1766 1038 1828 
Q 1203 1872 1538 1913 
Q 2219 1994 2541 2106 
Q 2544 2222 2544 2253 
Q 2544 2597 2384 2738 
Q 2169 2928 1744 2928 
Q 1347 2928 1158 2789 
Q 969 2650 878 2297 
L 328 2372 
Q 403 2725 575 2942 
Q 747 3159 1072 3276 
Q 1397 3394 1825 3394 
Q 2250 3394 2515 3294 
Q 2781 3194 2906 3042 
Q 3031 2891 3081 2659 
Q 3109 2516 3109 2141 
L 3109 1391 
Q 3109 606 3145 398 
Q 3181 191 3288 0 
L 2700 0 
Q 2613 175 2588 409 
z
M 2541 1666 
Q 2234 1541 1622 1453 
Q 1275 1403 1131 1340 
Q 988 1278 909 1158 
Q 831 1038 831 891 
Q 831 666 1001 516 
Q 1172 366 1500 366 
Q 1825 366 2078 508 
Q 2331 650 2450 897 
Q 2541 1088 2541 1459 
L 2541 1666 
z
" transform="scale(0.015625)"/>
       <path id="ArialMT-74" d="M 1650 503 
L 1731 6 
Q 1494 -44 1306 -44 
Q 1000 -44 831 53 
Q 663 150 594 308 
Q 525 466 525 972 
L 525 2881 
L 113 2881 
L 113 3319 
L 525 3319 
L 525 4141 
L 1084 4478 
L 1084 3319 
L 1650 3319 
L 1650 2881 
L 1084 2881 
L 1084 941 
Q 1084 700 1114 631 
Q 1144 563 1211 522 
Q 1278 481 1403 481 
Q 1497 481 1650 503 
z
" transform="scale(0.015625)"/>
       <path id="ArialMT-65" d="M 2694 1069 
L 3275 997 
Q 3138 488 2766 206 
Q 2394 -75 1816 -75 
Q 1088 -75 661 373 
Q 234 822 234 1631 
Q 234 2469 665 2931 
Q 1097 3394 1784 3394 
Q 2450 3394 2872 2941 
Q 3294 2488 3294 1666 
Q 3294 1616 3291 1516 
L 816 1516 
Q 847 969 1125 678 
Q 1403 388 1819 388 
Q 2128 388 2347 550 
Q 2566 713 2694 1069 
z
M 847 1978 
L 2700 1978 
Q 2663 2397 2488 2606 
Q 2219 2931 1791 2931 
Q 1403 2931 1139 2672 
Q 875 2413 847 1978 
z
" transform="scale(0.015625)"/>
       <path id="ArialMT-20" transform="scale(0.015625)"/>
       <path id="ArialMT-5b" d="M 434 -1272 
L 434 4581 
L 1675 4581 
L 1675 4116 
L 997 4116 
L 997 -806 
L 1675 -806 
L 1675 -1272 
L 434 -1272 
z
" transform="scale(0.015625)"/>
       <path id="ArialMT-6d" d="M 422 0 
L 422 3319 
L 925 3319 
L 925 2853 
Q 1081 3097 1340 3245 
Q 1600 3394 1931 3394 
Q 2300 3394 2536 3241 
Q 2772 3088 2869 2813 
Q 3263 3394 3894 3394 
Q 4388 3394 4653 3120 
Q 4919 2847 4919 2278 
L 4919 0 
L 4359 0 
L 4359 2091 
Q 4359 2428 4304 2576 
Q 4250 2725 4106 2815 
Q 3963 2906 3769 2906 
Q 3419 2906 3187 2673 
Q 2956 2441 2956 1928 
L 2956 0 
L 2394 0 
L 2394 2156 
Q 2394 2531 2256 2718 
Q 2119 2906 1806 2906 
Q 1569 2906 1367 2781 
Q 1166 2656 1075 2415 
Q 984 2175 984 1722 
L 984 0 
L 422 0 
z
" transform="scale(0.015625)"/>
       <path id="ArialMT-5d" d="M 1363 -1272 
L 122 -1272 
L 122 -806 
L 800 -806 
L 800 4116 
L 122 4116 
L 122 4581 
L 1363 4581 
L 1363 -1272 
z
" transform="scale(0.015625)"/>
      </defs>
      <use xlink:href="#ArialMT-58"/>
      <use xlink:href="#ArialMT-2d" x="66.699219"/>
      <use xlink:href="#ArialMT-43" x="100"/>
      <use xlink:href="#ArialMT-6f" x="172.216797"/>
      <use xlink:href="#ArialMT-6f" x="227.832031"/>
      <use xlink:href="#ArialMT-72" x="283.447266"/>
      <use xlink:href="#ArialMT-64" x="316.748047"/>
      <use xlink:href="#ArialMT-69" x="372.363281"/>
      <use xlink:href="#ArialMT-6e" x="394.580078"/>
      <use xlink:href="#ArialMT-61" x="450.195312"/>
      <use xlink:href="#ArialMT-74" x="505.810547"/>
      <use xlink:href="#ArialMT-65" x="533.59375"/>
      <use xlink:href="#ArialMT-20" x="589.208984"/>
      <use xlink:href="#ArialMT-5b" x="616.992188"/>
      <use xlink:href="#ArialMT-6d" x="644.775391"/>
      <use xlink:href="#ArialMT-5d" x="728.076172"/>
     </g>
    </g>
   </g>
   <g id="matplotlib.axis_2">
    <g id="ytick_1">
     <g id="line2d_26">
      <path d="M 55.67625 273.603409 
L 316.97 273.603409 
" clip-path="url(#pc872384993)" style="fill: none; stroke: #ffffff; stroke-linecap: round"/>
     </g>
     <g id="text_27">
      <!-- 0 -->
      <g style="fill: #262626" transform="translate(40.059219 277.540206)scale(0.11 -0.11)">
       <use xlink:href="#ArialMT-30"/>
      </g>
     </g>
    </g>
    <g id="ytick_2">
     <g id="line2d_27">
      <path d="M 55.67625 273.603409 
L 316.97 273.603409 
" clip-path="url(#pc872384993)" style="fill: none; stroke: #ffffff; stroke-linecap: round"/>
     </g>
     <g id="text_28">
      <!-- 0 -->
      <g style="fill: #262626" transform="translate(40.059219 277.540206)scale(0.11 -0.11)">
       <use xlink:href="#ArialMT-30"/>
      </g>
     </g>
    </g>
    <g id="ytick_3">
     <g id="line2d_28">
      <path d="M 55.67625 273.603409 
L 316.97 273.603409 
" clip-path="url(#pc872384993)" style="fill: none; stroke: #ffffff; stroke-linecap: round"/>
     </g>
     <g id="text_29">
      <!-- 0 -->
      <g style="fill: #262626" transform="translate(40.059219 277.540206)scale(0.11 -0.11)">
       <use xlink:href="#ArialMT-30"/>
      </g>
     </g>
    </g>
    <g id="ytick_4">
     <g id="line2d_29">
      <path d="M 55.67625 273.603409 
L 316.97 273.603409 
" clip-path="url(#pc872384993)" style="fill: none; stroke: #ffffff; stroke-linecap: round"/>
     </g>
     <g id="text_30">
      <!-- 0 -->
      <g style="fill: #262626" transform="translate(40.059219 277.540206)scale(0.11 -0.11)">
       <use xlink:href="#ArialMT-30"/>
      </g>
     </g>
    </g>
    <g id="ytick_5">
     <g id="line2d_30">
      <path d="M 55.67625 273.603409 
L 316.97 273.603409 
" clip-path="url(#pc872384993)" style="fill: none; stroke: #ffffff; stroke-linecap: round"/>
     </g>
     <g id="text_31">
      <!-- 0 -->
      <g style="fill: #262626" transform="translate(40.059219 277.540206)scale(0.11 -0.11)">
       <use xlink:href="#ArialMT-30"/>
      </g>
     </g>
    </g>
    <g id="ytick_6">
     <g id="line2d_31">
      <path d="M 55.67625 219.482659 
L 316.97 219.482659 
" clip-path="url(#pc872384993)" style="fill: none; stroke: #ffffff; stroke-linecap: round"/>
     </g>
     <g id="text_32">
      <!-- 110 -->
      <g style="fill: #262626" transform="translate(28.636406 223.419456)scale(0.11 -0.11)">
       <use xlink:href="#ArialMT-31"/>
       <use xlink:href="#ArialMT-31" x="48.240234"/>
       <use xlink:href="#ArialMT-30" x="103.855469"/>
      </g>
     </g>
    </g>
    <g id="ytick_7">
     <g id="line2d_32">
      <path d="M 55.67625 219.482659 
L 316.97 219.482659 
" clip-path="url(#pc872384993)" style="fill: none; stroke: #ffffff; stroke-linecap: round"/>
     </g>
     <g id="text_33">
      <!-- 110 -->
      <g style="fill: #262626" transform="translate(28.636406 223.419456)scale(0.11 -0.11)">
       <use xlink:href="#ArialMT-31"/>
       <use xlink:href="#ArialMT-31" x="48.240234"/>
       <use xlink:href="#ArialMT-30" x="103.855469"/>
      </g>
     </g>
    </g>
    <g id="ytick_8">
     <g id="line2d_33">
      <path d="M 55.67625 219.482659 
L 316.97 219.482659 
" clip-path="url(#pc872384993)" style="fill: none; stroke: #ffffff; stroke-linecap: round"/>
     </g>
     <g id="text_34">
      <!-- 110 -->
      <g style="fill: #262626" transform="translate(28.636406 223.419456)scale(0.11 -0.11)">
       <use xlink:href="#ArialMT-31"/>
       <use xlink:href="#ArialMT-31" x="48.240234"/>
       <use xlink:href="#ArialMT-30" x="103.855469"/>
      </g>
     </g>
    </g>
    <g id="ytick_9">
     <g id="line2d_34">
      <path d="M 55.67625 219.482659 
L 316.97 219.482659 
" clip-path="url(#pc872384993)" style="fill: none; stroke: #ffffff; stroke-linecap: round"/>
     </g>
     <g id="text_35">
      <!-- 110 -->
      <g style="fill: #262626" transform="translate(28.636406 223.419456)scale(0.11 -0.11)">
       <use xlink:href="#ArialMT-31"/>
       <use xlink:href="#ArialMT-31" x="48.240234"/>
       <use xlink:href="#ArialMT-30" x="103.855469"/>
      </g>
     </g>
    </g>
    <g id="ytick_10">
     <g id="line2d_35">
      <path d="M 55.67625 219.482659 
L 316.97 219.482659 
" clip-path="url(#pc872384993)" style="fill: none; stroke: #ffffff; stroke-linecap: round"/>
     </g>
     <g id="text_36">
      <!-- 110 -->
      <g style="fill: #262626" transform="translate(28.636406 223.419456)scale(0.11 -0.11)">
       <use xlink:href="#ArialMT-31"/>
       <use xlink:href="#ArialMT-31" x="48.240234"/>
       <use xlink:href="#ArialMT-30" x="103.855469"/>
      </g>
     </g>
    </g>
    <g id="ytick_11">
     <g id="line2d_36">
      <path d="M 55.67625 165.361909 
L 316.97 165.361909 
" clip-path="url(#pc872384993)" style="fill: none; stroke: #ffffff; stroke-linecap: round"/>
     </g>
     <g id="text_37">
      <!-- 220 -->
      <g style="fill: #262626" transform="translate(27.825156 169.298706)scale(0.11 -0.11)">
       <use xlink:href="#ArialMT-32"/>
       <use xlink:href="#ArialMT-32" x="55.615234"/>
       <use xlink:href="#ArialMT-30" x="111.230469"/>
      </g>
     </g>
    </g>
    <g id="ytick_12">
     <g id="line2d_37">
      <path d="M 55.67625 165.361909 
L 316.97 165.361909 
" clip-path="url(#pc872384993)" style="fill: none; stroke: #ffffff; stroke-linecap: round"/>
     </g>
     <g id="text_38">
      <!-- 220 -->
      <g style="fill: #262626" transform="translate(27.825156 169.298706)scale(0.11 -0.11)">
       <use xlink:href="#ArialMT-32"/>
       <use xlink:href="#ArialMT-32" x="55.615234"/>
       <use xlink:href="#ArialMT-30" x="111.230469"/>
      </g>
     </g>
    </g>
    <g id="ytick_13">
     <g id="line2d_38">
      <path d="M 55.67625 165.361909 
L 316.97 165.361909 
" clip-path="url(#pc872384993)" style="fill: none; stroke: #ffffff; stroke-linecap: round"/>
     </g>
     <g id="text_39">
      <!-- 220 -->
      <g style="fill: #262626" transform="translate(27.825156 169.298706)scale(0.11 -0.11)">
       <use xlink:href="#ArialMT-32"/>
       <use xlink:href="#ArialMT-32" x="55.615234"/>
       <use xlink:href="#ArialMT-30" x="111.230469"/>
      </g>
     </g>
    </g>
    <g id="ytick_14">
     <g id="line2d_39">
      <path d="M 55.67625 165.361909 
L 316.97 165.361909 
" clip-path="url(#pc872384993)" style="fill: none; stroke: #ffffff; stroke-linecap: round"/>
     </g>
     <g id="text_40">
      <!-- 220 -->
      <g style="fill: #262626" transform="translate(27.825156 169.298706)scale(0.11 -0.11)">
       <use xlink:href="#ArialMT-32"/>
       <use xlink:href="#ArialMT-32" x="55.615234"/>
       <use xlink:href="#ArialMT-30" x="111.230469"/>
      </g>
     </g>
    </g>
    <g id="ytick_15">
     <g id="line2d_40">
      <path d="M 55.67625 165.361909 
L 316.97 165.361909 
" clip-path="url(#pc872384993)" style="fill: none; stroke: #ffffff; stroke-linecap: round"/>
     </g>
     <g id="text_41">
      <!-- 220 -->
      <g style="fill: #262626" transform="translate(27.825156 169.298706)scale(0.11 -0.11)">
       <use xlink:href="#ArialMT-32"/>
       <use xlink:href="#ArialMT-32" x="55.615234"/>
       <use xlink:href="#ArialMT-30" x="111.230469"/>
      </g>
     </g>
    </g>
    <g id="ytick_16">
     <g id="line2d_41">
      <path d="M 55.67625 111.241159 
L 316.97 111.241159 
" clip-path="url(#pc872384993)" style="fill: none; stroke: #ffffff; stroke-linecap: round"/>
     </g>
     <g id="text_42">
      <!-- 330 -->
      <g style="fill: #262626" transform="translate(27.825156 115.177956)scale(0.11 -0.11)">
       <use xlink:href="#ArialMT-33"/>
       <use xlink:href="#ArialMT-33" x="55.615234"/>
       <use xlink:href="#ArialMT-30" x="111.230469"/>
      </g>
     </g>
    </g>
    <g id="ytick_17">
     <g id="line2d_42">
      <path d="M 55.67625 111.241159 
L 316.97 111.241159 
" clip-path="url(#pc872384993)" style="fill: none; stroke: #ffffff; stroke-linecap: round"/>
     </g>
     <g id="text_43">
      <!-- 330 -->
      <g style="fill: #262626" transform="translate(27.825156 115.177956)scale(0.11 -0.11)">
       <use xlink:href="#ArialMT-33"/>
       <use xlink:href="#ArialMT-33" x="55.615234"/>
       <use xlink:href="#ArialMT-30" x="111.230469"/>
      </g>
     </g>
    </g>
    <g id="ytick_18">
     <g id="line2d_43">
      <path d="M 55.67625 111.241159 
L 316.97 111.241159 
" clip-path="url(#pc872384993)" style="fill: none; stroke: #ffffff; stroke-linecap: round"/>
     </g>
     <g id="text_44">
      <!-- 330 -->
      <g style="fill: #262626" transform="translate(27.825156 115.177956)scale(0.11 -0.11)">
       <use xlink:href="#ArialMT-33"/>
       <use xlink:href="#ArialMT-33" x="55.615234"/>
       <use xlink:href="#ArialMT-30" x="111.230469"/>
      </g>
     </g>
    </g>
    <g id="ytick_19">
     <g id="line2d_44">
      <path d="M 55.67625 111.241159 
L 316.97 111.241159 
" clip-path="url(#pc872384993)" style="fill: none; stroke: #ffffff; stroke-linecap: round"/>
     </g>
     <g id="text_45">
      <!-- 330 -->
      <g style="fill: #262626" transform="translate(27.825156 115.177956)scale(0.11 -0.11)">
       <use xlink:href="#ArialMT-33"/>
       <use xlink:href="#ArialMT-33" x="55.615234"/>
       <use xlink:href="#ArialMT-30" x="111.230469"/>
      </g>
     </g>
    </g>
    <g id="ytick_20">
     <g id="line2d_45">
      <path d="M 55.67625 111.241159 
L 316.97 111.241159 
" clip-path="url(#pc872384993)" style="fill: none; stroke: #ffffff; stroke-linecap: round"/>
     </g>
     <g id="text_46">
      <!-- 330 -->
      <g style="fill: #262626" transform="translate(27.825156 115.177956)scale(0.11 -0.11)">
       <use xlink:href="#ArialMT-33"/>
       <use xlink:href="#ArialMT-33" x="55.615234"/>
       <use xlink:href="#ArialMT-30" x="111.230469"/>
      </g>
     </g>
    </g>
    <g id="ytick_21">
     <g id="line2d_46">
      <path d="M 55.67625 57.120409 
L 316.97 57.120409 
" clip-path="url(#pc872384993)" style="fill: none; stroke: #ffffff; stroke-linecap: round"/>
     </g>
     <g id="text_47">
      <!-- 440 -->
      <g style="fill: #262626" transform="translate(27.825156 61.057206)scale(0.11 -0.11)">
       <use xlink:href="#ArialMT-34"/>
       <use xlink:href="#ArialMT-34" x="55.615234"/>
       <use xlink:href="#ArialMT-30" x="111.230469"/>
      </g>
     </g>
    </g>
    <g id="ytick_22">
     <g id="line2d_47">
      <path d="M 55.67625 57.120409 
L 316.97 57.120409 
" clip-path="url(#pc872384993)" style="fill: none; stroke: #ffffff; stroke-linecap: round"/>
     </g>
     <g id="text_48">
      <!-- 440 -->
      <g style="fill: #262626" transform="translate(27.825156 61.057206)scale(0.11 -0.11)">
       <use xlink:href="#ArialMT-34"/>
       <use xlink:href="#ArialMT-34" x="55.615234"/>
       <use xlink:href="#ArialMT-30" x="111.230469"/>
      </g>
     </g>
    </g>
    <g id="ytick_23">
     <g id="line2d_48">
      <path d="M 55.67625 57.120409 
L 316.97 57.120409 
" clip-path="url(#pc872384993)" style="fill: none; stroke: #ffffff; stroke-linecap: round"/>
     </g>
     <g id="text_49">
      <!-- 440 -->
      <g style="fill: #262626" transform="translate(27.825156 61.057206)scale(0.11 -0.11)">
       <use xlink:href="#ArialMT-34"/>
       <use xlink:href="#ArialMT-34" x="55.615234"/>
       <use xlink:href="#ArialMT-30" x="111.230469"/>
      </g>
     </g>
    </g>
    <g id="ytick_24">
     <g id="line2d_49">
      <path d="M 55.67625 57.120409 
L 316.97 57.120409 
" clip-path="url(#pc872384993)" style="fill: none; stroke: #ffffff; stroke-linecap: round"/>
     </g>
     <g id="text_50">
      <!-- 440 -->
      <g style="fill: #262626" transform="translate(27.825156 61.057206)scale(0.11 -0.11)">
       <use xlink:href="#ArialMT-34"/>
       <use xlink:href="#ArialMT-34" x="55.615234"/>
       <use xlink:href="#ArialMT-30" x="111.230469"/>
      </g>
     </g>
    </g>
    <g id="ytick_25">
     <g id="line2d_50">
      <path d="M 55.67625 57.120409 
L 316.97 57.120409 
" clip-path="url(#pc872384993)" style="fill: none; stroke: #ffffff; stroke-linecap: round"/>
     </g>
     <g id="text_51">
      <!-- 440 -->
      <g style="fill: #262626" transform="translate(27.825156 61.057206)scale(0.11 -0.11)">
       <use xlink:href="#ArialMT-34"/>
       <use xlink:href="#ArialMT-34" x="55.615234"/>
       <use xlink:href="#ArialMT-30" x="111.230469"/>
      </g>
     </g>
    </g>
    <g id="text_52">
     <!-- Y-Coordinate [m] -->
     <g style="fill: #262626" transform="translate(21.440156 207.703125)rotate(-90)scale(0.12 -0.12)">
      <defs>
       <path id="ArialMT-59" d="M 1784 0 
L 1784 1941 
L 19 4581 
L 756 4581 
L 1659 3200 
Q 1909 2813 2125 2425 
Q 2331 2784 2625 3234 
L 3513 4581 
L 4219 4581 
L 2391 1941 
L 2391 0 
L 1784 0 
z
" transform="scale(0.015625)"/>
      </defs>
      <use xlink:href="#ArialMT-59"/>
      <use xlink:href="#ArialMT-2d" x="57.574219"/>
      <use xlink:href="#ArialMT-43" x="90.875"/>
      <use xlink:href="#ArialMT-6f" x="163.091797"/>
      <use xlink:href="#ArialMT-6f" x="218.707031"/>
      <use xlink:href="#ArialMT-72" x="274.322266"/>
      <use xlink:href="#ArialMT-64" x="307.623047"/>
      <use xlink:href="#ArialMT-69" x="363.238281"/>
      <use xlink:href="#ArialMT-6e" x="385.455078"/>
      <use xlink:href="#ArialMT-61" x="441.070312"/>
      <use xlink:href="#ArialMT-74" x="496.685547"/>
      <use xlink:href="#ArialMT-65" x="524.46875"/>
      <use xlink:href="#ArialMT-20" x="580.083984"/>
      <use xlink:href="#ArialMT-5b" x="607.867188"/>
      <use xlink:href="#ArialMT-6d" x="635.650391"/>
      <use xlink:href="#ArialMT-5d" x="718.951172"/>
     </g>
    </g>
   </g>
   <g id="PathCollection_1">
    <path d="M 79.430227 277.138943 
C 80.367862 277.138943 81.26722 276.766417 81.930227 276.103409 
C 82.593235 275.440401 82.965761 274.541044 82.965761 273.603409 
C 82.965761 272.665775 82.593235 271.766417 81.930227 271.103409 
C 81.26722 270.440401 80.367862 270.067875 79.430227 270.067875 
C 78.492593 270.067875 77.593235 270.440401 76.930227 271.103409 
C 76.26722 271.766417 75.894693 272.665775 75.894693 273.603409 
C 75.894693 274.541044 76.26722 275.440401 76.930227 276.103409 
C 77.593235 276.766417 78.492593 277.138943 79.430227 277.138943 
z
" clip-path="url(#pc872384993)" style="fill: #344255"/>
    <path d="M 131.688977 277.138943 
C 132.626612 277.138943 133.52597 276.766417 134.188977 276.103409 
C 134.851985 275.440401 135.224511 274.541044 135.224511 273.603409 
C 135.224511 272.665775 134.851985 271.766417 134.188977 271.103409 
C 133.52597 270.440401 132.626612 270.067875 131.688977 270.067875 
C 130.751343 270.067875 129.851985 270.440401 129.188977 271.103409 
C 128.52597 271.766417 128.153443 272.665775 128.153443 273.603409 
C 128.153443 274.541044 128.52597 275.440401 129.188977 276.103409 
C 129.851985 276.766417 130.751343 277.138943 131.688977 277.138943 
z
" clip-path="url(#pc872384993)" style="fill: #242629"/>
    <path d="M 183.947727 277.345812 
C 184.940224 277.345812 185.892205 276.951489 186.594006 276.249688 
C 187.295807 275.547886 187.69013 274.595906 187.69013 273.603409 
C 187.69013 272.610912 187.295807 271.658932 186.594006 270.957131 
C 185.892205 270.255329 184.940224 269.861006 183.947727 269.861006 
C 182.95523 269.861006 182.00325 270.255329 181.301449 270.957131 
C 180.599647 271.658932 180.205324 272.610912 180.205324 273.603409 
C 180.205324 274.595906 180.599647 275.547886 181.301449 276.249688 
C 182.00325 276.951489 182.95523 277.345812 183.947727 277.345812 
z
" clip-path="url(#pc872384993)" style="fill: #3c506b"/>
    <path d="M 236.206477 280.320093 
C 237.987763 280.320093 239.696331 279.612381 240.95589 278.352822 
C 242.215449 277.093263 242.923161 275.384694 242.923161 273.603409 
C 242.923161 271.822124 242.215449 270.113555 240.95589 268.853997 
C 239.696331 267.594438 237.987763 266.886725 236.206477 266.886725 
C 234.425192 266.886725 232.716624 267.594438 231.457065 268.853997 
C 230.197506 270.113555 229.489794 271.822124 229.489794 273.603409 
C 229.489794 275.384694 230.197506 277.093263 231.457065 278.352822 
C 232.716624 279.612381 234.425192 280.320093 236.206477 280.320093 
z
" clip-path="url(#pc872384993)" style="fill: #4a6891"/>
    <path d="M 288.465227 280.202246 
C 290.215259 280.202246 291.89385 279.506951 293.131309 278.269491 
C 294.368769 277.032032 295.064064 275.353441 295.064064 273.603409 
C 295.064064 271.853377 294.368769 270.174786 293.131309 268.937327 
C 291.89385 267.699868 290.215259 267.004573 288.465227 267.004573 
C 286.715195 267.004573 285.036605 267.699868 283.799145 268.937327 
C 282.561686 270.174786 281.866391 271.853377 281.866391 273.603409 
C 281.866391 275.353441 282.561686 277.032032 283.799145 278.269491 
C 285.036605 279.506951 286.715195 280.202246 288.465227 280.202246 
z
" clip-path="url(#pc872384993)" style="fill: #577fb4"/>
    <path d="M 79.430227 223.018193 
C 80.367862 223.018193 81.26722 222.645667 81.930227 221.982659 
C 82.593235 221.319651 82.965761 220.420294 82.965761 219.482659 
C 82.965761 218.545025 82.593235 217.645667 81.930227 216.982659 
C 81.26722 216.319651 80.367862 215.947125 79.430227 215.947125 
C 78.492593 215.947125 77.593235 216.319651 76.930227 216.982659 
C 76.26722 217.645667 75.894693 218.545025 75.894693 219.482659 
C 75.894693 220.420294 76.26722 221.319651 76.930227 221.982659 
C 77.593235 222.645667 78.492593 223.018193 79.430227 223.018193 
z
" clip-path="url(#pc872384993)" style="fill: #242629"/>
    <path d="M 131.688977 223.018193 
C 132.626612 223.018193 133.52597 222.645667 134.188977 221.982659 
C 134.851985 221.319651 135.224511 220.420294 135.224511 219.482659 
C 135.224511 218.545025 134.851985 217.645667 134.188977 216.982659 
C 133.52597 216.319651 132.626612 215.947125 131.688977 215.947125 
C 130.751343 215.947125 129.851985 216.319651 129.188977 216.982659 
C 128.52597 217.645667 128.153443 218.545025 128.153443 219.482659 
C 128.153443 220.420294 128.52597 221.319651 129.188977 221.982659 
C 129.851985 222.645667 130.751343 223.018193 131.688977 223.018193 
z
" clip-path="url(#pc872384993)" style="fill: #242629"/>
    <path d="M 183.947727 223.018193 
C 184.885362 223.018193 185.78472 222.645667 186.447727 221.982659 
C 187.110735 221.319651 187.483261 220.420294 187.483261 219.482659 
C 187.483261 218.545025 187.110735 217.645667 186.447727 216.982659 
C 185.78472 216.319651 184.885362 215.947125 183.947727 215.947125 
C 183.010093 215.947125 182.110735 216.319651 181.447727 216.982659 
C 180.78472 217.645667 180.412193 218.545025 180.412193 219.482659 
C 180.412193 220.420294 180.78472 221.319651 181.447727 221.982659 
C 182.110735 222.645667 183.010093 223.018193 183.947727 223.018193 
z
" clip-path="url(#pc872384993)" style="fill: #313c4d"/>
    <path d="M 236.206477 226.22298 
C 237.994031 226.22298 239.708612 225.512777 240.972604 224.248785 
C 242.236595 222.984794 242.946798 221.270213 242.946798 219.482659 
C 242.946798 217.695105 242.236595 215.980524 240.972604 214.716533 
C 239.708612 213.452541 237.994031 212.742339 236.206477 212.742339 
C 234.418923 212.742339 232.704342 213.452541 231.440351 214.716533 
C 230.17636 215.980524 229.466157 217.695105 229.466157 219.482659 
C 229.466157 221.270213 230.17636 222.984794 231.440351 224.248785 
C 232.704342 225.512777 234.418923 226.22298 236.206477 226.22298 
z
" clip-path="url(#pc872384993)" style="fill: #3f5573"/>
    <path d="M 288.465227 226.369256 
C 290.291574 226.369256 292.043365 225.643641 293.334787 224.352219 
C 294.626209 223.060796 295.351825 221.309006 295.351825 219.482659 
C 295.351825 217.656312 294.626209 215.904522 293.334787 214.613099 
C 292.043365 213.321677 290.291574 212.596062 288.465227 212.596062 
C 286.63888 212.596062 284.88709 213.321677 283.595668 214.613099 
C 282.304245 215.904522 281.57863 217.656312 281.57863 219.482659 
C 281.57863 221.309006 282.304245 223.060796 283.595668 224.352219 
C 284.88709 225.643641 286.63888 226.369256 288.465227 226.369256 
z
" clip-path="url(#pc872384993)" style="fill: #5073a1"/>
    <path d="M 79.430227 168.897443 
C 80.367862 168.897443 81.26722 168.524917 81.930227 167.861909 
C 82.593235 167.198901 82.965761 166.299544 82.965761 165.361909 
C 82.965761 164.424275 82.593235 163.524917 81.930227 162.861909 
C 81.26722 162.198901 80.367862 161.826375 79.430227 161.826375 
C 78.492593 161.826375 77.593235 162.198901 76.930227 162.861909 
C 76.26722 163.524917 75.894693 164.424275 75.894693 165.361909 
C 75.894693 166.299544 76.26722 167.198901 76.930227 167.861909 
C 77.593235 168.524917 78.492593 168.897443 79.430227 168.897443 
z
" clip-path="url(#pc872384993)" style="fill: #405775"/>
    <path d="M 131.688977 168.897443 
C 132.626612 168.897443 133.52597 168.524917 134.188977 167.861909 
C 134.851985 167.198901 135.224511 166.299544 135.224511 165.361909 
C 135.224511 164.424275 134.851985 163.524917 134.188977 162.861909 
C 133.52597 162.198901 132.626612 161.826375 131.688977 161.826375 
C 130.751343 161.826375 129.851985 162.198901 129.188977 162.861909 
C 128.52597 163.524917 128.153443 164.424275 128.153443 165.361909 
C 128.153443 166.299544 128.52597 167.198901 129.188977 167.861909 
C 129.851985 168.524917 130.751343 168.897443 131.688977 168.897443 
z
" clip-path="url(#pc872384993)" style="fill: #344255"/>
    <path d="M 183.947727 171.832567 
C 185.663766 171.832567 187.309751 171.150778 188.523174 169.937355 
C 189.736596 168.723933 190.418386 167.077948 190.418386 165.361909 
C 190.418386 163.64587 189.736596 161.999885 188.523174 160.786463 
C 187.309751 159.57304 185.663766 158.891251 183.947727 158.891251 
C 182.231689 158.891251 180.585703 159.57304 179.372281 160.786463 
C 178.158858 161.999885 177.477069 163.64587 177.477069 165.361909 
C 177.477069 167.077948 178.158858 168.723933 179.372281 169.937355 
C 180.585703 171.150778 182.231689 171.832567 183.947727 171.832567 
z
" clip-path="url(#pc872384993)" style="fill: #394a62"/>
    <path d="M 236.206477 173.254322 
C 238.29957 173.254322 240.307216 172.422727 241.787256 170.942688 
C 243.267296 169.462648 244.09889 167.455001 244.09889 165.361909 
C 244.09889 163.268817 243.267296 161.26117 241.787256 159.781131 
C 240.307216 158.301091 238.29957 157.469496 236.206477 157.469496 
C 234.113385 157.469496 232.105738 158.301091 230.625699 159.781131 
C 229.145659 161.26117 228.314065 163.268817 228.314065 165.361909 
C 228.314065 167.455001 229.145659 169.462648 230.625699 170.942688 
C 232.105738 172.422727 234.113385 173.254322 236.206477 173.254322 
z
" clip-path="url(#pc872384993)" style="fill: #435c7e"/>
    <path d="M 288.465227 174.361537 
C 290.851957 174.361537 293.141253 173.413279 294.828925 171.725607 
C 296.516598 170.037935 297.464855 167.748638 297.464855 165.361909 
C 297.464855 162.97518 296.516598 160.685884 294.828925 158.998211 
C 293.141253 157.310539 290.851957 156.362281 288.465227 156.362281 
C 286.078498 156.362281 283.789202 157.310539 282.101529 158.998211 
C 280.413857 160.685884 279.465599 162.97518 279.465599 165.361909 
C 279.465599 167.748638 280.413857 170.037935 282.101529 171.725607 
C 283.789202 173.413279 286.078498 174.361537 288.465227 174.361537 
z
" clip-path="url(#pc872384993)" style="fill: #5378aa"/>
    <path d="M 79.430227 121.072947 
C 82.037648 121.072947 84.538627 120.037008 86.382351 118.193283 
C 88.226076 116.349558 89.262016 113.84858 89.262016 111.241159 
C 89.262016 108.633738 88.226076 106.13276 86.382351 104.289035 
C 84.538627 102.44531 82.037648 101.409371 79.430227 101.409371 
C 76.822807 101.409371 74.321828 102.44531 72.478103 104.289035 
C 70.634378 106.13276 69.598439 108.633738 69.598439 111.241159 
C 69.598439 113.84858 70.634378 116.349558 72.478103 118.193283 
C 74.321828 120.037008 76.822807 121.072947 79.430227 121.072947 
z
" clip-path="url(#pc872384993)" style="fill: #4b6a94"/>
    <path d="M 131.688977 118.072106 
C 133.500565 118.072106 135.2382 117.352354 136.519186 116.071368 
C 137.800172 114.790381 138.519924 113.052747 138.519924 111.241159 
C 138.519924 109.429571 137.800172 107.691937 136.519186 106.41095 
C 135.2382 105.129964 133.500565 104.410213 131.688977 104.410213 
C 129.877389 104.410213 128.139755 105.129964 126.858769 106.41095 
C 125.577782 107.691937 124.858031 109.429571 124.858031 111.241159 
C 124.858031 113.052747 125.577782 114.790381 126.858769 116.071368 
C 128.139755 117.352354 129.877389 118.072106 131.688977 118.072106 
z
" clip-path="url(#pc872384993)" style="fill: #3e5370"/>
    <path d="M 183.947727 117.892807 
C 185.711765 117.892807 187.40379 117.191947 188.651153 115.944584 
C 189.898516 114.697221 190.599375 113.005197 190.599375 111.241159 
C 190.599375 109.477121 189.898516 107.785097 188.651153 106.537734 
C 187.40379 105.290371 185.711765 104.589511 183.947727 104.589511 
C 182.18369 104.589511 180.491665 105.290371 179.244302 106.537734 
C 177.996939 107.785097 177.296079 109.477121 177.296079 111.241159 
C 177.296079 113.005197 177.996939 114.697221 179.244302 115.944584 
C 180.491665 117.191947 182.18369 117.892807 183.947727 117.892807 
z
" clip-path="url(#pc872384993)" style="fill: #425a7b"/>
    <path d="M 236.206477 119.3757 
C 238.363783 119.3757 240.433021 118.518594 241.958466 116.993148 
C 243.483912 115.467703 244.341018 113.398465 244.341018 111.241159 
C 244.341018 109.083854 243.483912 107.014615 241.958466 105.48917 
C 240.433021 103.963725 238.363783 103.106618 236.206477 103.106618 
C 234.049172 103.106618 231.979933 103.963725 230.454488 105.48917 
C 228.929043 107.014615 228.071936 109.083854 228.071936 111.241159 
C 228.071936 113.398465 228.929043 115.467703 230.454488 116.993148 
C 231.979933 118.518594 234.049172 119.3757 236.206477 119.3757 
z
" clip-path="url(#pc872384993)" style="fill: #49668e"/>
    <path d="M 288.465227 120.122193 
C 290.820505 120.122193 293.079634 119.186431 294.745067 117.520999 
C 296.4105 115.855566 297.346261 113.596437 297.346261 111.241159 
C 297.346261 108.885881 296.4105 106.626753 294.745067 104.96132 
C 293.079634 103.295887 290.820505 102.360125 288.465227 102.360125 
C 286.109949 102.360125 283.850821 103.295887 282.185388 104.96132 
C 280.519955 106.626753 279.584193 108.885881 279.584193 111.241159 
C 279.584193 113.596437 280.519955 115.855566 282.185388 117.520999 
C 283.850821 119.186431 286.109949 120.122193 288.465227 120.122193 
z
" clip-path="url(#pc872384993)" style="fill: #557caf"/>
    <path d="M 79.430227 66.344613 
C 81.876515 66.344613 84.222938 65.372693 85.952724 63.642906 
C 87.682511 61.91312 88.654431 59.566697 88.654431 57.120409 
C 88.654431 54.674122 87.682511 52.327698 85.952724 50.597912 
C 84.222938 48.868126 81.876515 47.896205 79.430227 47.896205 
C 76.98394 47.896205 74.637517 48.868126 72.90773 50.597912 
C 71.177944 52.327698 70.206023 54.674122 70.206023 57.120409 
C 70.206023 59.566697 71.177944 61.91312 72.90773 63.642906 
C 74.637517 65.372693 76.98394 66.344613 79.430227 66.344613 
z
" clip-path="url(#pc872384993)" style="fill: #557caf"/>
    <path d="M 131.688977 65.069044 
C 133.79698 65.069044 135.818928 64.231526 137.309511 62.740943 
C 138.800094 61.25036 139.637613 59.228412 139.637613 57.120409 
C 139.637613 55.012406 138.800094 52.990458 137.309511 51.499875 
C 135.818928 50.009292 133.79698 49.171774 131.688977 49.171774 
C 129.580975 49.171774 127.559026 50.009292 126.068443 51.499875 
C 124.57786 52.990458 123.740342 55.012406 123.740342 57.120409 
C 123.740342 59.228412 124.57786 61.25036 126.068443 62.740943 
C 127.559026 64.231526 129.580975 65.069044 131.688977 65.069044 
z
" clip-path="url(#pc872384993)" style="fill: #4e6f9b"/>
    <path d="M 183.947727 63.711207 
C 185.695627 63.711207 187.372173 63.016759 188.608125 61.780807 
C 189.844077 60.544855 190.538525 58.868309 190.538525 57.120409 
C 190.538525 55.372509 189.844077 53.695963 188.608125 52.460011 
C 187.372173 51.224059 185.695627 50.529611 183.947727 50.529611 
C 182.199827 50.529611 180.523281 51.224059 179.287329 52.460011 
C 178.051377 53.695963 177.356929 55.372509 177.356929 57.120409 
C 177.356929 58.868309 178.051377 60.544855 179.287329 61.780807 
C 180.523281 63.016759 182.199827 63.711207 183.947727 63.711207 
z
" clip-path="url(#pc872384993)" style="fill: #4f719e"/>
    <path d="M 236.206477 65.971547 
C 238.553826 65.971547 240.80535 65.038935 242.465177 63.379108 
C 244.125003 61.719282 245.057615 59.467758 245.057615 57.120409 
C 245.057615 54.77306 244.125003 52.521536 242.465177 50.86171 
C 240.80535 49.201883 238.553826 48.269272 236.206477 48.269272 
C 233.859128 48.269272 231.607604 49.201883 229.947778 50.86171 
C 228.287952 52.521536 227.35534 54.77306 227.35534 57.120409 
C 227.35534 59.467758 228.287952 61.719282 229.947778 63.379108 
C 231.607604 65.038935 233.859128 65.971547 236.206477 65.971547 
z
" clip-path="url(#pc872384993)" style="fill: #5276a7"/>
    <path d="M 288.465227 66.02886 
C 290.827776 66.02886 293.093879 65.090209 294.764453 63.419635 
C 296.435027 61.749061 297.373678 59.482958 297.373678 57.120409 
C 297.373678 54.75786 296.435027 52.491758 294.764453 50.821183 
C 293.093879 49.150609 290.827776 48.211959 288.465227 48.211959 
C 286.102679 48.211959 283.836576 49.150609 282.166001 50.821183 
C 280.495427 52.491758 279.556777 54.75786 279.556777 57.120409 
C 279.556777 59.482958 280.495427 61.749061 282.166001 63.419635 
C 283.836576 65.090209 286.102679 66.02886 288.465227 66.02886 
z
" clip-path="url(#pc872384993)" style="fill: #5b86bf"/>
   </g>
   <g id="PathCollection_2"/>
   <g id="PathCollection_3"/>
   <g id="PathCollection_4"/>
   <g id="PathCollection_5"/>
   <g id="PathCollection_6"/>
   <g id="PathCollection_7"/>
   <g id="PathCollection_8"/>
   <g id="PathCollection_9"/>
   <g id="PathCollection_10"/>
   <g id="PathCollection_11"/>
   <g id="PathCollection_12"/>
   <g id="patch_3">
    <path d="M 55.67625 298.20375 
L 55.67625 27.6 
" style="fill: none; stroke: #ffffff; stroke-width: 1.25; stroke-linejoin: miter; stroke-linecap: square"/>
   </g>
   <g id="patch_4">
    <path d="M 316.97 298.20375 
L 316.97 27.6 
" style="fill: none; stroke: #ffffff; stroke-width: 1.25; stroke-linejoin: miter; stroke-linecap: square"/>
   </g>
   <g id="patch_5">
    <path d="M 55.67625 298.20375 
L 316.97 298.20375 
" style="fill: none; stroke: #ffffff; stroke-width: 1.25; stroke-linejoin: miter; stroke-linecap: square"/>
   </g>
   <g id="patch_6">
    <path d="M 55.67625 27.6 
L 316.97 27.6 
" style="fill: none; stroke: #ffffff; stroke-width: 1.25; stroke-linejoin: miter; stroke-linecap: square"/>
   </g>
   <g id="text_53">
    <!-- MPL 1D0C Node Lifetime -->
    <g style="fill: #262626" transform="translate(118.52125 21.6)scale(0.12 -0.12)">
     <defs>
      <path id="ArialMT-4d" d="M 475 0 
L 475 4581 
L 1388 4581 
L 2472 1338 
Q 2622 884 2691 659 
Q 2769 909 2934 1394 
L 4031 4581 
L 4847 4581 
L 4847 0 
L 4263 0 
L 4263 3834 
L 2931 0 
L 2384 0 
L 1059 3900 
L 1059 0 
L 475 0 
z
" transform="scale(0.015625)"/>
      <path id="ArialMT-50" d="M 494 0 
L 494 4581 
L 2222 4581 
Q 2678 4581 2919 4538 
Q 3256 4481 3484 4323 
Q 3713 4166 3852 3881 
Q 3991 3597 3991 3256 
Q 3991 2672 3619 2267 
Q 3247 1863 2275 1863 
L 1100 1863 
L 1100 0 
L 494 0 
z
M 1100 2403 
L 2284 2403 
Q 2872 2403 3119 2622 
Q 3366 2841 3366 3238 
Q 3366 3525 3220 3729 
Q 3075 3934 2838 4000 
Q 2684 4041 2272 4041 
L 1100 4041 
L 1100 2403 
z
" transform="scale(0.015625)"/>
      <path id="ArialMT-4c" d="M 469 0 
L 469 4581 
L 1075 4581 
L 1075 541 
L 3331 541 
L 3331 0 
L 469 0 
z
" transform="scale(0.015625)"/>
      <path id="ArialMT-44" d="M 494 0 
L 494 4581 
L 2072 4581 
Q 2606 4581 2888 4516 
Q 3281 4425 3559 4188 
Q 3922 3881 4101 3404 
Q 4281 2928 4281 2316 
Q 4281 1794 4159 1391 
Q 4038 988 3847 723 
Q 3656 459 3429 307 
Q 3203 156 2883 78 
Q 2563 0 2147 0 
L 494 0 
z
M 1100 541 
L 2078 541 
Q 2531 541 2789 625 
Q 3047 709 3200 863 
Q 3416 1078 3536 1442 
Q 3656 1806 3656 2325 
Q 3656 3044 3420 3430 
Q 3184 3816 2847 3947 
Q 2603 4041 2063 4041 
L 1100 4041 
L 1100 541 
z
" transform="scale(0.015625)"/>
      <path id="ArialMT-4e" d="M 488 0 
L 488 4581 
L 1109 4581 
L 3516 984 
L 3516 4581 
L 4097 4581 
L 4097 0 
L 3475 0 
L 1069 3600 
L 1069 0 
L 488 0 
z
" transform="scale(0.015625)"/>
      <path id="ArialMT-66" d="M 556 0 
L 556 2881 
L 59 2881 
L 59 3319 
L 556 3319 
L 556 3672 
Q 556 4006 616 4169 
Q 697 4388 901 4523 
Q 1106 4659 1475 4659 
Q 1713 4659 2000 4603 
L 1916 4113 
Q 1741 4144 1584 4144 
Q 1328 4144 1222 4034 
Q 1116 3925 1116 3625 
L 1116 3319 
L 1763 3319 
L 1763 2881 
L 1116 2881 
L 1116 0 
L 556 0 
z
" transform="scale(0.015625)"/>
     </defs>
     <use xlink:href="#ArialMT-4d"/>
     <use xlink:href="#ArialMT-50" x="83.300781"/>
     <use xlink:href="#ArialMT-4c" x="150"/>
     <use xlink:href="#ArialMT-20" x="201.865234"/>
     <use xlink:href="#ArialMT-31" x="229.648438"/>
     <use xlink:href="#ArialMT-44" x="285.263672"/>
     <use xlink:href="#ArialMT-30" x="357.480469"/>
     <use xlink:href="#ArialMT-43" x="413.095703"/>
     <use xlink:href="#ArialMT-20" x="485.3125"/>
     <use xlink:href="#ArialMT-4e" x="513.095703"/>
     <use xlink:href="#ArialMT-6f" x="585.3125"/>
     <use xlink:href="#ArialMT-64" x="640.927734"/>
     <use xlink:href="#ArialMT-65" x="696.542969"/>
     <use xlink:href="#ArialMT-20" x="752.158203"/>
     <use xlink:href="#ArialMT-4c" x="779.941406"/>
     <use xlink:href="#ArialMT-69" x="835.556641"/>
     <use xlink:href="#ArialMT-66" x="857.773438"/>
     <use xlink:href="#ArialMT-65" x="885.556641"/>
     <use xlink:href="#ArialMT-74" x="941.171875"/>
     <use xlink:href="#ArialMT-69" x="968.955078"/>
     <use xlink:href="#ArialMT-6d" x="991.171875"/>
     <use xlink:href="#ArialMT-65" x="1074.472656"/>
    </g>
   </g>
   <g id="legend_1">
    <g id="patch_7">
     <path d="M 324.67 265.824922 
L 445.652812 265.824922 
Q 447.852812 265.824922 447.852812 263.624922 
L 447.852812 62.178828 
Q 447.852812 59.978828 445.652812 59.978828 
L 324.67 59.978828 
Q 322.47 59.978828 322.47 62.178828 
L 322.47 263.624922 
Q 322.47 265.824922 324.67 265.824922 
z
" style="fill: #eaeaf2; opacity: 0.8; stroke: #cccccc; stroke-linejoin: miter"/>
    </g>
    <g id="text_54">
     <!-- PDR [%] -->
     <g style="fill: #262626" transform="translate(357.67 72.386484)scale(0.11 -0.11)">
      <defs>
       <path id="ArialMT-52" d="M 503 0 
L 503 4581 
L 2534 4581 
Q 3147 4581 3465 4457 
Q 3784 4334 3975 4021 
Q 4166 3709 4166 3331 
Q 4166 2844 3850 2509 
Q 3534 2175 2875 2084 
Q 3116 1969 3241 1856 
Q 3506 1613 3744 1247 
L 4541 0 
L 3778 0 
L 3172 953 
Q 2906 1366 2734 1584 
Q 2563 1803 2427 1890 
Q 2291 1978 2150 2013 
Q 2047 2034 1813 2034 
L 1109 2034 
L 1109 0 
L 503 0 
z
M 1109 2559 
L 2413 2559 
Q 2828 2559 3062 2645 
Q 3297 2731 3419 2920 
Q 3541 3109 3541 3331 
Q 3541 3656 3305 3865 
Q 3069 4075 2559 4075 
L 1109 4075 
L 1109 2559 
z
" transform="scale(0.015625)"/>
       <path id="ArialMT-25" d="M 372 3481 
Q 372 3972 619 4315 
Q 866 4659 1334 4659 
Q 1766 4659 2048 4351 
Q 2331 4044 2331 3447 
Q 2331 2866 2045 2552 
Q 1759 2238 1341 2238 
Q 925 2238 648 2547 
Q 372 2856 372 3481 
z
M 1350 4272 
Q 1141 4272 1002 4090 
Q 863 3909 863 3425 
Q 863 2984 1003 2804 
Q 1144 2625 1350 2625 
Q 1563 2625 1702 2806 
Q 1841 2988 1841 3469 
Q 1841 3913 1700 4092 
Q 1559 4272 1350 4272 
z
M 1353 -169 
L 3859 4659 
L 4316 4659 
L 1819 -169 
L 1353 -169 
z
M 3334 1075 
Q 3334 1569 3581 1911 
Q 3828 2253 4300 2253 
Q 4731 2253 5014 1945 
Q 5297 1638 5297 1041 
Q 5297 459 5011 145 
Q 4725 -169 4303 -169 
Q 3888 -169 3611 142 
Q 3334 453 3334 1075 
z
M 4316 1866 
Q 4103 1866 3964 1684 
Q 3825 1503 3825 1019 
Q 3825 581 3965 400 
Q 4106 219 4313 219 
Q 4528 219 4667 400 
Q 4806 581 4806 1063 
Q 4806 1506 4665 1686 
Q 4525 1866 4316 1866 
z
" transform="scale(0.015625)"/>
      </defs>
      <use xlink:href="#ArialMT-50"/>
      <use xlink:href="#ArialMT-44" x="66.699219"/>
      <use xlink:href="#ArialMT-52" x="138.916016"/>
      <use xlink:href="#ArialMT-20" x="211.132812"/>
      <use xlink:href="#ArialMT-5b" x="238.916016"/>
      <use xlink:href="#ArialMT-25" x="266.699219"/>
      <use xlink:href="#ArialMT-5d" x="355.615234"/>
     </g>
    </g>
    <g id="PathCollection_13">
     <defs>
      <path id="m83a8e024a0" d="M 0 3 
C 0.795609 3 1.55874 2.683901 2.12132 2.12132 
C 2.683901 1.55874 3 0.795609 3 0 
C 3 -0.795609 2.683901 -1.55874 2.12132 -2.12132 
C 1.55874 -2.683901 0.795609 -3 0 -3 
C -0.795609 -3 -1.55874 -2.683901 -2.12132 -2.12132 
C -2.683901 -1.55874 -3 -0.795609 -3 0 
C -3 0.795609 -2.683901 1.55874 -2.12132 2.12132 
C -1.55874 2.683901 -0.795609 3 0 3 
z
" style="stroke: #5b86bf"/>
     </defs>
     <g>
      <use xlink:href="#m83a8e024a0" x="337.87" y="85.058828" style="fill: #5b86bf; stroke: #5b86bf"/>
     </g>
    </g>
    <g id="text_55">
     <!-- 25 -->
     <g style="fill: #262626" transform="translate(357.67 87.946328)scale(0.11 -0.11)">
      <defs>
       <path id="ArialMT-35" d="M 266 1200 
L 856 1250 
Q 922 819 1161 601 
Q 1400 384 1738 384 
Q 2144 384 2425 690 
Q 2706 997 2706 1503 
Q 2706 1984 2436 2262 
Q 2166 2541 1728 2541 
Q 1456 2541 1237 2417 
Q 1019 2294 894 2097 
L 366 2166 
L 809 4519 
L 3088 4519 
L 3088 3981 
L 1259 3981 
L 1013 2750 
Q 1425 3038 1878 3038 
Q 2478 3038 2890 2622 
Q 3303 2206 3303 1553 
Q 3303 931 2941 478 
Q 2500 -78 1738 -78 
Q 1113 -78 717 272 
Q 322 622 266 1200 
z
" transform="scale(0.015625)"/>
      </defs>
      <use xlink:href="#ArialMT-32"/>
      <use xlink:href="#ArialMT-35" x="55.615234"/>
     </g>
    </g>
    <g id="PathCollection_14">
     <defs>
      <path id="m16f287a3d7" d="M 0 3 
C 0.795609 3 1.55874 2.683901 2.12132 2.12132 
C 2.683901 1.55874 3 0.795609 3 0 
C 3 -0.795609 2.683901 -1.55874 2.12132 -2.12132 
C 1.55874 -2.683901 0.795609 -3 0 -3 
C -0.795609 -3 -1.55874 -2.683901 -2.12132 -2.12132 
C -2.683901 -1.55874 -3 -0.795609 -3 0 
C -3 0.795609 -2.683901 1.55874 -2.12132 2.12132 
C -1.55874 2.683901 -0.795609 3 0 3 
z
" style="stroke: #5073a1"/>
     </defs>
     <g>
      <use xlink:href="#m16f287a3d7" x="337.87" y="100.618672" style="fill: #5073a1; stroke: #5073a1"/>
     </g>
    </g>
    <g id="text_56">
     <!-- 50 -->
     <g style="fill: #262626" transform="translate(357.67 103.506172)scale(0.11 -0.11)">
      <use xlink:href="#ArialMT-35"/>
      <use xlink:href="#ArialMT-30" x="55.615234"/>
     </g>
    </g>
    <g id="PathCollection_15">
     <defs>
      <path id="m416ef6c03c" d="M 0 3 
C 0.795609 3 1.55874 2.683901 2.12132 2.12132 
C 2.683901 1.55874 3 0.795609 3 0 
C 3 -0.795609 2.683901 -1.55874 2.12132 -2.12132 
C 1.55874 -2.683901 0.795609 -3 0 -3 
C -0.795609 -3 -1.55874 -2.683901 -2.12132 -2.12132 
C -2.683901 -1.55874 -3 -0.795609 -3 0 
C -3 0.795609 -2.683901 1.55874 -2.12132 2.12132 
C -1.55874 2.683901 -0.795609 3 0 3 
z
" style="stroke: #455f83"/>
     </defs>
     <g>
      <use xlink:href="#m416ef6c03c" x="337.87" y="116.178516" style="fill: #455f83; stroke: #455f83"/>
     </g>
    </g>
    <g id="text_57">
     <!-- 75 -->
     <g style="fill: #262626" transform="translate(357.67 119.066016)scale(0.11 -0.11)">
      <defs>
       <path id="ArialMT-37" d="M 303 3981 
L 303 4522 
L 3269 4522 
L 3269 4084 
Q 2831 3619 2401 2847 
Q 1972 2075 1738 1259 
Q 1569 684 1522 0 
L 944 0 
Q 953 541 1156 1306 
Q 1359 2072 1739 2783 
Q 2119 3494 2547 3981 
L 303 3981 
z
" transform="scale(0.015625)"/>
      </defs>
      <use xlink:href="#ArialMT-37"/>
      <use xlink:href="#ArialMT-35" x="55.615234"/>
     </g>
    </g>
    <g id="PathCollection_16">
     <defs>
      <path id="me928967659" d="M 0 3 
C 0.795609 3 1.55874 2.683901 2.12132 2.12132 
C 2.683901 1.55874 3 0.795609 3 0 
C 3 -0.795609 2.683901 -1.55874 2.12132 -2.12132 
C 1.55874 -2.683901 0.795609 -3 0 -3 
C -0.795609 -3 -1.55874 -2.683901 -2.12132 -2.12132 
C -2.683901 -1.55874 -3 -0.795609 -3 0 
C -3 0.795609 -2.683901 1.55874 -2.12132 2.12132 
C -1.55874 2.683901 -0.795609 3 0 3 
z
" style="stroke: #3a4c65"/>
     </defs>
     <g>
      <use xlink:href="#me928967659" x="337.87" y="131.738359" style="fill: #3a4c65; stroke: #3a4c65"/>
     </g>
    </g>
    <g id="text_58">
     <!-- 100 -->
     <g style="fill: #262626" transform="translate(357.67 134.625859)scale(0.11 -0.11)">
      <use xlink:href="#ArialMT-31"/>
      <use xlink:href="#ArialMT-30" x="55.615234"/>
      <use xlink:href="#ArialMT-30" x="111.230469"/>
     </g>
    </g>
    <g id="PathCollection_17">
     <defs>
      <path id="m124267f557" d="M 0 3 
C 0.795609 3 1.55874 2.683901 2.12132 2.12132 
C 2.683901 1.55874 3 0.795609 3 0 
C 3 -0.795609 2.683901 -1.55874 2.12132 -2.12132 
C 1.55874 -2.683901 0.795609 -3 0 -3 
C -0.795609 -3 -1.55874 -2.683901 -2.12132 -2.12132 
C -2.683901 -1.55874 -3 -0.795609 -3 0 
C -3 0.795609 -2.683901 1.55874 -2.12132 2.12132 
C -1.55874 2.683901 -0.795609 3 0 3 
z
" style="stroke: #2f3947"/>
     </defs>
     <g>
      <use xlink:href="#m124267f557" x="337.87" y="147.298203" style="fill: #2f3947; stroke: #2f3947"/>
     </g>
    </g>
    <g id="text_59">
     <!-- 125 -->
     <g style="fill: #262626" transform="translate(357.67 150.185703)scale(0.11 -0.11)">
      <use xlink:href="#ArialMT-31"/>
      <use xlink:href="#ArialMT-32" x="55.615234"/>
      <use xlink:href="#ArialMT-35" x="111.230469"/>
     </g>
    </g>
    <g id="PathCollection_18">
     <defs>
      <path id="mef96658fbe" d="M 0 3 
C 0.795609 3 1.55874 2.683901 2.12132 2.12132 
C 2.683901 1.55874 3 0.795609 3 0 
C 3 -0.795609 2.683901 -1.55874 2.12132 -2.12132 
C 1.55874 -2.683901 0.795609 -3 0 -3 
C -0.795609 -3 -1.55874 -2.683901 -2.12132 -2.12132 
C -2.683901 -1.55874 -3 -0.795609 -3 0 
C -3 0.795609 -2.683901 1.55874 -2.12132 2.12132 
C -1.55874 2.683901 -0.795609 3 0 3 
z
" style="stroke: #242629"/>
     </defs>
     <g>
      <use xlink:href="#mef96658fbe" x="337.87" y="162.858047" style="fill: #242629; stroke: #242629"/>
     </g>
    </g>
    <g id="text_60">
     <!-- 150 -->
     <g style="fill: #262626" transform="translate(357.67 165.745547)scale(0.11 -0.11)">
      <use xlink:href="#ArialMT-31"/>
      <use xlink:href="#ArialMT-35" x="55.615234"/>
      <use xlink:href="#ArialMT-30" x="111.230469"/>
     </g>
    </g>
    <g id="text_61">
     <!-- Node LifeTime [s] -->
     <g style="fill: #262626" transform="translate(357.67 181.439453)scale(0.11 -0.11)">
      <defs>
       <path id="ArialMT-54" d="M 1659 0 
L 1659 4041 
L 150 4041 
L 150 4581 
L 3781 4581 
L 3781 4041 
L 2266 4041 
L 2266 0 
L 1659 0 
z
" transform="scale(0.015625)"/>
       <path id="ArialMT-73" d="M 197 991 
L 753 1078 
Q 800 744 1014 566 
Q 1228 388 1613 388 
Q 2000 388 2187 545 
Q 2375 703 2375 916 
Q 2375 1106 2209 1216 
Q 2094 1291 1634 1406 
Q 1016 1563 777 1677 
Q 538 1791 414 1992 
Q 291 2194 291 2438 
Q 291 2659 392 2848 
Q 494 3038 669 3163 
Q 800 3259 1026 3326 
Q 1253 3394 1513 3394 
Q 1903 3394 2198 3281 
Q 2494 3169 2634 2976 
Q 2775 2784 2828 2463 
L 2278 2388 
Q 2241 2644 2061 2787 
Q 1881 2931 1553 2931 
Q 1166 2931 1000 2803 
Q 834 2675 834 2503 
Q 834 2394 903 2306 
Q 972 2216 1119 2156 
Q 1203 2125 1616 2013 
Q 2213 1853 2448 1751 
Q 2684 1650 2818 1456 
Q 2953 1263 2953 975 
Q 2953 694 2789 445 
Q 2625 197 2315 61 
Q 2006 -75 1616 -75 
Q 969 -75 630 194 
Q 291 463 197 991 
z
" transform="scale(0.015625)"/>
      </defs>
      <use xlink:href="#ArialMT-4e"/>
      <use xlink:href="#ArialMT-6f" x="72.216797"/>
      <use xlink:href="#ArialMT-64" x="127.832031"/>
      <use xlink:href="#ArialMT-65" x="183.447266"/>
      <use xlink:href="#ArialMT-20" x="239.0625"/>
      <use xlink:href="#ArialMT-4c" x="266.845703"/>
      <use xlink:href="#ArialMT-69" x="322.460938"/>
      <use xlink:href="#ArialMT-66" x="344.677734"/>
      <use xlink:href="#ArialMT-65" x="372.460938"/>
      <use xlink:href="#ArialMT-54" x="428.076172"/>
      <use xlink:href="#ArialMT-69" x="485.410156"/>
      <use xlink:href="#ArialMT-6d" x="507.626953"/>
      <use xlink:href="#ArialMT-65" x="590.927734"/>
      <use xlink:href="#ArialMT-20" x="646.542969"/>
      <use xlink:href="#ArialMT-5b" x="674.326172"/>
      <use xlink:href="#ArialMT-73" x="702.109375"/>
      <use xlink:href="#ArialMT-5d" x="752.109375"/>
     </g>
    </g>
    <g id="PathCollection_19">
     <defs>
      <path id="m60137da271" d="M 0 3.535534 
C 0.937635 3.535534 1.836992 3.163008 2.5 2.5 
C 3.163008 1.836992 3.535534 0.937635 3.535534 0 
C 3.535534 -0.937635 3.163008 -1.836992 2.5 -2.5 
C 1.836992 -3.163008 0.937635 -3.535534 0 -3.535534 
C -0.937635 -3.535534 -1.836992 -3.163008 -2.5 -2.5 
C -3.163008 -1.836992 -3.535534 -0.937635 -3.535534 0 
C -3.535534 0.937635 -3.163008 1.836992 -2.5 2.5 
C -1.836992 3.163008 -0.937635 3.535534 0 3.535534 
z
" style="stroke: #333333"/>
     </defs>
     <g>
      <use xlink:href="#m60137da271" x="337.87" y="194.111797" style="fill: #333333; stroke: #333333"/>
     </g>
    </g>
    <g id="text_62">
     <!-- 1328 -->
     <g style="fill: #262626" transform="translate(357.67 196.999297)scale(0.11 -0.11)">
      <defs>
       <path id="ArialMT-38" d="M 1131 2484 
Q 781 2613 612 2850 
Q 444 3088 444 3419 
Q 444 3919 803 4259 
Q 1163 4600 1759 4600 
Q 2359 4600 2725 4251 
Q 3091 3903 3091 3403 
Q 3091 3084 2923 2848 
Q 2756 2613 2416 2484 
Q 2838 2347 3058 2040 
Q 3278 1734 3278 1309 
Q 3278 722 2862 322 
Q 2447 -78 1769 -78 
Q 1091 -78 675 323 
Q 259 725 259 1325 
Q 259 1772 486 2073 
Q 713 2375 1131 2484 
z
M 1019 3438 
Q 1019 3113 1228 2906 
Q 1438 2700 1772 2700 
Q 2097 2700 2305 2904 
Q 2513 3109 2513 3406 
Q 2513 3716 2298 3927 
Q 2084 4138 1766 4138 
Q 1444 4138 1231 3931 
Q 1019 3725 1019 3438 
z
M 838 1322 
Q 838 1081 952 856 
Q 1066 631 1291 507 
Q 1516 384 1775 384 
Q 2178 384 2440 643 
Q 2703 903 2703 1303 
Q 2703 1709 2433 1975 
Q 2163 2241 1756 2241 
Q 1359 2241 1098 1978 
Q 838 1716 838 1322 
z
" transform="scale(0.015625)"/>
      </defs>
      <use xlink:href="#ArialMT-31"/>
      <use xlink:href="#ArialMT-33" x="55.615234"/>
      <use xlink:href="#ArialMT-32" x="111.230469"/>
      <use xlink:href="#ArialMT-38" x="166.845703"/>
     </g>
    </g>
    <g id="PathCollection_20">
     <defs>
      <path id="m51a2a732b6" d="M 0 5.428101 
C 1.439549 5.428101 2.820332 4.856162 3.838247 3.838247 
C 4.856162 2.820332 5.428101 1.439549 5.428101 0 
C 5.428101 -1.439549 4.856162 -2.820332 3.838247 -3.838247 
C 2.820332 -4.856162 1.439549 -5.428101 0 -5.428101 
C -1.439549 -5.428101 -2.820332 -4.856162 -3.838247 -3.838247 
C -4.856162 -2.820332 -5.428101 -1.439549 -5.428101 0 
C -5.428101 1.439549 -4.856162 2.820332 -3.838247 3.838247 
C -2.820332 4.856162 -1.439549 5.428101 0 5.428101 
z
" style="stroke: #333333"/>
     </defs>
     <g>
      <use xlink:href="#m51a2a732b6" x="337.87" y="209.671641" style="fill: #333333; stroke: #333333"/>
     </g>
    </g>
    <g id="text_63">
     <!-- 1336 -->
     <g style="fill: #262626" transform="translate(357.67 212.559141)scale(0.11 -0.11)">
      <defs>
       <path id="ArialMT-36" d="M 3184 3459 
L 2625 3416 
Q 2550 3747 2413 3897 
Q 2184 4138 1850 4138 
Q 1581 4138 1378 3988 
Q 1113 3794 959 3422 
Q 806 3050 800 2363 
Q 1003 2672 1297 2822 
Q 1591 2972 1913 2972 
Q 2475 2972 2870 2558 
Q 3266 2144 3266 1488 
Q 3266 1056 3080 686 
Q 2894 316 2569 119 
Q 2244 -78 1831 -78 
Q 1128 -78 684 439 
Q 241 956 241 2144 
Q 241 3472 731 4075 
Q 1159 4600 1884 4600 
Q 2425 4600 2770 4297 
Q 3116 3994 3184 3459 
z
M 888 1484 
Q 888 1194 1011 928 
Q 1134 663 1356 523 
Q 1578 384 1822 384 
Q 2178 384 2434 671 
Q 2691 959 2691 1453 
Q 2691 1928 2437 2201 
Q 2184 2475 1800 2475 
Q 1419 2475 1153 2201 
Q 888 1928 888 1484 
z
" transform="scale(0.015625)"/>
      </defs>
      <use xlink:href="#ArialMT-31"/>
      <use xlink:href="#ArialMT-33" x="55.615234"/>
      <use xlink:href="#ArialMT-33" x="111.230469"/>
      <use xlink:href="#ArialMT-36" x="166.845703"/>
     </g>
    </g>
    <g id="PathCollection_21">
     <defs>
      <path id="m9d2448c9a2" d="M 0 6.813851 
C 1.807055 6.813851 3.54034 6.095901 4.818121 4.818121 
C 6.095901 3.54034 6.813851 1.807055 6.813851 0 
C 6.813851 -1.807055 6.095901 -3.54034 4.818121 -4.818121 
C 3.54034 -6.095901 1.807055 -6.813851 0 -6.813851 
C -1.807055 -6.813851 -3.54034 -6.095901 -4.818121 -4.818121 
C -6.095901 -3.54034 -6.813851 -1.807055 -6.813851 0 
C -6.813851 1.807055 -6.095901 3.54034 -4.818121 4.818121 
C -3.54034 6.095901 -1.807055 6.813851 0 6.813851 
z
" style="stroke: #333333"/>
     </defs>
     <g>
      <use xlink:href="#m9d2448c9a2" x="337.87" y="225.231484" style="fill: #333333; stroke: #333333"/>
     </g>
    </g>
    <g id="text_64">
     <!-- 1344 -->
     <g style="fill: #262626" transform="translate(357.67 228.118984)scale(0.11 -0.11)">
      <use xlink:href="#ArialMT-31"/>
      <use xlink:href="#ArialMT-33" x="55.615234"/>
      <use xlink:href="#ArialMT-34" x="111.230469"/>
      <use xlink:href="#ArialMT-34" x="166.845703"/>
     </g>
    </g>
    <g id="PathCollection_22">
     <defs>
      <path id="m5cdb5f2db3" d="M 0 7.961963 
C 2.111537 7.961963 4.136876 7.12304 5.629958 5.629958 
C 7.12304 4.136876 7.961963 2.111537 7.961963 0 
C 7.961963 -2.111537 7.12304 -4.136876 5.629958 -5.629958 
C 4.136876 -7.12304 2.111537 -7.961963 0 -7.961963 
C -2.111537 -7.961963 -4.136876 -7.12304 -5.629958 -5.629958 
C -7.12304 -4.136876 -7.961963 -2.111537 -7.961963 0 
C -7.961963 2.111537 -7.12304 4.136876 -5.629958 5.629958 
C -4.136876 7.12304 -2.111537 7.961963 0 7.961963 
z
" style="stroke: #333333"/>
     </defs>
     <g>
      <use xlink:href="#m5cdb5f2db3" x="337.87" y="240.791328" style="fill: #333333; stroke: #333333"/>
     </g>
    </g>
    <g id="text_65">
     <!-- 1352 -->
     <g style="fill: #262626" transform="translate(357.67 243.678828)scale(0.11 -0.11)">
      <use xlink:href="#ArialMT-31"/>
      <use xlink:href="#ArialMT-33" x="55.615234"/>
      <use xlink:href="#ArialMT-35" x="111.230469"/>
      <use xlink:href="#ArialMT-32" x="166.845703"/>
     </g>
    </g>
    <g id="PathCollection_23">
     <defs>
      <path id="m0919174d56" d="M 0 8.964215 
C 2.377337 8.964215 4.657625 8.019688 6.338657 6.338657 
C 8.019688 4.657625 8.964215 2.377337 8.964215 0 
C 8.964215 -2.377337 8.019688 -4.657625 6.338657 -6.338657 
C 4.657625 -8.019688 2.377337 -8.964215 0 -8.964215 
C -2.377337 -8.964215 -4.657625 -8.019688 -6.338657 -6.338657 
C -8.019688 -4.657625 -8.964215 -2.377337 -8.964215 0 
C -8.964215 2.377337 -8.019688 4.657625 -6.338657 6.338657 
C -4.657625 8.019688 -2.377337 8.964215 0 8.964215 
z
" style="stroke: #333333"/>
     </defs>
     <g>
      <use xlink:href="#m0919174d56" x="337.87" y="256.351172" style="fill: #333333; stroke: #333333"/>
     </g>
    </g>
    <g id="text_66">
     <!-- 1360 -->
     <g style="fill: #262626" transform="translate(357.67 259.238672)scale(0.11 -0.11)">
      <use xlink:href="#ArialMT-31"/>
      <use xlink:href="#ArialMT-33" x="55.615234"/>
      <use xlink:href="#ArialMT-36" x="111.230469"/>
      <use xlink:href="#ArialMT-30" x="166.845703"/>
     </g>
    </g>
   </g>
  </g>
 </g>
 <defs>
  <clipPath id="pc872384993">
   <rect x="55.67625" y="27.6" width="261.29375" height="270.60375"/>
  </clipPath>
 </defs>
</svg>
