<?xml version="1.0" encoding="utf-8" standalone="no"?>
<!DOCTYPE svg PUBLIC "-//W3C//DTD SVG 1.1//EN"
  "http://www.w3.org/Graphics/SVG/1.1/DTD/svg11.dtd">
<svg xmlns:xlink="http://www.w3.org/1999/xlink" width="460.8pt" height="345.6pt" viewBox="0 0 460.8 345.6" xmlns="http://www.w3.org/2000/svg" version="1.1">
 <metadata>
  <rdf:RDF xmlns:dc="http://purl.org/dc/elements/1.1/" xmlns:cc="http://creativecommons.org/ns#" xmlns:rdf="http://www.w3.org/1999/02/22-rdf-syntax-ns#">
   <cc:Work>
    <dc:type rdf:resource="http://purl.org/dc/dcmitype/StillImage"/>
    <dc:date>2022-11-27T22:47:04.562043</dc:date>
    <dc:format>image/svg+xml</dc:format>
    <dc:creator>
     <cc:Agent>
      <dc:title>Matplotlib v3.5.1, https://matplotlib.org/</dc:title>
     </cc:Agent>
    </dc:creator>
   </cc:Work>
  </rdf:RDF>
 </metadata>
 <defs>
  <style type="text/css">*{stroke-linejoin: round; stroke-linecap: butt}</style>
 </defs>
 <g id="figure_1">
  <g id="patch_1">
   <path d="M 0 345.6 
L 460.8 345.6 
L 460.8 0 
L 0 0 
z
" style="fill: #ffffff"/>
  </g>
  <g id="axes_1">
   <g id="patch_2">
    <path d="M 55.67625 298.20375 
L 328.94 298.20375 
L 328.94 27.6 
L 55.67625 27.6 
z
" style="fill: #eaeaf2"/>
   </g>
   <g id="matplotlib.axis_1">
    <g id="xtick_1">
     <g id="line2d_1">
      <path d="M 80.978449 298.20375 
L 80.978449 27.6 
" clip-path="url(#p3460b98930)" style="fill: none; stroke: #ffffff; stroke-linecap: round"/>
     </g>
     <g id="text_1">
      <!-- 0 -->
      <g style="fill: #262626" transform="translate(77.919933 315.577344)scale(0.11 -0.11)">
       <defs>
        <path id="ArialMT-30" d="M 266 2259 
Q 266 3072 433 3567 
Q 600 4063 929 4331 
Q 1259 4600 1759 4600 
Q 2128 4600 2406 4451 
Q 2684 4303 2865 4023 
Q 3047 3744 3150 3342 
Q 3253 2941 3253 2259 
Q 3253 1453 3087 958 
Q 2922 463 2592 192 
Q 2263 -78 1759 -78 
Q 1097 -78 719 397 
Q 266 969 266 2259 
z
M 844 2259 
Q 844 1131 1108 757 
Q 1372 384 1759 384 
Q 2147 384 2411 759 
Q 2675 1134 2675 2259 
Q 2675 3391 2411 3762 
Q 2147 4134 1753 4134 
Q 1366 4134 1134 3806 
Q 844 3388 844 2259 
z
" transform="scale(0.015625)"/>
       </defs>
       <use xlink:href="#ArialMT-30"/>
      </g>
     </g>
    </g>
    <g id="xtick_2">
     <g id="line2d_2">
      <path d="M 136.643287 298.20375 
L 136.643287 27.6 
" clip-path="url(#p3460b98930)" style="fill: none; stroke: #ffffff; stroke-linecap: round"/>
     </g>
     <g id="text_2">
      <!-- 110 -->
      <g style="fill: #262626" transform="translate(127.873365 315.577344)scale(0.11 -0.11)">
       <defs>
        <path id="ArialMT-31" d="M 2384 0 
L 1822 0 
L 1822 3584 
Q 1619 3391 1289 3197 
Q 959 3003 697 2906 
L 697 3450 
Q 1169 3672 1522 3987 
Q 1875 4303 2022 4600 
L 2384 4600 
L 2384 0 
z
" transform="scale(0.015625)"/>
       </defs>
       <use xlink:href="#ArialMT-31"/>
       <use xlink:href="#ArialMT-31" x="48.240234"/>
       <use xlink:href="#ArialMT-30" x="103.855469"/>
      </g>
     </g>
    </g>
    <g id="xtick_3">
     <g id="line2d_3">
      <path d="M 192.308125 298.20375 
L 192.308125 27.6 
" clip-path="url(#p3460b98930)" style="fill: none; stroke: #ffffff; stroke-linecap: round"/>
     </g>
     <g id="text_3">
      <!-- 220 -->
      <g style="fill: #262626" transform="translate(183.132578 315.577344)scale(0.11 -0.11)">
       <defs>
        <path id="ArialMT-32" d="M 3222 541 
L 3222 0 
L 194 0 
Q 188 203 259 391 
Q 375 700 629 1000 
Q 884 1300 1366 1694 
Q 2113 2306 2375 2664 
Q 2638 3022 2638 3341 
Q 2638 3675 2398 3904 
Q 2159 4134 1775 4134 
Q 1369 4134 1125 3890 
Q 881 3647 878 3216 
L 300 3275 
Q 359 3922 746 4261 
Q 1134 4600 1788 4600 
Q 2447 4600 2831 4234 
Q 3216 3869 3216 3328 
Q 3216 3053 3103 2787 
Q 2991 2522 2730 2228 
Q 2469 1934 1863 1422 
Q 1356 997 1212 845 
Q 1069 694 975 541 
L 3222 541 
z
" transform="scale(0.015625)"/>
       </defs>
       <use xlink:href="#ArialMT-32"/>
       <use xlink:href="#ArialMT-32" x="55.615234"/>
       <use xlink:href="#ArialMT-30" x="111.230469"/>
      </g>
     </g>
    </g>
    <g id="xtick_4">
     <g id="line2d_4">
      <path d="M 247.972963 298.20375 
L 247.972963 27.6 
" clip-path="url(#p3460b98930)" style="fill: none; stroke: #ffffff; stroke-linecap: round"/>
     </g>
     <g id="text_4">
      <!-- 330 -->
      <g style="fill: #262626" transform="translate(238.797416 315.577344)scale(0.11 -0.11)">
       <defs>
        <path id="ArialMT-33" d="M 269 1209 
L 831 1284 
Q 928 806 1161 595 
Q 1394 384 1728 384 
Q 2125 384 2398 659 
Q 2672 934 2672 1341 
Q 2672 1728 2419 1979 
Q 2166 2231 1775 2231 
Q 1616 2231 1378 2169 
L 1441 2663 
Q 1497 2656 1531 2656 
Q 1891 2656 2178 2843 
Q 2466 3031 2466 3422 
Q 2466 3731 2256 3934 
Q 2047 4138 1716 4138 
Q 1388 4138 1169 3931 
Q 950 3725 888 3313 
L 325 3413 
Q 428 3978 793 4289 
Q 1159 4600 1703 4600 
Q 2078 4600 2393 4439 
Q 2709 4278 2876 4000 
Q 3044 3722 3044 3409 
Q 3044 3113 2884 2869 
Q 2725 2625 2413 2481 
Q 2819 2388 3044 2092 
Q 3269 1797 3269 1353 
Q 3269 753 2831 336 
Q 2394 -81 1725 -81 
Q 1122 -81 723 278 
Q 325 638 269 1209 
z
" transform="scale(0.015625)"/>
       </defs>
       <use xlink:href="#ArialMT-33"/>
       <use xlink:href="#ArialMT-33" x="55.615234"/>
       <use xlink:href="#ArialMT-30" x="111.230469"/>
      </g>
     </g>
    </g>
    <g id="xtick_5">
     <g id="line2d_5">
      <path d="M 303.637801 298.20375 
L 303.637801 27.6 
" clip-path="url(#p3460b98930)" style="fill: none; stroke: #ffffff; stroke-linecap: round"/>
     </g>
     <g id="text_5">
      <!-- 440 -->
      <g style="fill: #262626" transform="translate(294.462254 315.577344)scale(0.11 -0.11)">
       <defs>
        <path id="ArialMT-34" d="M 2069 0 
L 2069 1097 
L 81 1097 
L 81 1613 
L 2172 4581 
L 2631 4581 
L 2631 1613 
L 3250 1613 
L 3250 1097 
L 2631 1097 
L 2631 0 
L 2069 0 
z
M 2069 1613 
L 2069 3678 
L 634 1613 
L 2069 1613 
z
" transform="scale(0.015625)"/>
       </defs>
       <use xlink:href="#ArialMT-34"/>
       <use xlink:href="#ArialMT-34" x="55.615234"/>
       <use xlink:href="#ArialMT-30" x="111.230469"/>
      </g>
     </g>
    </g>
    <g id="xtick_6">
     <g id="line2d_6">
      <path d="M 80.978449 298.20375 
L 80.978449 27.6 
" clip-path="url(#p3460b98930)" style="fill: none; stroke: #ffffff; stroke-linecap: round"/>
     </g>
     <g id="text_6">
      <!-- 0 -->
      <g style="fill: #262626" transform="translate(77.919933 315.577344)scale(0.11 -0.11)">
       <use xlink:href="#ArialMT-30"/>
      </g>
     </g>
    </g>
    <g id="xtick_7">
     <g id="line2d_7">
      <path d="M 136.643287 298.20375 
L 136.643287 27.6 
" clip-path="url(#p3460b98930)" style="fill: none; stroke: #ffffff; stroke-linecap: round"/>
     </g>
     <g id="text_7">
      <!-- 110 -->
      <g style="fill: #262626" transform="translate(127.873365 315.577344)scale(0.11 -0.11)">
       <use xlink:href="#ArialMT-31"/>
       <use xlink:href="#ArialMT-31" x="48.240234"/>
       <use xlink:href="#ArialMT-30" x="103.855469"/>
      </g>
     </g>
    </g>
    <g id="xtick_8">
     <g id="line2d_8">
      <path d="M 192.308125 298.20375 
L 192.308125 27.6 
" clip-path="url(#p3460b98930)" style="fill: none; stroke: #ffffff; stroke-linecap: round"/>
     </g>
     <g id="text_8">
      <!-- 220 -->
      <g style="fill: #262626" transform="translate(183.132578 315.577344)scale(0.11 -0.11)">
       <use xlink:href="#ArialMT-32"/>
       <use xlink:href="#ArialMT-32" x="55.615234"/>
       <use xlink:href="#ArialMT-30" x="111.230469"/>
      </g>
     </g>
    </g>
    <g id="xtick_9">
     <g id="line2d_9">
      <path d="M 247.972963 298.20375 
L 247.972963 27.6 
" clip-path="url(#p3460b98930)" style="fill: none; stroke: #ffffff; stroke-linecap: round"/>
     </g>
     <g id="text_9">
      <!-- 330 -->
      <g style="fill: #262626" transform="translate(238.797416 315.577344)scale(0.11 -0.11)">
       <use xlink:href="#ArialMT-33"/>
       <use xlink:href="#ArialMT-33" x="55.615234"/>
       <use xlink:href="#ArialMT-30" x="111.230469"/>
      </g>
     </g>
    </g>
    <g id="xtick_10">
     <g id="line2d_10">
      <path d="M 303.637801 298.20375 
L 303.637801 27.6 
" clip-path="url(#p3460b98930)" style="fill: none; stroke: #ffffff; stroke-linecap: round"/>
     </g>
     <g id="text_10">
      <!-- 440 -->
      <g style="fill: #262626" transform="translate(294.462254 315.577344)scale(0.11 -0.11)">
       <use xlink:href="#ArialMT-34"/>
       <use xlink:href="#ArialMT-34" x="55.615234"/>
       <use xlink:href="#ArialMT-30" x="111.230469"/>
      </g>
     </g>
    </g>
    <g id="xtick_11">
     <g id="line2d_11">
      <path d="M 80.978449 298.20375 
L 80.978449 27.6 
" clip-path="url(#p3460b98930)" style="fill: none; stroke: #ffffff; stroke-linecap: round"/>
     </g>
     <g id="text_11">
      <!-- 0 -->
      <g style="fill: #262626" transform="translate(77.919933 315.577344)scale(0.11 -0.11)">
       <use xlink:href="#ArialMT-30"/>
      </g>
     </g>
    </g>
    <g id="xtick_12">
     <g id="line2d_12">
      <path d="M 136.643287 298.20375 
L 136.643287 27.6 
" clip-path="url(#p3460b98930)" style="fill: none; stroke: #ffffff; stroke-linecap: round"/>
     </g>
     <g id="text_12">
      <!-- 110 -->
      <g style="fill: #262626" transform="translate(127.873365 315.577344)scale(0.11 -0.11)">
       <use xlink:href="#ArialMT-31"/>
       <use xlink:href="#ArialMT-31" x="48.240234"/>
       <use xlink:href="#ArialMT-30" x="103.855469"/>
      </g>
     </g>
    </g>
    <g id="xtick_13">
     <g id="line2d_13">
      <path d="M 192.308125 298.20375 
L 192.308125 27.6 
" clip-path="url(#p3460b98930)" style="fill: none; stroke: #ffffff; stroke-linecap: round"/>
     </g>
     <g id="text_13">
      <!-- 220 -->
      <g style="fill: #262626" transform="translate(183.132578 315.577344)scale(0.11 -0.11)">
       <use xlink:href="#ArialMT-32"/>
       <use xlink:href="#ArialMT-32" x="55.615234"/>
       <use xlink:href="#ArialMT-30" x="111.230469"/>
      </g>
     </g>
    </g>
    <g id="xtick_14">
     <g id="line2d_14">
      <path d="M 247.972963 298.20375 
L 247.972963 27.6 
" clip-path="url(#p3460b98930)" style="fill: none; stroke: #ffffff; stroke-linecap: round"/>
     </g>
     <g id="text_14">
      <!-- 330 -->
      <g style="fill: #262626" transform="translate(238.797416 315.577344)scale(0.11 -0.11)">
       <use xlink:href="#ArialMT-33"/>
       <use xlink:href="#ArialMT-33" x="55.615234"/>
       <use xlink:href="#ArialMT-30" x="111.230469"/>
      </g>
     </g>
    </g>
    <g id="xtick_15">
     <g id="line2d_15">
      <path d="M 303.637801 298.20375 
L 303.637801 27.6 
" clip-path="url(#p3460b98930)" style="fill: none; stroke: #ffffff; stroke-linecap: round"/>
     </g>
     <g id="text_15">
      <!-- 440 -->
      <g style="fill: #262626" transform="translate(294.462254 315.577344)scale(0.11 -0.11)">
       <use xlink:href="#ArialMT-34"/>
       <use xlink:href="#ArialMT-34" x="55.615234"/>
       <use xlink:href="#ArialMT-30" x="111.230469"/>
      </g>
     </g>
    </g>
    <g id="xtick_16">
     <g id="line2d_16">
      <path d="M 80.978449 298.20375 
L 80.978449 27.6 
" clip-path="url(#p3460b98930)" style="fill: none; stroke: #ffffff; stroke-linecap: round"/>
     </g>
     <g id="text_16">
      <!-- 0 -->
      <g style="fill: #262626" transform="translate(77.919933 315.577344)scale(0.11 -0.11)">
       <use xlink:href="#ArialMT-30"/>
      </g>
     </g>
    </g>
    <g id="xtick_17">
     <g id="line2d_17">
      <path d="M 136.643287 298.20375 
L 136.643287 27.6 
" clip-path="url(#p3460b98930)" style="fill: none; stroke: #ffffff; stroke-linecap: round"/>
     </g>
     <g id="text_17">
      <!-- 110 -->
      <g style="fill: #262626" transform="translate(127.873365 315.577344)scale(0.11 -0.11)">
       <use xlink:href="#ArialMT-31"/>
       <use xlink:href="#ArialMT-31" x="48.240234"/>
       <use xlink:href="#ArialMT-30" x="103.855469"/>
      </g>
     </g>
    </g>
    <g id="xtick_18">
     <g id="line2d_18">
      <path d="M 192.308125 298.20375 
L 192.308125 27.6 
" clip-path="url(#p3460b98930)" style="fill: none; stroke: #ffffff; stroke-linecap: round"/>
     </g>
     <g id="text_18">
      <!-- 220 -->
      <g style="fill: #262626" transform="translate(183.132578 315.577344)scale(0.11 -0.11)">
       <use xlink:href="#ArialMT-32"/>
       <use xlink:href="#ArialMT-32" x="55.615234"/>
       <use xlink:href="#ArialMT-30" x="111.230469"/>
      </g>
     </g>
    </g>
    <g id="xtick_19">
     <g id="line2d_19">
      <path d="M 247.972963 298.20375 
L 247.972963 27.6 
" clip-path="url(#p3460b98930)" style="fill: none; stroke: #ffffff; stroke-linecap: round"/>
     </g>
     <g id="text_19">
      <!-- 330 -->
      <g style="fill: #262626" transform="translate(238.797416 315.577344)scale(0.11 -0.11)">
       <use xlink:href="#ArialMT-33"/>
       <use xlink:href="#ArialMT-33" x="55.615234"/>
       <use xlink:href="#ArialMT-30" x="111.230469"/>
      </g>
     </g>
    </g>
    <g id="xtick_20">
     <g id="line2d_20">
      <path d="M 303.637801 298.20375 
L 303.637801 27.6 
" clip-path="url(#p3460b98930)" style="fill: none; stroke: #ffffff; stroke-linecap: round"/>
     </g>
     <g id="text_20">
      <!-- 440 -->
      <g style="fill: #262626" transform="translate(294.462254 315.577344)scale(0.11 -0.11)">
       <use xlink:href="#ArialMT-34"/>
       <use xlink:href="#ArialMT-34" x="55.615234"/>
       <use xlink:href="#ArialMT-30" x="111.230469"/>
      </g>
     </g>
    </g>
    <g id="xtick_21">
     <g id="line2d_21">
      <path d="M 80.978449 298.20375 
L 80.978449 27.6 
" clip-path="url(#p3460b98930)" style="fill: none; stroke: #ffffff; stroke-linecap: round"/>
     </g>
     <g id="text_21">
      <!-- 0 -->
      <g style="fill: #262626" transform="translate(77.919933 315.577344)scale(0.11 -0.11)">
       <use xlink:href="#ArialMT-30"/>
      </g>
     </g>
    </g>
    <g id="xtick_22">
     <g id="line2d_22">
      <path d="M 136.643287 298.20375 
L 136.643287 27.6 
" clip-path="url(#p3460b98930)" style="fill: none; stroke: #ffffff; stroke-linecap: round"/>
     </g>
     <g id="text_22">
      <!-- 110 -->
      <g style="fill: #262626" transform="translate(127.873365 315.577344)scale(0.11 -0.11)">
       <use xlink:href="#ArialMT-31"/>
       <use xlink:href="#ArialMT-31" x="48.240234"/>
       <use xlink:href="#ArialMT-30" x="103.855469"/>
      </g>
     </g>
    </g>
    <g id="xtick_23">
     <g id="line2d_23">
      <path d="M 192.308125 298.20375 
L 192.308125 27.6 
" clip-path="url(#p3460b98930)" style="fill: none; stroke: #ffffff; stroke-linecap: round"/>
     </g>
     <g id="text_23">
      <!-- 220 -->
      <g style="fill: #262626" transform="translate(183.132578 315.577344)scale(0.11 -0.11)">
       <use xlink:href="#ArialMT-32"/>
       <use xlink:href="#ArialMT-32" x="55.615234"/>
       <use xlink:href="#ArialMT-30" x="111.230469"/>
      </g>
     </g>
    </g>
    <g id="xtick_24">
     <g id="line2d_24">
      <path d="M 247.972963 298.20375 
L 247.972963 27.6 
" clip-path="url(#p3460b98930)" style="fill: none; stroke: #ffffff; stroke-linecap: round"/>
     </g>
     <g id="text_24">
      <!-- 330 -->
      <g style="fill: #262626" transform="translate(238.797416 315.577344)scale(0.11 -0.11)">
       <use xlink:href="#ArialMT-33"/>
       <use xlink:href="#ArialMT-33" x="55.615234"/>
       <use xlink:href="#ArialMT-30" x="111.230469"/>
      </g>
     </g>
    </g>
    <g id="xtick_25">
     <g id="line2d_25">
      <path d="M 303.637801 298.20375 
L 303.637801 27.6 
" clip-path="url(#p3460b98930)" style="fill: none; stroke: #ffffff; stroke-linecap: round"/>
     </g>
     <g id="text_25">
      <!-- 440 -->
      <g style="fill: #262626" transform="translate(294.462254 315.577344)scale(0.11 -0.11)">
       <use xlink:href="#ArialMT-34"/>
       <use xlink:href="#ArialMT-34" x="55.615234"/>
       <use xlink:href="#ArialMT-30" x="111.230469"/>
      </g>
     </g>
    </g>
    <g id="text_26">
     <!-- X-Coordinate [m] -->
     <g style="fill: #262626" transform="translate(146.959375 330.499219)scale(0.12 -0.12)">
      <defs>
       <path id="ArialMT-58" d="M 28 0 
L 1800 2388 
L 238 4581 
L 959 4581 
L 1791 3406 
Q 2050 3041 2159 2844 
Q 2313 3094 2522 3366 
L 3444 4581 
L 4103 4581 
L 2494 2422 
L 4228 0 
L 3478 0 
L 2325 1634 
Q 2228 1775 2125 1941 
Q 1972 1691 1906 1597 
L 756 0 
L 28 0 
z
" transform="scale(0.015625)"/>
       <path id="ArialMT-2d" d="M 203 1375 
L 203 1941 
L 1931 1941 
L 1931 1375 
L 203 1375 
z
" transform="scale(0.015625)"/>
       <path id="ArialMT-43" d="M 3763 1606 
L 4369 1453 
Q 4178 706 3683 314 
Q 3188 -78 2472 -78 
Q 1731 -78 1267 223 
Q 803 525 561 1097 
Q 319 1669 319 2325 
Q 319 3041 592 3573 
Q 866 4106 1370 4382 
Q 1875 4659 2481 4659 
Q 3169 4659 3637 4309 
Q 4106 3959 4291 3325 
L 3694 3184 
Q 3534 3684 3231 3912 
Q 2928 4141 2469 4141 
Q 1941 4141 1586 3887 
Q 1231 3634 1087 3207 
Q 944 2781 944 2328 
Q 944 1744 1114 1308 
Q 1284 872 1643 656 
Q 2003 441 2422 441 
Q 2931 441 3284 734 
Q 3638 1028 3763 1606 
z
" transform="scale(0.015625)"/>
       <path id="ArialMT-6f" d="M 213 1659 
Q 213 2581 725 3025 
Q 1153 3394 1769 3394 
Q 2453 3394 2887 2945 
Q 3322 2497 3322 1706 
Q 3322 1066 3130 698 
Q 2938 331 2570 128 
Q 2203 -75 1769 -75 
Q 1072 -75 642 372 
Q 213 819 213 1659 
z
M 791 1659 
Q 791 1022 1069 705 
Q 1347 388 1769 388 
Q 2188 388 2466 706 
Q 2744 1025 2744 1678 
Q 2744 2294 2464 2611 
Q 2184 2928 1769 2928 
Q 1347 2928 1069 2612 
Q 791 2297 791 1659 
z
" transform="scale(0.015625)"/>
       <path id="ArialMT-72" d="M 416 0 
L 416 3319 
L 922 3319 
L 922 2816 
Q 1116 3169 1280 3281 
Q 1444 3394 1641 3394 
Q 1925 3394 2219 3213 
L 2025 2691 
Q 1819 2813 1613 2813 
Q 1428 2813 1281 2702 
Q 1134 2591 1072 2394 
Q 978 2094 978 1738 
L 978 0 
L 416 0 
z
" transform="scale(0.015625)"/>
       <path id="ArialMT-64" d="M 2575 0 
L 2575 419 
Q 2259 -75 1647 -75 
Q 1250 -75 917 144 
Q 584 363 401 755 
Q 219 1147 219 1656 
Q 219 2153 384 2558 
Q 550 2963 881 3178 
Q 1213 3394 1622 3394 
Q 1922 3394 2156 3267 
Q 2391 3141 2538 2938 
L 2538 4581 
L 3097 4581 
L 3097 0 
L 2575 0 
z
M 797 1656 
Q 797 1019 1065 703 
Q 1334 388 1700 388 
Q 2069 388 2326 689 
Q 2584 991 2584 1609 
Q 2584 2291 2321 2609 
Q 2059 2928 1675 2928 
Q 1300 2928 1048 2622 
Q 797 2316 797 1656 
z
" transform="scale(0.015625)"/>
       <path id="ArialMT-69" d="M 425 3934 
L 425 4581 
L 988 4581 
L 988 3934 
L 425 3934 
z
M 425 0 
L 425 3319 
L 988 3319 
L 988 0 
L 425 0 
z
" transform="scale(0.015625)"/>
       <path id="ArialMT-6e" d="M 422 0 
L 422 3319 
L 928 3319 
L 928 2847 
Q 1294 3394 1984 3394 
Q 2284 3394 2536 3286 
Q 2788 3178 2913 3003 
Q 3038 2828 3088 2588 
Q 3119 2431 3119 2041 
L 3119 0 
L 2556 0 
L 2556 2019 
Q 2556 2363 2490 2533 
Q 2425 2703 2258 2804 
Q 2091 2906 1866 2906 
Q 1506 2906 1245 2678 
Q 984 2450 984 1813 
L 984 0 
L 422 0 
z
" transform="scale(0.015625)"/>
       <path id="ArialMT-61" d="M 2588 409 
Q 2275 144 1986 34 
Q 1697 -75 1366 -75 
Q 819 -75 525 192 
Q 231 459 231 875 
Q 231 1119 342 1320 
Q 453 1522 633 1644 
Q 813 1766 1038 1828 
Q 1203 1872 1538 1913 
Q 2219 1994 2541 2106 
Q 2544 2222 2544 2253 
Q 2544 2597 2384 2738 
Q 2169 2928 1744 2928 
Q 1347 2928 1158 2789 
Q 969 2650 878 2297 
L 328 2372 
Q 403 2725 575 2942 
Q 747 3159 1072 3276 
Q 1397 3394 1825 3394 
Q 2250 3394 2515 3294 
Q 2781 3194 2906 3042 
Q 3031 2891 3081 2659 
Q 3109 2516 3109 2141 
L 3109 1391 
Q 3109 606 3145 398 
Q 3181 191 3288 0 
L 2700 0 
Q 2613 175 2588 409 
z
M 2541 1666 
Q 2234 1541 1622 1453 
Q 1275 1403 1131 1340 
Q 988 1278 909 1158 
Q 831 1038 831 891 
Q 831 666 1001 516 
Q 1172 366 1500 366 
Q 1825 366 2078 508 
Q 2331 650 2450 897 
Q 2541 1088 2541 1459 
L 2541 1666 
z
" transform="scale(0.015625)"/>
       <path id="ArialMT-74" d="M 1650 503 
L 1731 6 
Q 1494 -44 1306 -44 
Q 1000 -44 831 53 
Q 663 150 594 308 
Q 525 466 525 972 
L 525 2881 
L 113 2881 
L 113 3319 
L 525 3319 
L 525 4141 
L 1084 4478 
L 1084 3319 
L 1650 3319 
L 1650 2881 
L 1084 2881 
L 1084 941 
Q 1084 700 1114 631 
Q 1144 563 1211 522 
Q 1278 481 1403 481 
Q 1497 481 1650 503 
z
" transform="scale(0.015625)"/>
       <path id="ArialMT-65" d="M 2694 1069 
L 3275 997 
Q 3138 488 2766 206 
Q 2394 -75 1816 -75 
Q 1088 -75 661 373 
Q 234 822 234 1631 
Q 234 2469 665 2931 
Q 1097 3394 1784 3394 
Q 2450 3394 2872 2941 
Q 3294 2488 3294 1666 
Q 3294 1616 3291 1516 
L 816 1516 
Q 847 969 1125 678 
Q 1403 388 1819 388 
Q 2128 388 2347 550 
Q 2566 713 2694 1069 
z
M 847 1978 
L 2700 1978 
Q 2663 2397 2488 2606 
Q 2219 2931 1791 2931 
Q 1403 2931 1139 2672 
Q 875 2413 847 1978 
z
" transform="scale(0.015625)"/>
       <path id="ArialMT-20" transform="scale(0.015625)"/>
       <path id="ArialMT-5b" d="M 434 -1272 
L 434 4581 
L 1675 4581 
L 1675 4116 
L 997 4116 
L 997 -806 
L 1675 -806 
L 1675 -1272 
L 434 -1272 
z
" transform="scale(0.015625)"/>
       <path id="ArialMT-6d" d="M 422 0 
L 422 3319 
L 925 3319 
L 925 2853 
Q 1081 3097 1340 3245 
Q 1600 3394 1931 3394 
Q 2300 3394 2536 3241 
Q 2772 3088 2869 2813 
Q 3263 3394 3894 3394 
Q 4388 3394 4653 3120 
Q 4919 2847 4919 2278 
L 4919 0 
L 4359 0 
L 4359 2091 
Q 4359 2428 4304 2576 
Q 4250 2725 4106 2815 
Q 3963 2906 3769 2906 
Q 3419 2906 3187 2673 
Q 2956 2441 2956 1928 
L 2956 0 
L 2394 0 
L 2394 2156 
Q 2394 2531 2256 2718 
Q 2119 2906 1806 2906 
Q 1569 2906 1367 2781 
Q 1166 2656 1075 2415 
Q 984 2175 984 1722 
L 984 0 
L 422 0 
z
" transform="scale(0.015625)"/>
       <path id="ArialMT-5d" d="M 1363 -1272 
L 122 -1272 
L 122 -806 
L 800 -806 
L 800 4116 
L 122 4116 
L 122 4581 
L 1363 4581 
L 1363 -1272 
z
" transform="scale(0.015625)"/>
      </defs>
      <use xlink:href="#ArialMT-58"/>
      <use xlink:href="#ArialMT-2d" x="66.699219"/>
      <use xlink:href="#ArialMT-43" x="100"/>
      <use xlink:href="#ArialMT-6f" x="172.216797"/>
      <use xlink:href="#ArialMT-6f" x="227.832031"/>
      <use xlink:href="#ArialMT-72" x="283.447266"/>
      <use xlink:href="#ArialMT-64" x="316.748047"/>
      <use xlink:href="#ArialMT-69" x="372.363281"/>
      <use xlink:href="#ArialMT-6e" x="394.580078"/>
      <use xlink:href="#ArialMT-61" x="450.195312"/>
      <use xlink:href="#ArialMT-74" x="505.810547"/>
      <use xlink:href="#ArialMT-65" x="533.59375"/>
      <use xlink:href="#ArialMT-20" x="589.208984"/>
      <use xlink:href="#ArialMT-5b" x="616.992188"/>
      <use xlink:href="#ArialMT-6d" x="644.775391"/>
      <use xlink:href="#ArialMT-5d" x="728.076172"/>
     </g>
    </g>
   </g>
   <g id="matplotlib.axis_2">
    <g id="ytick_1">
     <g id="line2d_26">
      <path d="M 55.67625 273.147847 
L 328.94 273.147847 
" clip-path="url(#p3460b98930)" style="fill: none; stroke: #ffffff; stroke-linecap: round"/>
     </g>
     <g id="text_27">
      <!-- 0 -->
      <g style="fill: #262626" transform="translate(40.059219 277.084644)scale(0.11 -0.11)">
       <use xlink:href="#ArialMT-30"/>
      </g>
     </g>
    </g>
    <g id="ytick_2">
     <g id="line2d_27">
      <path d="M 55.67625 273.147847 
L 328.94 273.147847 
" clip-path="url(#p3460b98930)" style="fill: none; stroke: #ffffff; stroke-linecap: round"/>
     </g>
     <g id="text_28">
      <!-- 0 -->
      <g style="fill: #262626" transform="translate(40.059219 277.084644)scale(0.11 -0.11)">
       <use xlink:href="#ArialMT-30"/>
      </g>
     </g>
    </g>
    <g id="ytick_3">
     <g id="line2d_28">
      <path d="M 55.67625 273.147847 
L 328.94 273.147847 
" clip-path="url(#p3460b98930)" style="fill: none; stroke: #ffffff; stroke-linecap: round"/>
     </g>
     <g id="text_29">
      <!-- 0 -->
      <g style="fill: #262626" transform="translate(40.059219 277.084644)scale(0.11 -0.11)">
       <use xlink:href="#ArialMT-30"/>
      </g>
     </g>
    </g>
    <g id="ytick_4">
     <g id="line2d_29">
      <path d="M 55.67625 273.147847 
L 328.94 273.147847 
" clip-path="url(#p3460b98930)" style="fill: none; stroke: #ffffff; stroke-linecap: round"/>
     </g>
     <g id="text_30">
      <!-- 0 -->
      <g style="fill: #262626" transform="translate(40.059219 277.084644)scale(0.11 -0.11)">
       <use xlink:href="#ArialMT-30"/>
      </g>
     </g>
    </g>
    <g id="ytick_5">
     <g id="line2d_30">
      <path d="M 55.67625 273.147847 
L 328.94 273.147847 
" clip-path="url(#p3460b98930)" style="fill: none; stroke: #ffffff; stroke-linecap: round"/>
     </g>
     <g id="text_31">
      <!-- 0 -->
      <g style="fill: #262626" transform="translate(40.059219 277.084644)scale(0.11 -0.11)">
       <use xlink:href="#ArialMT-30"/>
      </g>
     </g>
    </g>
    <g id="ytick_6">
     <g id="line2d_31">
      <path d="M 55.67625 218.024861 
L 328.94 218.024861 
" clip-path="url(#p3460b98930)" style="fill: none; stroke: #ffffff; stroke-linecap: round"/>
     </g>
     <g id="text_32">
      <!-- 110 -->
      <g style="fill: #262626" transform="translate(28.636406 221.961658)scale(0.11 -0.11)">
       <use xlink:href="#ArialMT-31"/>
       <use xlink:href="#ArialMT-31" x="48.240234"/>
       <use xlink:href="#ArialMT-30" x="103.855469"/>
      </g>
     </g>
    </g>
    <g id="ytick_7">
     <g id="line2d_32">
      <path d="M 55.67625 218.024861 
L 328.94 218.024861 
" clip-path="url(#p3460b98930)" style="fill: none; stroke: #ffffff; stroke-linecap: round"/>
     </g>
     <g id="text_33">
      <!-- 110 -->
      <g style="fill: #262626" transform="translate(28.636406 221.961658)scale(0.11 -0.11)">
       <use xlink:href="#ArialMT-31"/>
       <use xlink:href="#ArialMT-31" x="48.240234"/>
       <use xlink:href="#ArialMT-30" x="103.855469"/>
      </g>
     </g>
    </g>
    <g id="ytick_8">
     <g id="line2d_33">
      <path d="M 55.67625 218.024861 
L 328.94 218.024861 
" clip-path="url(#p3460b98930)" style="fill: none; stroke: #ffffff; stroke-linecap: round"/>
     </g>
     <g id="text_34">
      <!-- 110 -->
      <g style="fill: #262626" transform="translate(28.636406 221.961658)scale(0.11 -0.11)">
       <use xlink:href="#ArialMT-31"/>
       <use xlink:href="#ArialMT-31" x="48.240234"/>
       <use xlink:href="#ArialMT-30" x="103.855469"/>
      </g>
     </g>
    </g>
    <g id="ytick_9">
     <g id="line2d_34">
      <path d="M 55.67625 218.024861 
L 328.94 218.024861 
" clip-path="url(#p3460b98930)" style="fill: none; stroke: #ffffff; stroke-linecap: round"/>
     </g>
     <g id="text_35">
      <!-- 110 -->
      <g style="fill: #262626" transform="translate(28.636406 221.961658)scale(0.11 -0.11)">
       <use xlink:href="#ArialMT-31"/>
       <use xlink:href="#ArialMT-31" x="48.240234"/>
       <use xlink:href="#ArialMT-30" x="103.855469"/>
      </g>
     </g>
    </g>
    <g id="ytick_10">
     <g id="line2d_35">
      <path d="M 55.67625 218.024861 
L 328.94 218.024861 
" clip-path="url(#p3460b98930)" style="fill: none; stroke: #ffffff; stroke-linecap: round"/>
     </g>
     <g id="text_36">
      <!-- 110 -->
      <g style="fill: #262626" transform="translate(28.636406 221.961658)scale(0.11 -0.11)">
       <use xlink:href="#ArialMT-31"/>
       <use xlink:href="#ArialMT-31" x="48.240234"/>
       <use xlink:href="#ArialMT-30" x="103.855469"/>
      </g>
     </g>
    </g>
    <g id="ytick_11">
     <g id="line2d_36">
      <path d="M 55.67625 162.901875 
L 328.94 162.901875 
" clip-path="url(#p3460b98930)" style="fill: none; stroke: #ffffff; stroke-linecap: round"/>
     </g>
     <g id="text_37">
      <!-- 220 -->
      <g style="fill: #262626" transform="translate(27.825156 166.838672)scale(0.11 -0.11)">
       <use xlink:href="#ArialMT-32"/>
       <use xlink:href="#ArialMT-32" x="55.615234"/>
       <use xlink:href="#ArialMT-30" x="111.230469"/>
      </g>
     </g>
    </g>
    <g id="ytick_12">
     <g id="line2d_37">
      <path d="M 55.67625 162.901875 
L 328.94 162.901875 
" clip-path="url(#p3460b98930)" style="fill: none; stroke: #ffffff; stroke-linecap: round"/>
     </g>
     <g id="text_38">
      <!-- 220 -->
      <g style="fill: #262626" transform="translate(27.825156 166.838672)scale(0.11 -0.11)">
       <use xlink:href="#ArialMT-32"/>
       <use xlink:href="#ArialMT-32" x="55.615234"/>
       <use xlink:href="#ArialMT-30" x="111.230469"/>
      </g>
     </g>
    </g>
    <g id="ytick_13">
     <g id="line2d_38">
      <path d="M 55.67625 162.901875 
L 328.94 162.901875 
" clip-path="url(#p3460b98930)" style="fill: none; stroke: #ffffff; stroke-linecap: round"/>
     </g>
     <g id="text_39">
      <!-- 220 -->
      <g style="fill: #262626" transform="translate(27.825156 166.838672)scale(0.11 -0.11)">
       <use xlink:href="#ArialMT-32"/>
       <use xlink:href="#ArialMT-32" x="55.615234"/>
       <use xlink:href="#ArialMT-30" x="111.230469"/>
      </g>
     </g>
    </g>
    <g id="ytick_14">
     <g id="line2d_39">
      <path d="M 55.67625 162.901875 
L 328.94 162.901875 
" clip-path="url(#p3460b98930)" style="fill: none; stroke: #ffffff; stroke-linecap: round"/>
     </g>
     <g id="text_40">
      <!-- 220 -->
      <g style="fill: #262626" transform="translate(27.825156 166.838672)scale(0.11 -0.11)">
       <use xlink:href="#ArialMT-32"/>
       <use xlink:href="#ArialMT-32" x="55.615234"/>
       <use xlink:href="#ArialMT-30" x="111.230469"/>
      </g>
     </g>
    </g>
    <g id="ytick_15">
     <g id="line2d_40">
      <path d="M 55.67625 162.901875 
L 328.94 162.901875 
" clip-path="url(#p3460b98930)" style="fill: none; stroke: #ffffff; stroke-linecap: round"/>
     </g>
     <g id="text_41">
      <!-- 220 -->
      <g style="fill: #262626" transform="translate(27.825156 166.838672)scale(0.11 -0.11)">
       <use xlink:href="#ArialMT-32"/>
       <use xlink:href="#ArialMT-32" x="55.615234"/>
       <use xlink:href="#ArialMT-30" x="111.230469"/>
      </g>
     </g>
    </g>
    <g id="ytick_16">
     <g id="line2d_41">
      <path d="M 55.67625 107.778889 
L 328.94 107.778889 
" clip-path="url(#p3460b98930)" style="fill: none; stroke: #ffffff; stroke-linecap: round"/>
     </g>
     <g id="text_42">
      <!-- 330 -->
      <g style="fill: #262626" transform="translate(27.825156 111.715686)scale(0.11 -0.11)">
       <use xlink:href="#ArialMT-33"/>
       <use xlink:href="#ArialMT-33" x="55.615234"/>
       <use xlink:href="#ArialMT-30" x="111.230469"/>
      </g>
     </g>
    </g>
    <g id="ytick_17">
     <g id="line2d_42">
      <path d="M 55.67625 107.778889 
L 328.94 107.778889 
" clip-path="url(#p3460b98930)" style="fill: none; stroke: #ffffff; stroke-linecap: round"/>
     </g>
     <g id="text_43">
      <!-- 330 -->
      <g style="fill: #262626" transform="translate(27.825156 111.715686)scale(0.11 -0.11)">
       <use xlink:href="#ArialMT-33"/>
       <use xlink:href="#ArialMT-33" x="55.615234"/>
       <use xlink:href="#ArialMT-30" x="111.230469"/>
      </g>
     </g>
    </g>
    <g id="ytick_18">
     <g id="line2d_43">
      <path d="M 55.67625 107.778889 
L 328.94 107.778889 
" clip-path="url(#p3460b98930)" style="fill: none; stroke: #ffffff; stroke-linecap: round"/>
     </g>
     <g id="text_44">
      <!-- 330 -->
      <g style="fill: #262626" transform="translate(27.825156 111.715686)scale(0.11 -0.11)">
       <use xlink:href="#ArialMT-33"/>
       <use xlink:href="#ArialMT-33" x="55.615234"/>
       <use xlink:href="#ArialMT-30" x="111.230469"/>
      </g>
     </g>
    </g>
    <g id="ytick_19">
     <g id="line2d_44">
      <path d="M 55.67625 107.778889 
L 328.94 107.778889 
" clip-path="url(#p3460b98930)" style="fill: none; stroke: #ffffff; stroke-linecap: round"/>
     </g>
     <g id="text_45">
      <!-- 330 -->
      <g style="fill: #262626" transform="translate(27.825156 111.715686)scale(0.11 -0.11)">
       <use xlink:href="#ArialMT-33"/>
       <use xlink:href="#ArialMT-33" x="55.615234"/>
       <use xlink:href="#ArialMT-30" x="111.230469"/>
      </g>
     </g>
    </g>
    <g id="ytick_20">
     <g id="line2d_45">
      <path d="M 55.67625 107.778889 
L 328.94 107.778889 
" clip-path="url(#p3460b98930)" style="fill: none; stroke: #ffffff; stroke-linecap: round"/>
     </g>
     <g id="text_46">
      <!-- 330 -->
      <g style="fill: #262626" transform="translate(27.825156 111.715686)scale(0.11 -0.11)">
       <use xlink:href="#ArialMT-33"/>
       <use xlink:href="#ArialMT-33" x="55.615234"/>
       <use xlink:href="#ArialMT-30" x="111.230469"/>
      </g>
     </g>
    </g>
    <g id="ytick_21">
     <g id="line2d_46">
      <path d="M 55.67625 52.655903 
L 328.94 52.655903 
" clip-path="url(#p3460b98930)" style="fill: none; stroke: #ffffff; stroke-linecap: round"/>
     </g>
     <g id="text_47">
      <!-- 440 -->
      <g style="fill: #262626" transform="translate(27.825156 56.5927)scale(0.11 -0.11)">
       <use xlink:href="#ArialMT-34"/>
       <use xlink:href="#ArialMT-34" x="55.615234"/>
       <use xlink:href="#ArialMT-30" x="111.230469"/>
      </g>
     </g>
    </g>
    <g id="ytick_22">
     <g id="line2d_47">
      <path d="M 55.67625 52.655903 
L 328.94 52.655903 
" clip-path="url(#p3460b98930)" style="fill: none; stroke: #ffffff; stroke-linecap: round"/>
     </g>
     <g id="text_48">
      <!-- 440 -->
      <g style="fill: #262626" transform="translate(27.825156 56.5927)scale(0.11 -0.11)">
       <use xlink:href="#ArialMT-34"/>
       <use xlink:href="#ArialMT-34" x="55.615234"/>
       <use xlink:href="#ArialMT-30" x="111.230469"/>
      </g>
     </g>
    </g>
    <g id="ytick_23">
     <g id="line2d_48">
      <path d="M 55.67625 52.655903 
L 328.94 52.655903 
" clip-path="url(#p3460b98930)" style="fill: none; stroke: #ffffff; stroke-linecap: round"/>
     </g>
     <g id="text_49">
      <!-- 440 -->
      <g style="fill: #262626" transform="translate(27.825156 56.5927)scale(0.11 -0.11)">
       <use xlink:href="#ArialMT-34"/>
       <use xlink:href="#ArialMT-34" x="55.615234"/>
       <use xlink:href="#ArialMT-30" x="111.230469"/>
      </g>
     </g>
    </g>
    <g id="ytick_24">
     <g id="line2d_49">
      <path d="M 55.67625 52.655903 
L 328.94 52.655903 
" clip-path="url(#p3460b98930)" style="fill: none; stroke: #ffffff; stroke-linecap: round"/>
     </g>
     <g id="text_50">
      <!-- 440 -->
      <g style="fill: #262626" transform="translate(27.825156 56.5927)scale(0.11 -0.11)">
       <use xlink:href="#ArialMT-34"/>
       <use xlink:href="#ArialMT-34" x="55.615234"/>
       <use xlink:href="#ArialMT-30" x="111.230469"/>
      </g>
     </g>
    </g>
    <g id="ytick_25">
     <g id="line2d_50">
      <path d="M 55.67625 52.655903 
L 328.94 52.655903 
" clip-path="url(#p3460b98930)" style="fill: none; stroke: #ffffff; stroke-linecap: round"/>
     </g>
     <g id="text_51">
      <!-- 440 -->
      <g style="fill: #262626" transform="translate(27.825156 56.5927)scale(0.11 -0.11)">
       <use xlink:href="#ArialMT-34"/>
       <use xlink:href="#ArialMT-34" x="55.615234"/>
       <use xlink:href="#ArialMT-30" x="111.230469"/>
      </g>
     </g>
    </g>
    <g id="text_52">
     <!-- Y-Coordinate [m] -->
     <g style="fill: #262626" transform="translate(21.440156 207.703125)rotate(-90)scale(0.12 -0.12)">
      <defs>
       <path id="ArialMT-59" d="M 1784 0 
L 1784 1941 
L 19 4581 
L 756 4581 
L 1659 3200 
Q 1909 2813 2125 2425 
Q 2331 2784 2625 3234 
L 3513 4581 
L 4219 4581 
L 2391 1941 
L 2391 0 
L 1784 0 
z
" transform="scale(0.015625)"/>
      </defs>
      <use xlink:href="#ArialMT-59"/>
      <use xlink:href="#ArialMT-2d" x="57.574219"/>
      <use xlink:href="#ArialMT-43" x="90.875"/>
      <use xlink:href="#ArialMT-6f" x="163.091797"/>
      <use xlink:href="#ArialMT-6f" x="218.707031"/>
      <use xlink:href="#ArialMT-72" x="274.322266"/>
      <use xlink:href="#ArialMT-64" x="307.623047"/>
      <use xlink:href="#ArialMT-69" x="363.238281"/>
      <use xlink:href="#ArialMT-6e" x="385.455078"/>
      <use xlink:href="#ArialMT-61" x="441.070312"/>
      <use xlink:href="#ArialMT-74" x="496.685547"/>
      <use xlink:href="#ArialMT-65" x="524.46875"/>
      <use xlink:href="#ArialMT-20" x="580.083984"/>
      <use xlink:href="#ArialMT-5b" x="607.867188"/>
      <use xlink:href="#ArialMT-6d" x="635.650391"/>
      <use xlink:href="#ArialMT-5d" x="718.951172"/>
     </g>
    </g>
   </g>
   <g id="PathCollection_1">
    <path d="M 80.978449 276.683381 
C 81.916084 276.683381 82.815441 276.310855 83.478449 275.647847 
C 84.141457 274.984839 84.513983 274.085482 84.513983 273.147847 
C 84.513983 272.210213 84.141457 271.310855 83.478449 270.647847 
C 82.815441 269.984839 81.916084 269.612313 80.978449 269.612313 
C 80.040815 269.612313 79.141457 269.984839 78.478449 270.647847 
C 77.815441 271.310855 77.442915 272.210213 77.442915 273.147847 
C 77.442915 274.085482 77.815441 274.984839 78.478449 275.647847 
C 79.141457 276.310855 80.040815 276.683381 80.978449 276.683381 
z
" clip-path="url(#p3460b98930)" style="fill: #242629"/>
    <path d="M 136.643287 279.948582 
C 138.446863 279.948582 140.176812 279.232014 141.452133 277.956693 
C 142.727454 276.681372 143.444022 274.951423 143.444022 273.147847 
C 143.444022 271.344271 142.727454 269.614322 141.452133 268.339001 
C 140.176812 267.06368 138.446863 266.347112 136.643287 266.347112 
C 134.839711 266.347112 133.109762 267.06368 131.834441 268.339001 
C 130.55912 269.614322 129.842552 271.344271 129.842552 273.147847 
C 129.842552 274.951423 130.55912 276.681372 131.834441 277.956693 
C 133.109762 279.232014 134.839711 279.948582 136.643287 279.948582 
z
" clip-path="url(#p3460b98930)" style="fill: #242629"/>
    <path d="M 192.308125 279.948582 
C 194.111701 279.948582 195.84165 279.232014 197.116971 277.956693 
C 198.392292 276.681372 199.10886 274.951423 199.10886 273.147847 
C 199.10886 271.344271 198.392292 269.614322 197.116971 268.339001 
C 195.84165 267.06368 194.111701 266.347112 192.308125 266.347112 
C 190.504549 266.347112 188.7746 267.06368 187.499279 268.339001 
C 186.223958 269.614322 185.50739 271.344271 185.50739 273.147847 
C 185.50739 274.951423 186.223958 276.681372 187.499279 277.956693 
C 188.7746 279.232014 190.504549 279.948582 192.308125 279.948582 
z
" clip-path="url(#p3460b98930)" style="fill: #242629"/>
    <path d="M 247.972963 279.9071 
C 249.765538 279.9071 251.484935 279.194903 252.752477 277.927361 
C 254.020018 276.659819 254.732216 274.940422 254.732216 273.147847 
C 254.732216 271.355272 254.020018 269.635875 252.752477 268.368334 
C 251.484935 267.100792 249.765538 266.388594 247.972963 266.388594 
C 246.180388 266.388594 244.460991 267.100792 243.193449 268.368334 
C 241.925908 269.635875 241.21371 271.355272 241.21371 273.147847 
C 241.21371 274.940422 241.925908 276.659819 243.193449 277.927361 
C 244.460991 279.194903 246.180388 279.9071 247.972963 279.9071 
z
" clip-path="url(#p3460b98930)" style="fill: #242629"/>
    <path d="M 303.637801 279.9071 
C 305.430376 279.9071 307.149773 279.194903 308.417314 277.927361 
C 309.684856 276.659819 310.397054 274.940422 310.397054 273.147847 
C 310.397054 271.355272 309.684856 269.635875 308.417314 268.368334 
C 307.149773 267.100792 305.430376 266.388594 303.637801 266.388594 
C 301.845226 266.388594 300.125829 267.100792 298.858287 268.368334 
C 297.590746 269.635875 296.878548 271.355272 296.878548 273.147847 
C 296.878548 274.940422 297.590746 276.659819 298.858287 277.927361 
C 300.125829 279.194903 301.845226 279.9071 303.637801 279.9071 
z
" clip-path="url(#p3460b98930)" style="fill: #242629"/>
    <path d="M 80.978449 224.44261 
C 82.680456 224.44261 84.312982 223.766395 85.516483 222.562895 
C 86.719983 221.359394 87.396198 219.726868 87.396198 218.024861 
C 87.396198 216.322854 86.719983 214.690328 85.516483 213.486827 
C 84.312982 212.283327 82.680456 211.607112 80.978449 211.607112 
C 79.276442 211.607112 77.643916 212.283327 76.440415 213.486827 
C 75.236915 214.690328 74.5607 216.322854 74.5607 218.024861 
C 74.5607 219.726868 75.236915 221.359394 76.440415 222.562895 
C 77.643916 223.766395 79.276442 224.44261 80.978449 224.44261 
z
" clip-path="url(#p3460b98930)" style="fill: #242629"/>
    <path d="M 136.643287 223.572946 
C 138.114656 223.572946 139.52596 222.988365 140.566376 221.94795 
C 141.606791 220.907535 142.191372 219.496231 142.191372 218.024861 
C 142.191372 216.553492 141.606791 215.142188 140.566376 214.101772 
C 139.52596 213.061357 138.114656 212.476776 136.643287 212.476776 
C 135.171918 212.476776 133.760614 213.061357 132.720198 214.101772 
C 131.679783 215.142188 131.095202 216.553492 131.095202 218.024861 
C 131.095202 219.496231 131.679783 220.907535 132.720198 221.94795 
C 133.760614 222.988365 135.171918 223.572946 136.643287 223.572946 
z
" clip-path="url(#p3460b98930)" style="fill: #242629"/>
    <path d="M 192.308125 223.747623 
C 193.825819 223.747623 195.281557 223.144636 196.354729 222.071465 
C 197.4279 220.998293 198.030887 219.542555 198.030887 218.024861 
C 198.030887 216.507167 197.4279 215.051429 196.354729 213.978258 
C 195.281557 212.905086 193.825819 212.3021 192.308125 212.3021 
C 190.790431 212.3021 189.334693 212.905086 188.261521 213.978258 
C 187.18835 215.051429 186.585363 216.507167 186.585363 218.024861 
C 186.585363 219.542555 187.18835 220.998293 188.261521 222.071465 
C 189.334693 223.144636 190.790431 223.747623 192.308125 223.747623 
z
" clip-path="url(#p3460b98930)" style="fill: #242629"/>
    <path d="M 247.972963 223.547542 
C 249.437595 223.547542 250.842437 222.965637 251.878088 221.929986 
C 252.913739 220.894335 253.495643 219.489493 253.495643 218.024861 
C 253.495643 216.560229 252.913739 215.155387 251.878088 214.119736 
C 250.842437 213.084085 249.437595 212.502181 247.972963 212.502181 
C 246.508331 212.502181 245.103489 213.084085 244.067838 214.119736 
C 243.032187 215.155387 242.450282 216.560229 242.450282 218.024861 
C 242.450282 219.489493 243.032187 220.894335 244.067838 221.929986 
C 245.103489 222.965637 246.508331 223.547542 247.972963 223.547542 
z
" clip-path="url(#p3460b98930)" style="fill: #242629"/>
    <path d="M 303.637801 224.309764 
C 305.304577 224.309764 306.90331 223.647547 308.081898 222.468958 
C 309.260486 221.29037 309.922703 219.691637 309.922703 218.024861 
C 309.922703 216.358085 309.260486 214.759352 308.081898 213.580764 
C 306.90331 212.402176 305.304577 211.739959 303.637801 211.739959 
C 301.971025 211.739959 300.372292 212.402176 299.193704 213.580764 
C 298.015115 214.759352 297.352898 216.358085 297.352898 218.024861 
C 297.352898 219.691637 298.015115 221.29037 299.193704 222.468958 
C 300.372292 223.647547 301.971025 224.309764 303.637801 224.309764 
z
" clip-path="url(#p3460b98930)" style="fill: #242629"/>
    <path d="M 80.978449 169.275649 
C 82.668794 169.275649 84.290134 168.604068 85.485388 167.408814 
C 86.680642 166.21356 87.352223 164.59222 87.352223 162.901875 
C 87.352223 161.21153 86.680642 159.59019 85.485388 158.394936 
C 84.290134 157.199682 82.668794 156.528101 80.978449 156.528101 
C 79.288104 156.528101 77.666764 157.199682 76.47151 158.394936 
C 75.276256 159.59019 74.604675 161.21153 74.604675 162.901875 
C 74.604675 164.59222 75.276256 166.21356 76.47151 167.408814 
C 77.666764 168.604068 79.288104 169.275649 80.978449 169.275649 
z
" clip-path="url(#p3460b98930)" style="fill: #242629"/>
    <path d="M 136.643287 168.373392 
C 138.09435 168.373392 139.486177 167.796879 140.512234 166.770822 
C 141.538291 165.744765 142.114804 164.352938 142.114804 162.901875 
C 142.114804 161.450812 141.538291 160.058985 140.512234 159.032928 
C 139.486177 158.006871 138.09435 157.430358 136.643287 157.430358 
C 135.192224 157.430358 133.800397 158.006871 132.77434 159.032928 
C 131.748283 160.058985 131.17177 161.450812 131.17177 162.901875 
C 131.17177 164.352938 131.748283 165.744765 132.77434 166.770822 
C 133.800397 167.796879 135.192224 168.373392 136.643287 168.373392 
z
" clip-path="url(#p3460b98930)" style="fill: #242629"/>
    <path d="M 192.308125 168.575278 
C 193.812729 168.575278 195.255911 167.977492 196.319827 166.913577 
C 197.383742 165.849661 197.981528 164.406479 197.981528 162.901875 
C 197.981528 161.397271 197.383742 159.954089 196.319827 158.890173 
C 195.255911 157.826258 193.812729 157.228472 192.308125 157.228472 
C 190.803521 157.228472 189.360339 157.826258 188.296423 158.890173 
C 187.232508 159.954089 186.634722 161.397271 186.634722 162.901875 
C 186.634722 164.406479 187.232508 165.849661 188.296423 166.913577 
C 189.360339 167.977492 190.803521 168.575278 192.308125 168.575278 
z
" clip-path="url(#p3460b98930)" style="fill: #242629"/>
    <path d="M 247.972963 168.722098 
C 249.516504 168.722098 250.997034 168.108843 252.088482 167.017394 
C 253.179931 165.925946 253.793186 164.445416 253.793186 162.901875 
C 253.793186 161.358334 253.179931 159.877804 252.088482 158.786356 
C 250.997034 157.694907 249.516504 157.081652 247.972963 157.081652 
C 246.429422 157.081652 244.948892 157.694907 243.857444 158.786356 
C 242.765995 159.877804 242.15274 161.358334 242.15274 162.901875 
C 242.15274 164.445416 242.765995 165.925946 243.857444 167.017394 
C 244.948892 168.108843 246.429422 168.722098 247.972963 168.722098 
z
" clip-path="url(#p3460b98930)" style="fill: #242629"/>
    <path d="M 303.637801 169.164363 
C 305.298632 169.164363 306.891663 168.504507 308.066048 167.330122 
C 309.240433 166.155737 309.900288 164.562706 309.900288 162.901875 
C 309.900288 161.241044 309.240433 159.648013 308.066048 158.473628 
C 306.891663 157.299243 305.298632 156.639387 303.637801 156.639387 
C 301.97697 156.639387 300.383938 157.299243 299.209554 158.473628 
C 298.035169 159.648013 297.375313 161.241044 297.375313 162.901875 
C 297.375313 164.562706 298.035169 166.155737 299.209554 167.330122 
C 300.383938 168.504507 301.97697 169.164363 303.637801 169.164363 
z
" clip-path="url(#p3460b98930)" style="fill: #242629"/>
    <path d="M 80.978449 114.086127 
C 82.651148 114.086127 84.255563 113.421556 85.43834 112.23878 
C 86.621117 111.056003 87.285687 109.451588 87.285687 107.778889 
C 87.285687 106.10619 86.621117 104.501775 85.43834 103.318998 
C 84.255563 102.136221 82.651148 101.471651 80.978449 101.471651 
C 79.30575 101.471651 77.701335 102.136221 76.518558 103.318998 
C 75.335782 104.501775 74.671211 106.10619 74.671211 107.778889 
C 74.671211 109.451588 75.335782 111.056003 76.518558 112.23878 
C 77.701335 113.421556 79.30575 114.086127 80.978449 114.086127 
z
" clip-path="url(#p3460b98930)" style="fill: #242629"/>
    <path d="M 136.643287 113.301569 
C 138.107919 113.301569 139.512761 112.719665 140.548412 111.684014 
C 141.584063 110.648363 142.165968 109.243521 142.165968 107.778889 
C 142.165968 106.314257 141.584063 104.909415 140.548412 103.873764 
C 139.512761 102.838113 138.107919 102.256208 136.643287 102.256208 
C 135.178655 102.256208 133.773813 102.838113 132.738162 103.873764 
C 131.702511 104.909415 131.120607 106.314257 131.120607 107.778889 
C 131.120607 109.243521 131.702511 110.648363 132.738162 111.684014 
C 133.773813 112.719665 135.178655 113.301569 136.643287 113.301569 
z
" clip-path="url(#p3460b98930)" style="fill: #242629"/>
    <path d="M 192.308125 113.5749 
C 193.845245 113.5749 195.319616 112.964196 196.406524 111.877288 
C 197.493432 110.79038 198.104137 109.316009 198.104137 107.778889 
C 198.104137 106.241769 197.493432 104.767398 196.406524 103.68049 
C 195.319616 102.593582 193.845245 101.982877 192.308125 101.982877 
C 190.771005 101.982877 189.296634 102.593582 188.209726 103.68049 
C 187.122818 104.767398 186.512113 106.241769 186.512113 107.778889 
C 186.512113 109.316009 187.122818 110.79038 188.209726 111.877288 
C 189.296634 112.964196 190.771005 113.5749 192.308125 113.5749 
z
" clip-path="url(#p3460b98930)" style="fill: #242629"/>
    <path d="M 247.972963 113.250406 
C 249.424026 113.250406 250.815853 112.673892 251.84191 111.647836 
C 252.867967 110.621779 253.44448 109.229952 253.44448 107.778889 
C 253.44448 106.327826 252.867967 104.935999 251.84191 103.909942 
C 250.815853 102.883885 249.424026 102.307372 247.972963 102.307372 
C 246.5219 102.307372 245.130073 102.883885 244.104016 103.909942 
C 243.077959 104.935999 242.501446 106.327826 242.501446 107.778889 
C 242.501446 109.229952 243.077959 110.621779 244.104016 111.647836 
C 245.130073 112.673892 246.5219 113.250406 247.972963 113.250406 
z
" clip-path="url(#p3460b98930)" style="fill: #242629"/>
    <path d="M 303.637801 114.063791 
C 305.304577 114.063791 306.90331 113.401574 308.081898 112.222986 
C 309.260486 111.044398 309.922703 109.445665 309.922703 107.778889 
C 309.922703 106.112113 309.260486 104.51338 308.081898 103.334792 
C 306.90331 102.156203 305.304577 101.493986 303.637801 101.493986 
C 301.971025 101.493986 300.372292 102.156203 299.193704 103.334792 
C 298.015115 104.51338 297.352898 106.112113 297.352898 107.778889 
C 297.352898 109.445665 298.015115 111.044398 299.193704 112.222986 
C 300.372292 113.401574 301.971025 114.063791 303.637801 114.063791 
z
" clip-path="url(#p3460b98930)" style="fill: #242629"/>
    <path d="M 80.978449 59.029677 
C 82.668794 59.029677 84.290134 58.358096 85.485388 57.162842 
C 86.680642 55.967588 87.352223 54.346248 87.352223 52.655903 
C 87.352223 50.965558 86.680642 49.344218 85.485388 48.148964 
C 84.290134 46.953709 82.668794 46.282128 80.978449 46.282128 
C 79.288104 46.282128 77.666764 46.953709 76.47151 48.148964 
C 75.276256 49.344218 74.604675 50.965558 74.604675 52.655903 
C 74.604675 54.346248 75.276256 55.967588 76.47151 57.162842 
C 77.666764 58.358096 79.288104 59.029677 80.978449 59.029677 
z
" clip-path="url(#p3460b98930)" style="fill: #242629"/>
    <path d="M 136.643287 59.029677 
C 138.333632 59.029677 139.954972 58.358096 141.150226 57.162842 
C 142.34548 55.967588 143.017061 54.346248 143.017061 52.655903 
C 143.017061 50.965558 142.34548 49.344218 141.150226 48.148964 
C 139.954972 46.953709 138.333632 46.282128 136.643287 46.282128 
C 134.952942 46.282128 133.331602 46.953709 132.136348 48.148964 
C 130.941094 49.344218 130.269513 50.965558 130.269513 52.655903 
C 130.269513 54.346248 130.941094 55.967588 132.136348 57.162842 
C 133.331602 58.358096 134.952942 59.029677 136.643287 59.029677 
z
" clip-path="url(#p3460b98930)" style="fill: #242629"/>
    <path d="M 192.308125 59.029677 
C 193.99847 59.029677 195.61981 58.358096 196.815064 57.162842 
C 198.010318 55.967588 198.681899 54.346248 198.681899 52.655903 
C 198.681899 50.965558 198.010318 49.344218 196.815064 48.148964 
C 195.61981 46.953709 193.99847 46.282128 192.308125 46.282128 
C 190.61778 46.282128 188.99644 46.953709 187.801186 48.148964 
C 186.605932 49.344218 185.934351 50.965558 185.934351 52.655903 
C 185.934351 54.346248 186.605932 55.967588 187.801186 57.162842 
C 188.99644 58.358096 190.61778 59.029677 192.308125 59.029677 
z
" clip-path="url(#p3460b98930)" style="fill: #242629"/>
    <path d="M 247.972963 59.029677 
C 249.663308 59.029677 251.284648 58.358096 252.479902 57.162842 
C 253.675156 55.967588 254.346737 54.346248 254.346737 52.655903 
C 254.346737 50.965558 253.675156 49.344218 252.479902 48.148964 
C 251.284648 46.953709 249.663308 46.282128 247.972963 46.282128 
C 246.282618 46.282128 244.661278 46.953709 243.466024 48.148964 
C 242.27077 49.344218 241.599189 50.965558 241.599189 52.655903 
C 241.599189 54.346248 242.27077 55.967588 243.466024 57.162842 
C 244.661278 58.358096 246.282618 59.029677 247.972963 59.029677 
z
" clip-path="url(#p3460b98930)" style="fill: #242629"/>
    <path d="M 303.637801 59.007576 
C 305.322284 59.007576 306.938002 58.338323 308.129112 57.147214 
C 309.320222 55.956104 309.989474 54.340386 309.989474 52.655903 
C 309.989474 50.971419 309.320222 49.355701 308.129112 48.164592 
C 306.938002 46.973482 305.322284 46.30423 303.637801 46.30423 
C 301.953318 46.30423 300.337599 46.973482 299.14649 48.164592 
C 297.95538 49.355701 297.286128 50.971419 297.286128 52.655903 
C 297.286128 54.340386 297.95538 55.956104 299.14649 57.147214 
C 300.337599 58.338323 301.953318 59.007576 303.637801 59.007576 
z
" clip-path="url(#p3460b98930)" style="fill: #242629"/>
   </g>
   <g id="PathCollection_2"/>
   <g id="PathCollection_3"/>
   <g id="PathCollection_4"/>
   <g id="PathCollection_5"/>
   <g id="PathCollection_6"/>
   <g id="PathCollection_7"/>
   <g id="PathCollection_8">
    <defs>
     <path id="m9631e49003" d="M 0 3 
C 0.795609 3 1.55874 2.683901 2.12132 2.12132 
C 2.683901 1.55874 3 0.795609 3 0 
C 3 -0.795609 2.683901 -1.55874 2.12132 -2.12132 
C 1.55874 -2.683901 0.795609 -3 0 -3 
C -0.795609 -3 -1.55874 -2.683901 -2.12132 -2.12132 
C -2.683901 -1.55874 -3 -0.795609 -3 0 
C -3 0.795609 -2.683901 1.55874 -2.12132 2.12132 
C -1.55874 2.683901 -0.795609 3 0 3 
z
" style="stroke: #ffffff"/>
    </defs>
    <g clip-path="url(#p3460b98930)">
     <use xlink:href="#m9631e49003" x="164.475706" y="162.901875" style="fill: #dd8452; stroke: #ffffff"/>
     <use xlink:href="#m9631e49003" x="220.140544" y="162.901875" style="fill: #dd8452; stroke: #ffffff"/>
    </g>
   </g>
   <g id="PathCollection_9">
    <path d="M 164.475706 165.023195 
C 165.038287 165.023195 165.577901 164.79968 165.975706 164.401875 
C 166.373511 164.00407 166.597026 163.464456 166.597026 162.901875 
C 166.597026 162.339294 166.373511 161.79968 165.975706 161.401875 
C 165.577901 161.00407 165.038287 160.780555 164.475706 160.780555 
C 163.913125 160.780555 163.373511 161.00407 162.975706 161.401875 
C 162.577901 161.79968 162.354386 162.339294 162.354386 162.901875 
C 162.354386 163.464456 162.577901 164.00407 162.975706 164.401875 
C 163.373511 164.79968 163.913125 165.023195 164.475706 165.023195 
z
" clip-path="url(#p3460b98930)" style="fill: #ffa500; stroke: #ffa500; stroke-width: 0.339411"/>
    <path d="M 220.140544 165.023195 
C 220.703125 165.023195 221.242739 164.79968 221.640544 164.401875 
C 222.038349 164.00407 222.261864 163.464456 222.261864 162.901875 
C 222.261864 162.339294 222.038349 161.79968 221.640544 161.401875 
C 221.242739 161.00407 220.703125 160.780555 220.140544 160.780555 
C 219.577963 160.780555 219.038349 161.00407 218.640544 161.401875 
C 218.242739 161.79968 218.019224 162.339294 218.019224 162.901875 
C 218.019224 163.464456 218.242739 164.00407 218.640544 164.401875 
C 219.038349 164.79968 219.577963 165.023195 220.140544 165.023195 
z
" clip-path="url(#p3460b98930)" style="fill: #ffa500; stroke: #ffa500; stroke-width: 0.339411"/>
   </g>
   <g id="PathCollection_10">
    <defs>
     <path id="C0_0_a61e4c7aaf" d="M 0 74.161985 
C 19.667988 74.161985 38.533075 66.34781 52.440442 52.440442 
C 66.34781 38.533075 74.161985 19.667988 74.161985 -0 
C 74.161985 -19.667988 66.34781 -38.533075 52.440442 -52.440442 
C 38.533075 -66.34781 19.667988 -74.161985 0 -74.161985 
C -19.667988 -74.161985 -38.533075 -66.34781 -52.440442 -52.440442 
C -66.34781 -38.533075 -74.161985 -19.667988 -74.161985 0 
C -74.161985 19.667988 -66.34781 38.533075 -52.440442 52.440442 
C -38.533075 66.34781 -19.667988 74.161985 0 74.161985 
z
"/>
    </defs>
    <g clip-path="url(#p3460b98930)">
     <use xlink:href="#C0_0_a61e4c7aaf" x="164.475706" y="162.901875" style="fill: none; stroke: #ff0000"/>
    </g>
    <g clip-path="url(#p3460b98930)">
     <use xlink:href="#C0_0_a61e4c7aaf" x="220.140544" y="162.901875" style="fill: none; stroke: #ff0000"/>
    </g>
   </g>
   <g id="patch_3">
    <path d="M 55.67625 298.20375 
L 55.67625 27.6 
" style="fill: none; stroke: #ffffff; stroke-width: 1.25; stroke-linejoin: miter; stroke-linecap: square"/>
   </g>
   <g id="patch_4">
    <path d="M 328.94 298.20375 
L 328.94 27.6 
" style="fill: none; stroke: #ffffff; stroke-width: 1.25; stroke-linejoin: miter; stroke-linecap: square"/>
   </g>
   <g id="patch_5">
    <path d="M 55.67625 298.20375 
L 328.94 298.20375 
" style="fill: none; stroke: #ffffff; stroke-width: 1.25; stroke-linejoin: miter; stroke-linecap: square"/>
   </g>
   <g id="patch_6">
    <path d="M 55.67625 27.6 
L 328.94 27.6 
" style="fill: none; stroke: #ffffff; stroke-width: 1.25; stroke-linejoin: miter; stroke-linecap: square"/>
   </g>
   <g id="text_53">
    <!-- MPL 1D0C with Interference -->
    <g style="fill: #262626" transform="translate(117.17125 21.6)scale(0.12 -0.12)">
     <defs>
      <path id="ArialMT-4d" d="M 475 0 
L 475 4581 
L 1388 4581 
L 2472 1338 
Q 2622 884 2691 659 
Q 2769 909 2934 1394 
L 4031 4581 
L 4847 4581 
L 4847 0 
L 4263 0 
L 4263 3834 
L 2931 0 
L 2384 0 
L 1059 3900 
L 1059 0 
L 475 0 
z
" transform="scale(0.015625)"/>
      <path id="ArialMT-50" d="M 494 0 
L 494 4581 
L 2222 4581 
Q 2678 4581 2919 4538 
Q 3256 4481 3484 4323 
Q 3713 4166 3852 3881 
Q 3991 3597 3991 3256 
Q 3991 2672 3619 2267 
Q 3247 1863 2275 1863 
L 1100 1863 
L 1100 0 
L 494 0 
z
M 1100 2403 
L 2284 2403 
Q 2872 2403 3119 2622 
Q 3366 2841 3366 3238 
Q 3366 3525 3220 3729 
Q 3075 3934 2838 4000 
Q 2684 4041 2272 4041 
L 1100 4041 
L 1100 2403 
z
" transform="scale(0.015625)"/>
      <path id="ArialMT-4c" d="M 469 0 
L 469 4581 
L 1075 4581 
L 1075 541 
L 3331 541 
L 3331 0 
L 469 0 
z
" transform="scale(0.015625)"/>
      <path id="ArialMT-44" d="M 494 0 
L 494 4581 
L 2072 4581 
Q 2606 4581 2888 4516 
Q 3281 4425 3559 4188 
Q 3922 3881 4101 3404 
Q 4281 2928 4281 2316 
Q 4281 1794 4159 1391 
Q 4038 988 3847 723 
Q 3656 459 3429 307 
Q 3203 156 2883 78 
Q 2563 0 2147 0 
L 494 0 
z
M 1100 541 
L 2078 541 
Q 2531 541 2789 625 
Q 3047 709 3200 863 
Q 3416 1078 3536 1442 
Q 3656 1806 3656 2325 
Q 3656 3044 3420 3430 
Q 3184 3816 2847 3947 
Q 2603 4041 2063 4041 
L 1100 4041 
L 1100 541 
z
" transform="scale(0.015625)"/>
      <path id="ArialMT-77" d="M 1034 0 
L 19 3319 
L 600 3319 
L 1128 1403 
L 1325 691 
Q 1338 744 1497 1375 
L 2025 3319 
L 2603 3319 
L 3100 1394 
L 3266 759 
L 3456 1400 
L 4025 3319 
L 4572 3319 
L 3534 0 
L 2950 0 
L 2422 1988 
L 2294 2553 
L 1622 0 
L 1034 0 
z
" transform="scale(0.015625)"/>
      <path id="ArialMT-68" d="M 422 0 
L 422 4581 
L 984 4581 
L 984 2938 
Q 1378 3394 1978 3394 
Q 2347 3394 2619 3248 
Q 2891 3103 3008 2847 
Q 3125 2591 3125 2103 
L 3125 0 
L 2563 0 
L 2563 2103 
Q 2563 2525 2380 2717 
Q 2197 2909 1863 2909 
Q 1613 2909 1392 2779 
Q 1172 2650 1078 2428 
Q 984 2206 984 1816 
L 984 0 
L 422 0 
z
" transform="scale(0.015625)"/>
      <path id="ArialMT-49" d="M 597 0 
L 597 4581 
L 1203 4581 
L 1203 0 
L 597 0 
z
" transform="scale(0.015625)"/>
      <path id="ArialMT-66" d="M 556 0 
L 556 2881 
L 59 2881 
L 59 3319 
L 556 3319 
L 556 3672 
Q 556 4006 616 4169 
Q 697 4388 901 4523 
Q 1106 4659 1475 4659 
Q 1713 4659 2000 4603 
L 1916 4113 
Q 1741 4144 1584 4144 
Q 1328 4144 1222 4034 
Q 1116 3925 1116 3625 
L 1116 3319 
L 1763 3319 
L 1763 2881 
L 1116 2881 
L 1116 0 
L 556 0 
z
" transform="scale(0.015625)"/>
      <path id="ArialMT-63" d="M 2588 1216 
L 3141 1144 
Q 3050 572 2676 248 
Q 2303 -75 1759 -75 
Q 1078 -75 664 370 
Q 250 816 250 1647 
Q 250 2184 428 2587 
Q 606 2991 970 3192 
Q 1334 3394 1763 3394 
Q 2303 3394 2647 3120 
Q 2991 2847 3088 2344 
L 2541 2259 
Q 2463 2594 2264 2762 
Q 2066 2931 1784 2931 
Q 1359 2931 1093 2626 
Q 828 2322 828 1663 
Q 828 994 1084 691 
Q 1341 388 1753 388 
Q 2084 388 2306 591 
Q 2528 794 2588 1216 
z
" transform="scale(0.015625)"/>
     </defs>
     <use xlink:href="#ArialMT-4d"/>
     <use xlink:href="#ArialMT-50" x="83.300781"/>
     <use xlink:href="#ArialMT-4c" x="150"/>
     <use xlink:href="#ArialMT-20" x="201.865234"/>
     <use xlink:href="#ArialMT-31" x="229.648438"/>
     <use xlink:href="#ArialMT-44" x="285.263672"/>
     <use xlink:href="#ArialMT-30" x="357.480469"/>
     <use xlink:href="#ArialMT-43" x="413.095703"/>
     <use xlink:href="#ArialMT-20" x="485.3125"/>
     <use xlink:href="#ArialMT-77" x="513.095703"/>
     <use xlink:href="#ArialMT-69" x="585.3125"/>
     <use xlink:href="#ArialMT-74" x="607.529297"/>
     <use xlink:href="#ArialMT-68" x="635.3125"/>
     <use xlink:href="#ArialMT-20" x="690.927734"/>
     <use xlink:href="#ArialMT-49" x="718.710938"/>
     <use xlink:href="#ArialMT-6e" x="746.494141"/>
     <use xlink:href="#ArialMT-74" x="802.109375"/>
     <use xlink:href="#ArialMT-65" x="829.892578"/>
     <use xlink:href="#ArialMT-72" x="885.507812"/>
     <use xlink:href="#ArialMT-66" x="918.808594"/>
     <use xlink:href="#ArialMT-65" x="946.591797"/>
     <use xlink:href="#ArialMT-72" x="1002.207031"/>
     <use xlink:href="#ArialMT-65" x="1035.507812"/>
     <use xlink:href="#ArialMT-6e" x="1091.123047"/>
     <use xlink:href="#ArialMT-63" x="1146.738281"/>
     <use xlink:href="#ArialMT-65" x="1196.738281"/>
    </g>
   </g>
   <g id="legend_1">
    <g id="patch_7">
     <path d="M 336.64 226.858281 
L 445.823594 226.858281 
Q 448.023594 226.858281 448.023594 224.658281 
L 448.023594 101.145469 
Q 448.023594 98.945469 445.823594 98.945469 
L 336.64 98.945469 
Q 334.44 98.945469 334.44 101.145469 
L 334.44 224.658281 
Q 334.44 226.858281 336.64 226.858281 
z
" style="fill: #eaeaf2; opacity: 0.8; stroke: #cccccc; stroke-linejoin: miter"/>
    </g>
    <g id="text_54">
     <!-- PDR [%] -->
     <g style="fill: #262626" transform="translate(369.64 111.353125)scale(0.11 -0.11)">
      <defs>
       <path id="ArialMT-52" d="M 503 0 
L 503 4581 
L 2534 4581 
Q 3147 4581 3465 4457 
Q 3784 4334 3975 4021 
Q 4166 3709 4166 3331 
Q 4166 2844 3850 2509 
Q 3534 2175 2875 2084 
Q 3116 1969 3241 1856 
Q 3506 1613 3744 1247 
L 4541 0 
L 3778 0 
L 3172 953 
Q 2906 1366 2734 1584 
Q 2563 1803 2427 1890 
Q 2291 1978 2150 2013 
Q 2047 2034 1813 2034 
L 1109 2034 
L 1109 0 
L 503 0 
z
M 1109 2559 
L 2413 2559 
Q 2828 2559 3062 2645 
Q 3297 2731 3419 2920 
Q 3541 3109 3541 3331 
Q 3541 3656 3305 3865 
Q 3069 4075 2559 4075 
L 1109 4075 
L 1109 2559 
z
" transform="scale(0.015625)"/>
       <path id="ArialMT-25" d="M 372 3481 
Q 372 3972 619 4315 
Q 866 4659 1334 4659 
Q 1766 4659 2048 4351 
Q 2331 4044 2331 3447 
Q 2331 2866 2045 2552 
Q 1759 2238 1341 2238 
Q 925 2238 648 2547 
Q 372 2856 372 3481 
z
M 1350 4272 
Q 1141 4272 1002 4090 
Q 863 3909 863 3425 
Q 863 2984 1003 2804 
Q 1144 2625 1350 2625 
Q 1563 2625 1702 2806 
Q 1841 2988 1841 3469 
Q 1841 3913 1700 4092 
Q 1559 4272 1350 4272 
z
M 1353 -169 
L 3859 4659 
L 4316 4659 
L 1819 -169 
L 1353 -169 
z
M 3334 1075 
Q 3334 1569 3581 1911 
Q 3828 2253 4300 2253 
Q 4731 2253 5014 1945 
Q 5297 1638 5297 1041 
Q 5297 459 5011 145 
Q 4725 -169 4303 -169 
Q 3888 -169 3611 142 
Q 3334 453 3334 1075 
z
M 4316 1866 
Q 4103 1866 3964 1684 
Q 3825 1503 3825 1019 
Q 3825 581 3965 400 
Q 4106 219 4313 219 
Q 4528 219 4667 400 
Q 4806 581 4806 1063 
Q 4806 1506 4665 1686 
Q 4525 1866 4316 1866 
z
" transform="scale(0.015625)"/>
      </defs>
      <use xlink:href="#ArialMT-50"/>
      <use xlink:href="#ArialMT-44" x="66.699219"/>
      <use xlink:href="#ArialMT-52" x="138.916016"/>
      <use xlink:href="#ArialMT-20" x="211.132812"/>
      <use xlink:href="#ArialMT-5b" x="238.916016"/>
      <use xlink:href="#ArialMT-25" x="266.699219"/>
      <use xlink:href="#ArialMT-5d" x="355.615234"/>
     </g>
    </g>
    <g id="PathCollection_11">
     <defs>
      <path id="m3cca7e24dd" d="M 0 3 
C 0.795609 3 1.55874 2.683901 2.12132 2.12132 
C 2.683901 1.55874 3 0.795609 3 0 
C 3 -0.795609 2.683901 -1.55874 2.12132 -2.12132 
C 1.55874 -2.683901 0.795609 -3 0 -3 
C -0.795609 -3 -1.55874 -2.683901 -2.12132 -2.12132 
C -2.683901 -1.55874 -3 -0.795609 -3 0 
C -3 0.795609 -2.683901 1.55874 -2.12132 2.12132 
C -1.55874 2.683901 -0.795609 3 0 3 
z
" style="stroke: #242629"/>
     </defs>
     <g>
      <use xlink:href="#m3cca7e24dd" x="349.84" y="124.025469" style="fill: #242629; stroke: #242629"/>
     </g>
    </g>
    <g id="text_55">
     <!-- inf -->
     <g style="fill: #262626" transform="translate(369.64 126.912969)scale(0.11 -0.11)">
      <use xlink:href="#ArialMT-69"/>
      <use xlink:href="#ArialMT-6e" x="22.216797"/>
      <use xlink:href="#ArialMT-66" x="77.832031"/>
     </g>
    </g>
    <g id="text_56">
     <!-- # Sent Packets -->
     <g style="fill: #262626" transform="translate(369.64 142.472812)scale(0.11 -0.11)">
      <defs>
       <path id="ArialMT-23" d="M 322 -78 
L 594 1253 
L 66 1253 
L 66 1719 
L 688 1719 
L 919 2853 
L 66 2853 
L 66 3319 
L 1013 3319 
L 1284 4659 
L 1753 4659 
L 1481 3319 
L 2466 3319 
L 2738 4659 
L 3209 4659 
L 2938 3319 
L 3478 3319 
L 3478 2853 
L 2844 2853 
L 2609 1719 
L 3478 1719 
L 3478 1253 
L 2516 1253 
L 2244 -78 
L 1775 -78 
L 2044 1253 
L 1063 1253 
L 791 -78 
L 322 -78 
z
M 1156 1719 
L 2138 1719 
L 2372 2853 
L 1388 2853 
L 1156 1719 
z
" transform="scale(0.015625)"/>
       <path id="ArialMT-53" d="M 288 1472 
L 859 1522 
Q 900 1178 1048 958 
Q 1197 738 1509 602 
Q 1822 466 2213 466 
Q 2559 466 2825 569 
Q 3091 672 3220 851 
Q 3350 1031 3350 1244 
Q 3350 1459 3225 1620 
Q 3100 1781 2813 1891 
Q 2628 1963 1997 2114 
Q 1366 2266 1113 2400 
Q 784 2572 623 2826 
Q 463 3081 463 3397 
Q 463 3744 659 4045 
Q 856 4347 1234 4503 
Q 1613 4659 2075 4659 
Q 2584 4659 2973 4495 
Q 3363 4331 3572 4012 
Q 3781 3694 3797 3291 
L 3216 3247 
Q 3169 3681 2898 3903 
Q 2628 4125 2100 4125 
Q 1550 4125 1298 3923 
Q 1047 3722 1047 3438 
Q 1047 3191 1225 3031 
Q 1400 2872 2139 2705 
Q 2878 2538 3153 2413 
Q 3553 2228 3743 1945 
Q 3934 1663 3934 1294 
Q 3934 928 3725 604 
Q 3516 281 3123 101 
Q 2731 -78 2241 -78 
Q 1619 -78 1198 103 
Q 778 284 539 648 
Q 300 1013 288 1472 
z
" transform="scale(0.015625)"/>
       <path id="ArialMT-6b" d="M 425 0 
L 425 4581 
L 988 4581 
L 988 1969 
L 2319 3319 
L 3047 3319 
L 1778 2088 
L 3175 0 
L 2481 0 
L 1384 1697 
L 988 1316 
L 988 0 
L 425 0 
z
" transform="scale(0.015625)"/>
       <path id="ArialMT-73" d="M 197 991 
L 753 1078 
Q 800 744 1014 566 
Q 1228 388 1613 388 
Q 2000 388 2187 545 
Q 2375 703 2375 916 
Q 2375 1106 2209 1216 
Q 2094 1291 1634 1406 
Q 1016 1563 777 1677 
Q 538 1791 414 1992 
Q 291 2194 291 2438 
Q 291 2659 392 2848 
Q 494 3038 669 3163 
Q 800 3259 1026 3326 
Q 1253 3394 1513 3394 
Q 1903 3394 2198 3281 
Q 2494 3169 2634 2976 
Q 2775 2784 2828 2463 
L 2278 2388 
Q 2241 2644 2061 2787 
Q 1881 2931 1553 2931 
Q 1166 2931 1000 2803 
Q 834 2675 834 2503 
Q 834 2394 903 2306 
Q 972 2216 1119 2156 
Q 1203 2125 1616 2013 
Q 2213 1853 2448 1751 
Q 2684 1650 2818 1456 
Q 2953 1263 2953 975 
Q 2953 694 2789 445 
Q 2625 197 2315 61 
Q 2006 -75 1616 -75 
Q 969 -75 630 194 
Q 291 463 197 991 
z
" transform="scale(0.015625)"/>
      </defs>
      <use xlink:href="#ArialMT-23"/>
      <use xlink:href="#ArialMT-20" x="55.615234"/>
      <use xlink:href="#ArialMT-53" x="83.398438"/>
      <use xlink:href="#ArialMT-65" x="150.097656"/>
      <use xlink:href="#ArialMT-6e" x="205.712891"/>
      <use xlink:href="#ArialMT-74" x="261.328125"/>
      <use xlink:href="#ArialMT-20" x="289.111328"/>
      <use xlink:href="#ArialMT-50" x="316.894531"/>
      <use xlink:href="#ArialMT-61" x="383.59375"/>
      <use xlink:href="#ArialMT-63" x="439.208984"/>
      <use xlink:href="#ArialMT-6b" x="489.208984"/>
      <use xlink:href="#ArialMT-65" x="539.208984"/>
      <use xlink:href="#ArialMT-74" x="594.824219"/>
      <use xlink:href="#ArialMT-73" x="622.607422"/>
     </g>
    </g>
    <g id="PathCollection_12">
     <defs>
      <path id="m2801f6cf41" d="M 0 3.535534 
C 0.937635 3.535534 1.836992 3.163008 2.5 2.5 
C 3.163008 1.836992 3.535534 0.937635 3.535534 0 
C 3.535534 -0.937635 3.163008 -1.836992 2.5 -2.5 
C 1.836992 -3.163008 0.937635 -3.535534 0 -3.535534 
C -0.937635 -3.535534 -1.836992 -3.163008 -2.5 -2.5 
C -3.163008 -1.836992 -3.535534 -0.937635 -3.535534 0 
C -3.535534 0.937635 -3.163008 1.836992 -2.5 2.5 
C -1.836992 3.163008 -0.937635 3.535534 0 3.535534 
z
" style="stroke: #333333"/>
     </defs>
     <g>
      <use xlink:href="#m2801f6cf41" x="349.84" y="155.145156" style="fill: #333333; stroke: #333333"/>
     </g>
    </g>
    <g id="text_57">
     <!-- 0 -->
     <g style="fill: #262626" transform="translate(369.64 158.032656)scale(0.11 -0.11)">
      <use xlink:href="#ArialMT-30"/>
     </g>
    </g>
    <g id="PathCollection_13">
     <g>
      <use xlink:href="#m2801f6cf41" x="349.84" y="170.705" style="fill: #333333; stroke: #333333"/>
     </g>
    </g>
    <g id="text_58">
     <!-- 15 -->
     <g style="fill: #262626" transform="translate(369.64 173.5925)scale(0.11 -0.11)">
      <defs>
       <path id="ArialMT-35" d="M 266 1200 
L 856 1250 
Q 922 819 1161 601 
Q 1400 384 1738 384 
Q 2144 384 2425 690 
Q 2706 997 2706 1503 
Q 2706 1984 2436 2262 
Q 2166 2541 1728 2541 
Q 1456 2541 1237 2417 
Q 1019 2294 894 2097 
L 366 2166 
L 809 4519 
L 3088 4519 
L 3088 3981 
L 1259 3981 
L 1013 2750 
Q 1425 3038 1878 3038 
Q 2478 3038 2890 2622 
Q 3303 2206 3303 1553 
Q 3303 931 2941 478 
Q 2500 -78 1738 -78 
Q 1113 -78 717 272 
Q 322 622 266 1200 
z
" transform="scale(0.015625)"/>
      </defs>
      <use xlink:href="#ArialMT-31"/>
      <use xlink:href="#ArialMT-35" x="55.615234"/>
     </g>
    </g>
    <g id="PathCollection_14">
     <g>
      <use xlink:href="#m2801f6cf41" x="349.84" y="186.264844" style="fill: #333333; stroke: #333333"/>
     </g>
    </g>
    <g id="text_59">
     <!-- 30 -->
     <g style="fill: #262626" transform="translate(369.64 189.152344)scale(0.11 -0.11)">
      <use xlink:href="#ArialMT-33"/>
      <use xlink:href="#ArialMT-30" x="55.615234"/>
     </g>
    </g>
    <g id="PathCollection_15">
     <defs>
      <path id="m3a9c32ad6f" d="M 0 4.419417 
C 1.172043 4.419417 2.29624 3.95376 3.125 3.125 
C 3.95376 2.29624 4.419417 1.172043 4.419417 0 
C 4.419417 -1.172043 3.95376 -2.29624 3.125 -3.125 
C 2.29624 -3.95376 1.172043 -4.419417 0 -4.419417 
C -1.172043 -4.419417 -2.29624 -3.95376 -3.125 -3.125 
C -3.95376 -2.29624 -4.419417 -1.172043 -4.419417 0 
C -4.419417 1.172043 -3.95376 2.29624 -3.125 3.125 
C -2.29624 3.95376 -1.172043 4.419417 0 4.419417 
z
" style="stroke: #333333"/>
     </defs>
     <g>
      <use xlink:href="#m3a9c32ad6f" x="349.84" y="201.824687" style="fill: #333333; stroke: #333333"/>
     </g>
    </g>
    <g id="text_60">
     <!-- 45 -->
     <g style="fill: #262626" transform="translate(369.64 204.712187)scale(0.11 -0.11)">
      <use xlink:href="#ArialMT-34"/>
      <use xlink:href="#ArialMT-35" x="55.615234"/>
     </g>
    </g>
    <g id="PathCollection_16">
     <defs>
      <path id="m2f7c166c4f" d="M 0 6.373774 
C 1.690345 6.373774 3.311685 5.702193 4.506939 4.506939 
C 5.702193 3.311685 6.373774 1.690345 6.373774 0 
C 6.373774 -1.690345 5.702193 -3.311685 4.506939 -4.506939 
C 3.311685 -5.702193 1.690345 -6.373774 0 -6.373774 
C -1.690345 -6.373774 -3.311685 -5.702193 -4.506939 -4.506939 
C -5.702193 -3.311685 -6.373774 -1.690345 -6.373774 0 
C -6.373774 1.690345 -5.702193 3.311685 -4.506939 4.506939 
C -3.311685 5.702193 -1.690345 6.373774 0 6.373774 
z
" style="stroke: #333333"/>
     </defs>
     <g>
      <use xlink:href="#m2f7c166c4f" x="349.84" y="217.384531" style="fill: #333333; stroke: #333333"/>
     </g>
    </g>
    <g id="text_61">
     <!-- 60 -->
     <g style="fill: #262626" transform="translate(369.64 220.272031)scale(0.11 -0.11)">
      <defs>
       <path id="ArialMT-36" d="M 3184 3459 
L 2625 3416 
Q 2550 3747 2413 3897 
Q 2184 4138 1850 4138 
Q 1581 4138 1378 3988 
Q 1113 3794 959 3422 
Q 806 3050 800 2363 
Q 1003 2672 1297 2822 
Q 1591 2972 1913 2972 
Q 2475 2972 2870 2558 
Q 3266 2144 3266 1488 
Q 3266 1056 3080 686 
Q 2894 316 2569 119 
Q 2244 -78 1831 -78 
Q 1128 -78 684 439 
Q 241 956 241 2144 
Q 241 3472 731 4075 
Q 1159 4600 1884 4600 
Q 2425 4600 2770 4297 
Q 3116 3994 3184 3459 
z
M 888 1484 
Q 888 1194 1011 928 
Q 1134 663 1356 523 
Q 1578 384 1822 384 
Q 2178 384 2434 671 
Q 2691 959 2691 1453 
Q 2691 1928 2437 2201 
Q 2184 2475 1800 2475 
Q 1419 2475 1153 2201 
Q 888 1928 888 1484 
z
" transform="scale(0.015625)"/>
      </defs>
      <use xlink:href="#ArialMT-36"/>
      <use xlink:href="#ArialMT-30" x="55.615234"/>
     </g>
    </g>
   </g>
  </g>
 </g>
 <defs>
  <clipPath id="p3460b98930">
   <rect x="55.67625" y="27.6" width="273.26375" height="270.60375"/>
  </clipPath>
 </defs>
</svg>
